{"glyphs":{"0":{"ha":764,"x_min":60,"x_max":704,"o":"m 704 443 q 682 647 704 561 q 618 789 659 733 q 518 872 576 845 q 389 899 460 899 q 245 866 307 899 q 142 773 183 833 q 80 629 101 713 q 60 443 60 545 q 82 239 60 325 q 146 97 104 153 q 245 15 187 41 q 375 -12 304 -12 q 519 21 458 -12 q 622 114 581 54 q 684 257 663 174 q 704 443 704 341 m 585 439 q 570 287 585 353 q 530 178 556 222 q 466 111 503 134 q 382 89 428 89 q 318 101 346 89 q 268 134 290 113 q 230 185 245 155 q 204 250 214 215 l 579 529 q 583 485 581 507 q 585 439 585 462 m 179 447 q 193 598 179 533 q 234 708 208 664 q 298 775 260 753 q 382 798 336 798 q 444 786 416 798 q 494 754 472 774 q 531 705 515 733 q 557 642 547 676 l 182 364 q 179 405 180 384 q 179 447 179 426 "},"1":{"ha":764,"x_min":92,"x_max":676,"o":"m 676 0 l 676 110 l 478 110 l 478 890 l 374 890 l 92 742 l 135 642 l 347 757 l 347 110 l 119 110 l 119 0 l 676 0 "},"2":{"ha":764,"x_min":100,"x_max":684,"o":"m 684 0 l 684 113 l 253 113 l 414 269 q 512 370 471 324 q 582 459 554 416 q 623 546 609 503 q 636 640 636 589 q 617 749 636 701 q 562 830 597 797 q 478 881 527 863 q 371 899 430 899 q 219 867 284 899 q 103 782 153 835 l 168 704 q 253 769 207 744 q 355 794 299 794 q 425 781 396 794 q 473 746 454 768 q 500 694 491 724 q 509 632 509 665 q 502 568 509 597 q 475 504 495 538 q 420 430 456 471 q 329 334 385 389 l 100 106 l 100 0 l 684 0 "},"3":{"ha":764,"x_min":111,"x_max":667,"o":"m 667 269 q 650 346 667 311 q 607 406 633 380 q 546 448 580 431 q 478 469 513 464 q 585 551 546 500 q 624 679 624 603 q 606 770 624 730 q 551 840 587 811 q 462 883 515 868 q 338 899 408 899 q 288 896 314 899 q 236 889 262 894 q 184 879 210 885 q 135 864 158 872 l 135 761 q 237 787 189 779 q 329 796 284 796 q 456 764 413 796 q 500 660 500 731 q 487 594 500 623 q 451 546 475 566 q 395 516 428 526 q 322 505 362 505 l 220 505 l 220 408 l 321 408 q 411 399 370 408 q 481 372 452 390 q 527 326 511 353 q 543 262 543 299 q 530 191 543 222 q 486 136 516 159 q 409 102 456 114 q 296 90 362 90 q 200 94 247 90 q 111 106 153 98 l 111 0 q 190 -9 148 -5 q 285 -12 232 -12 q 452 10 380 -12 q 572 70 524 32 q 643 160 619 109 q 667 269 667 211 "},"4":{"ha":764,"x_min":29,"x_max":728,"o":"m 728 196 l 728 300 l 576 300 l 576 886 l 407 886 l 29 300 l 29 196 l 456 196 l 456 0 l 576 0 l 576 196 l 728 196 m 456 772 l 456 300 l 147 300 l 456 772 "},"5":{"ha":764,"x_min":121,"x_max":661,"o":"m 661 283 q 632 405 661 357 q 556 483 604 454 q 449 523 509 511 q 325 534 389 534 l 248 534 l 248 783 l 614 783 l 614 886 l 136 886 l 136 433 l 304 433 q 475 396 416 433 q 534 275 534 358 q 518 198 534 233 q 471 140 502 164 q 397 103 441 116 q 300 90 354 90 q 204 94 252 90 q 121 107 157 98 l 121 0 q 159 -5 138 -3 q 203 -8 180 -7 q 248 -11 225 -10 q 290 -12 271 -12 q 437 9 369 -12 q 554 70 505 31 q 633 163 604 109 q 661 283 661 218 "},"6":{"ha":764,"x_min":83,"x_max":694,"o":"m 694 281 q 677 388 694 339 q 627 472 661 437 q 543 526 593 507 q 425 546 492 546 q 304 531 360 546 q 205 490 248 515 l 208 518 q 235 627 214 578 q 295 711 256 676 q 393 764 334 745 q 530 783 451 783 l 625 783 l 625 886 l 538 886 q 379 868 448 886 q 260 815 311 849 q 176 735 210 782 q 121 632 142 688 q 92 512 101 576 q 83 380 83 448 q 103 205 83 279 q 161 83 123 132 q 255 11 199 35 q 385 -12 311 -12 q 512 11 454 -12 q 610 73 569 33 q 672 166 650 113 q 694 281 694 220 m 571 273 q 558 194 571 229 q 521 134 545 159 q 466 97 498 110 q 395 85 433 85 q 313 100 349 85 q 254 150 278 115 q 218 244 230 185 q 205 390 205 302 q 248 413 224 402 q 296 432 271 424 q 348 446 321 441 q 400 450 374 450 q 477 438 445 450 q 530 402 509 425 q 561 347 551 380 q 571 273 571 314 "},"7":{"ha":764,"x_min":79,"x_max":679,"o":"m 679 777 l 679 886 l 79 886 l 79 777 l 558 777 l 172 0 l 307 0 l 679 777 "},"8":{"ha":764,"x_min":81,"x_max":684,"o":"m 684 222 q 670 302 684 267 q 631 368 656 338 q 572 420 606 397 q 498 464 538 444 q 621 559 578 505 q 664 690 664 613 q 646 777 664 738 q 593 842 629 815 q 506 884 558 869 q 386 899 454 899 q 260 880 313 899 q 171 830 206 861 q 117 759 135 799 q 100 676 100 719 q 140 552 100 606 q 267 454 180 498 q 126 347 172 406 q 81 207 81 288 q 100 119 81 159 q 156 50 119 79 q 249 4 193 20 q 376 -12 304 -12 q 498 3 442 -12 q 596 49 555 19 q 661 122 637 79 q 684 222 684 166 m 543 681 q 506 590 543 629 q 392 515 469 551 q 316 554 348 535 q 263 593 284 573 q 231 635 241 612 q 221 684 221 657 q 263 771 221 742 q 382 800 306 800 q 501 771 458 800 q 543 681 543 741 m 555 214 q 542 158 555 181 q 505 119 528 134 q 450 96 481 104 q 382 89 418 89 q 313 97 345 89 q 258 121 281 105 q 221 161 235 138 q 208 215 208 184 q 216 267 208 242 q 244 314 224 291 q 295 358 263 336 q 372 403 326 380 q 462 355 427 378 q 518 309 497 332 q 547 262 539 286 q 555 214 555 239 "},"9":{"ha":764,"x_min":68,"x_max":679,"o":"m 679 493 q 656 681 679 604 q 592 807 633 758 q 495 877 551 855 q 374 899 439 899 q 250 876 306 899 q 153 813 193 852 q 90 720 113 773 q 68 604 68 666 q 85 499 68 547 q 135 415 102 450 q 220 360 169 380 q 338 340 271 340 q 458 356 403 340 q 557 396 514 371 l 554 368 q 526 256 549 305 q 461 173 504 207 q 355 121 419 138 q 204 103 292 103 l 122 103 l 122 0 l 196 0 q 404 28 314 0 q 555 117 494 57 q 648 270 616 177 q 679 493 679 363 m 368 802 q 447 787 412 802 q 507 736 482 772 q 544 642 531 701 q 557 496 557 583 q 515 473 538 484 q 467 454 492 462 q 415 441 441 446 q 363 436 388 436 q 286 448 318 436 q 232 483 253 460 q 202 538 212 506 q 192 612 192 571 q 205 693 192 658 q 242 752 219 728 q 298 789 266 777 q 368 802 330 802 "}," ":{"ha":764,"x_min":0,"x_max":0,"o":""},"A":{"ha":764,"x_min":7,"x_max":757,"o":"m 757 0 l 467 886 l 301 886 l 7 0 l 132 0 l 195 193 l 564 193 l 625 0 l 757 0 m 529 301 l 229 301 l 379 775 l 529 301 "},"B":{"ha":764,"x_min":107,"x_max":689,"o":"m 689 265 q 675 345 689 309 q 636 406 661 380 q 579 448 612 431 q 511 471 547 464 q 623 547 589 496 q 657 671 657 599 q 361 886 657 886 l 107 886 l 107 0 l 339 0 q 483 18 418 0 q 594 69 548 35 q 664 152 640 103 q 689 265 689 201 m 532 654 q 518 589 532 616 q 481 543 505 562 q 424 516 457 525 q 349 507 390 507 l 228 507 l 228 785 l 353 785 q 440 774 406 785 q 495 747 475 764 q 524 706 515 730 q 532 654 532 682 m 561 261 q 510 140 561 179 q 355 102 459 102 l 228 102 l 228 407 l 351 407 q 439 397 400 407 q 505 368 478 387 q 547 322 532 349 q 561 261 561 295 "},"C":{"ha":764,"x_min":62,"x_max":675,"o":"m 675 33 l 675 147 q 574 110 627 123 q 465 97 522 97 q 260 184 330 97 q 191 444 191 272 q 210 590 191 526 q 264 699 229 654 q 350 767 299 743 q 463 790 400 790 q 575 776 524 790 q 675 736 627 762 l 675 854 q 573 887 626 876 q 458 897 520 897 q 294 865 368 897 q 170 772 221 832 q 90 626 118 712 q 62 433 62 540 q 163 101 62 214 q 452 -11 264 -11 q 675 33 568 -11 "},"D":{"ha":764,"x_min":74,"x_max":714,"o":"m 714 453 q 612 780 714 673 q 302 886 510 886 l 74 886 l 74 0 l 264 0 q 415 16 349 0 q 532 61 481 32 q 616 131 582 90 q 673 222 651 172 q 704 331 694 273 q 714 453 714 389 m 587 444 q 285 104 587 104 l 195 104 l 195 785 l 298 785 q 426 767 372 785 q 516 709 480 749 q 570 604 552 669 q 587 444 587 538 "},"E":{"ha":764,"x_min":136,"x_max":640,"o":"m 640 0 l 640 103 l 257 103 l 257 408 l 625 408 l 625 510 l 257 510 l 257 785 l 640 785 l 640 886 l 136 886 l 136 0 l 640 0 "},"F":{"ha":764,"x_min":139,"x_max":639,"o":"m 639 783 l 639 886 l 139 886 l 139 0 l 262 0 l 262 395 l 619 395 l 619 496 l 262 496 l 262 783 l 639 783 "},"G":{"ha":764,"x_min":45,"x_max":686,"o":"m 682 734 l 682 854 q 579 888 633 878 q 465 899 525 899 q 294 867 372 899 q 161 775 216 836 q 75 629 106 715 q 45 433 45 543 q 72 240 45 323 q 151 101 100 157 q 275 16 202 45 q 439 -12 348 -12 q 500 -9 469 -12 q 565 1 532 -5 q 628 18 597 8 q 686 41 659 28 l 686 494 l 386 494 l 386 395 l 567 395 l 567 113 q 542 105 556 109 q 513 99 528 102 q 484 96 498 97 q 456 94 469 94 q 327 118 380 94 q 238 186 273 142 q 187 296 203 231 q 171 441 171 360 q 191 584 171 519 q 249 694 211 648 q 341 765 286 740 q 467 790 396 790 q 581 775 528 790 q 682 734 633 761 "},"H":{"ha":764,"x_min":75,"x_max":689,"o":"m 689 0 l 689 886 l 568 886 l 568 511 l 196 511 l 196 886 l 75 886 l 75 0 l 196 0 l 196 407 l 568 407 l 568 0 l 689 0 "},"I":{"ha":764,"x_min":117,"x_max":647,"o":"m 321 785 l 321 103 l 117 103 l 117 0 l 647 0 l 647 103 l 443 103 l 443 785 l 647 785 l 647 886 l 117 886 l 117 785 l 321 785 "},"J":{"ha":764,"x_min":123,"x_max":595,"o":"m 595 886 l 135 886 l 135 782 l 472 782 l 472 271 q 432 141 472 186 q 318 96 392 96 q 217 113 268 96 q 123 161 165 131 l 123 40 q 162 20 140 29 q 210 4 184 11 q 263 -6 235 -2 q 317 -9 290 -9 q 439 13 387 -9 q 526 73 492 35 q 578 162 561 111 q 595 271 595 214 l 595 886 "},"K":{"ha":764,"x_min":106,"x_max":710,"o":"m 710 0 l 345 465 l 694 886 l 551 886 l 227 475 l 227 886 l 106 886 l 106 0 l 227 0 l 227 435 l 558 0 l 710 0 "},"L":{"ha":764,"x_min":158,"x_max":668,"o":"m 668 0 l 668 103 l 281 103 l 281 886 l 158 886 l 158 0 l 668 0 "},"M":{"ha":764,"x_min":33,"x_max":730,"o":"m 730 0 l 688 886 l 541 886 l 415 553 l 378 440 l 339 553 l 220 886 l 77 886 l 33 0 l 147 0 l 163 543 l 165 765 l 207 628 l 332 289 l 415 289 l 546 642 l 587 765 l 595 553 l 612 0 l 730 0 "},"N":{"ha":764,"x_min":81,"x_max":684,"o":"m 684 0 l 684 886 l 571 886 l 571 635 l 571 160 l 482 363 l 236 886 l 81 886 l 81 0 l 193 0 l 193 283 l 193 730 l 268 553 l 526 0 l 684 0 "},"O":{"ha":764,"x_min":39,"x_max":726,"o":"m 726 449 q 706 637 726 553 q 643 778 685 720 q 537 867 601 836 q 389 899 474 899 q 254 871 317 899 q 142 787 190 844 q 66 644 94 730 q 39 439 39 557 q 59 250 39 334 q 121 108 79 166 q 226 19 163 50 q 375 -12 290 -12 q 510 15 446 -12 q 622 99 574 43 q 698 243 670 156 q 726 449 726 330 m 601 440 q 588 305 601 368 q 548 195 575 242 q 480 120 522 148 q 382 93 439 93 q 282 119 323 93 q 215 191 241 144 q 176 302 189 237 q 164 446 164 367 q 177 580 164 517 q 216 691 190 644 q 284 765 243 738 q 382 793 325 793 q 483 767 441 793 q 551 694 524 741 q 589 583 577 648 q 601 440 601 518 "},"P":{"ha":764,"x_min":107,"x_max":689,"o":"m 689 615 q 662 741 689 689 q 589 825 635 792 q 483 872 543 857 q 357 886 422 886 l 107 886 l 107 0 l 228 0 l 228 318 l 338 318 q 496 344 430 318 q 606 412 563 370 q 669 508 648 454 q 689 615 689 561 m 564 610 q 506 468 564 515 q 340 421 448 421 l 228 421 l 228 786 l 351 786 q 508 741 452 786 q 564 610 564 695 "},"Q":{"ha":764,"x_min":39,"x_max":764,"o":"m 317 -8 q 341 -111 321 -66 q 395 -185 361 -155 q 474 -229 429 -214 q 574 -244 519 -244 q 671 -229 624 -244 q 764 -176 719 -213 l 710 -93 q 646 -130 677 -119 q 582 -140 614 -140 q 477 -104 514 -140 q 429 -8 439 -68 q 546 35 492 2 q 640 124 600 67 q 703 263 680 181 q 726 453 726 345 q 706 638 726 556 q 643 779 685 721 q 537 868 601 837 q 389 899 474 899 q 254 871 317 899 q 142 786 190 844 q 66 641 94 729 q 39 432 39 553 q 56 261 39 338 q 107 128 73 184 q 194 37 142 71 q 317 -8 246 2 m 601 439 q 588 305 601 368 q 548 195 575 242 q 480 121 522 149 q 382 94 439 94 q 282 120 323 94 q 215 192 241 145 q 176 304 189 239 q 164 450 164 370 q 177 582 164 520 q 216 691 190 644 q 284 764 243 737 q 382 791 325 791 q 483 766 441 791 q 551 693 524 740 q 589 582 577 647 q 601 439 601 517 "},"R":{"ha":764,"x_min":115,"x_max":713,"o":"m 713 0 l 572 292 q 519 377 545 345 q 456 422 493 410 q 537 455 502 433 q 597 508 573 477 q 633 575 621 538 q 646 653 646 612 q 629 748 646 705 q 577 822 612 791 q 486 869 541 852 q 353 886 430 886 l 115 886 l 115 0 l 236 0 l 236 395 l 293 395 q 341 389 319 395 q 380 371 362 384 q 414 337 398 359 q 444 283 429 316 l 576 0 l 713 0 m 519 643 q 506 578 519 606 q 469 531 493 550 q 411 502 445 511 q 334 492 376 492 l 236 492 l 236 785 l 350 785 q 475 749 431 785 q 519 643 519 714 "},"S":{"ha":764,"x_min":75,"x_max":676,"o":"m 676 240 q 656 332 676 293 q 604 399 636 370 q 529 449 571 428 q 444 488 488 470 q 359 522 401 505 q 285 559 317 538 q 232 605 252 579 q 212 667 212 631 q 261 760 212 725 q 414 794 310 794 q 515 786 463 794 q 619 764 567 779 l 619 872 q 571 882 597 878 q 518 891 545 887 q 465 897 491 895 q 416 899 439 899 q 267 878 330 899 q 164 822 204 857 q 105 744 124 788 q 86 654 86 700 q 106 564 86 602 q 159 498 126 526 q 233 449 191 470 q 318 411 275 429 q 403 377 361 393 q 477 340 445 360 q 530 295 510 320 q 550 233 550 269 q 538 174 550 200 q 500 131 526 149 q 433 103 474 113 q 334 94 392 94 q 190 105 253 94 q 75 135 126 116 l 75 18 q 127 7 98 12 q 188 -3 155 1 q 255 -9 220 -7 q 325 -12 290 -12 q 468 3 403 -12 q 578 51 532 19 q 650 130 625 82 q 676 240 676 177 "},"T":{"ha":764,"x_min":58,"x_max":705,"o":"m 705 783 l 705 886 l 58 886 l 58 783 l 321 783 l 321 0 l 443 0 l 443 783 l 705 783 "},"U":{"ha":764,"x_min":74,"x_max":690,"o":"m 690 309 l 690 886 l 570 886 l 570 301 q 524 144 570 200 q 382 89 478 89 q 295 102 330 89 q 237 142 259 116 q 204 208 214 169 q 195 300 195 248 l 195 886 l 74 886 l 74 290 q 91 166 74 222 q 143 71 107 111 q 237 9 180 31 q 378 -12 295 -12 q 511 11 453 -12 q 609 75 569 33 q 670 176 649 117 q 690 309 690 235 "},"V":{"ha":764,"x_min":3,"x_max":761,"o":"m 761 886 l 632 886 l 440 289 l 385 114 l 330 289 l 139 886 l 3 886 l 297 0 l 460 0 l 761 886 "},"W":{"ha":764,"x_min":31,"x_max":733,"o":"m 733 886 l 625 886 l 590 240 l 587 118 l 546 235 l 422 587 l 339 587 l 232 258 l 189 118 l 179 283 l 144 886 l 31 886 l 92 0 l 243 0 l 345 307 l 376 416 l 407 315 l 517 0 l 673 0 l 733 886 "},"X":{"ha":764,"x_min":12,"x_max":747,"o":"m 747 0 l 453 458 l 725 886 l 586 886 l 382 553 l 179 886 l 36 886 l 307 453 l 12 0 l 163 0 l 379 358 l 595 0 l 747 0 "},"Y":{"ha":764,"x_min":0,"x_max":764,"o":"m 764 886 l 625 886 l 447 550 l 387 432 l 322 562 l 146 886 l 0 886 l 321 319 l 321 0 l 443 0 l 443 317 l 764 886 "},"Z":{"ha":764,"x_min":75,"x_max":688,"o":"m 679 791 l 679 886 l 87 886 l 87 777 l 530 777 l 75 90 l 75 0 l 688 0 l 688 113 l 227 113 l 679 791 "},"À":{"ha":764,"x_min":0,"x_max":757,"o":"m 757 0 l 467 886 l 301 886 l 7 0 l 132 0 l 195 193 l 564 193 l 625 0 l 757 0 m 529 301 l 229 301 l 379 775 l 529 301 m 453 981 l 310 1125 l 139 1125 l 332 981 l 453 981 m 0 886 "},"Á":{"ha":764,"x_min":0,"x_max":757,"o":"m 757 0 l 467 886 l 301 886 l 7 0 l 132 0 l 195 193 l 564 193 l 625 0 l 757 0 m 529 301 l 229 301 l 379 775 l 529 301 m 625 1125 l 454 1125 l 311 981 l 432 981 l 625 1125 m 0 886 "},"Â":{"ha":764,"x_min":0,"x_max":757,"o":"m 757 0 l 467 886 l 301 886 l 7 0 l 132 0 l 195 193 l 564 193 l 625 0 l 757 0 m 529 301 l 229 301 l 379 775 l 529 301 m 596 981 l 439 1125 l 325 1125 l 168 981 l 289 981 l 380 1050 l 472 981 l 596 981 m 0 886 "},"Ã":{"ha":764,"x_min":0,"x_max":757,"o":"m 757 0 l 467 886 l 301 886 l 7 0 l 132 0 l 195 193 l 564 193 l 625 0 l 757 0 m 529 301 l 229 301 l 379 775 l 529 301 m 136 1035 l 195 979 q 234 1027 214 1008 q 282 1046 254 1046 q 324 1034 305 1046 q 363 1009 342 1023 q 411 984 385 996 q 478 972 438 972 q 562 997 525 972 q 628 1071 598 1022 l 570 1126 q 530 1079 551 1097 q 482 1060 509 1060 q 440 1072 459 1060 q 401 1097 422 1083 q 353 1122 380 1110 q 286 1133 326 1133 q 202 1108 239 1133 q 136 1035 165 1084 m 0 886 "},"Ä":{"ha":764,"x_min":0,"x_max":757,"o":"m 757 0 l 467 886 l 301 886 l 7 0 l 132 0 l 195 193 l 564 193 l 625 0 l 757 0 m 529 301 l 229 301 l 379 775 l 529 301 m 233 1125 q 205 1119 218 1125 q 182 1104 192 1114 q 167 1081 173 1095 q 161 1053 161 1067 q 182 1001 161 1022 q 233 981 203 981 q 261 986 248 981 q 284 1002 275 992 q 300 1024 294 1011 q 306 1053 306 1038 q 300 1081 306 1067 q 284 1104 294 1095 q 261 1119 275 1114 q 233 1125 248 1125 m 530 1125 q 502 1119 515 1125 q 479 1104 489 1114 q 464 1081 470 1095 q 458 1053 458 1067 q 479 1001 458 1022 q 530 981 500 981 q 559 986 545 981 q 582 1002 572 992 q 597 1024 591 1011 q 603 1053 603 1038 q 597 1081 603 1067 q 582 1104 591 1095 q 559 1119 572 1114 q 530 1125 545 1125 m 0 886 "},"Ā":{"ha":764,"x_min":0,"x_max":757,"o":"m 757 0 l 467 886 l 301 886 l 7 0 l 132 0 l 195 193 l 564 193 l 625 0 l 757 0 m 529 301 l 229 301 l 379 775 l 529 301 m 574 1006 l 574 1096 l 191 1096 l 191 1006 l 574 1006 m 0 886 "},"Ă":{"ha":764,"x_min":0,"x_max":757,"o":"m 757 0 l 467 886 l 301 886 l 7 0 l 132 0 l 195 193 l 564 193 l 625 0 l 757 0 m 529 301 l 229 301 l 379 775 l 529 301 m 562 1129 l 469 1129 q 447 1077 469 1095 q 382 1060 424 1060 q 317 1077 340 1060 q 294 1129 294 1095 l 201 1129 q 216 1058 201 1088 q 256 1010 231 1029 q 313 982 281 991 q 382 972 346 972 q 451 982 418 972 q 508 1010 484 991 q 548 1058 533 1029 q 562 1129 562 1088 m 0 886 "},"Å":{"ha":764,"x_min":0,"x_max":757,"o":"m 757 0 l 467 886 l 301 886 l 7 0 l 132 0 l 195 193 l 564 193 l 625 0 l 757 0 m 529 301 l 229 301 l 379 775 l 529 301 m 382 1180 q 328 1171 353 1180 q 285 1144 303 1162 q 256 1103 267 1127 q 245 1051 245 1080 q 256 999 245 1023 q 285 958 267 975 q 328 931 303 941 q 382 921 353 921 q 436 931 411 921 q 479 958 461 941 q 508 999 498 975 q 518 1051 518 1023 q 508 1103 518 1080 q 479 1144 498 1127 q 436 1171 461 1162 q 382 1180 411 1180 m 382 1111 q 427 1095 410 1111 q 443 1051 443 1079 q 427 1007 443 1024 q 382 990 410 990 q 338 1007 355 990 q 321 1051 321 1024 q 338 1095 321 1079 q 382 1111 355 1111 m 0 886 "},"Ǻ":{"ha":764,"x_min":0,"x_max":757,"o":"m 757 0 l 467 886 l 301 886 l 7 0 l 132 0 l 195 193 l 564 193 l 625 0 l 757 0 m 529 301 l 229 301 l 379 775 l 529 301 m 381 1160 q 324 1152 350 1160 q 278 1127 298 1143 q 247 1089 258 1111 q 236 1041 236 1067 q 247 992 236 1015 q 277 953 257 969 q 323 929 297 937 q 381 920 349 920 q 438 929 412 920 q 485 954 465 938 q 515 992 504 970 q 526 1041 526 1015 q 515 1090 526 1067 q 486 1128 505 1112 q 439 1152 467 1144 q 381 1160 412 1160 m 381 1096 q 428 1081 411 1096 q 446 1041 446 1066 q 428 1000 446 1016 q 381 985 411 985 q 334 1000 352 985 q 316 1041 316 1016 q 334 1081 316 1066 q 381 1096 352 1096 m 649 1322 l 487 1322 l 351 1194 l 466 1194 l 649 1322 m 0 886 "},"Ą":{"ha":764,"x_min":7,"x_max":767,"o":"m 767 -254 l 767 -178 q 742 -180 755 -179 q 720 -180 729 -180 q 669 -166 684 -180 q 654 -131 654 -153 q 657 -105 654 -118 q 669 -77 661 -92 q 692 -43 677 -62 q 731 0 707 -24 l 757 0 l 467 886 l 301 886 l 7 0 l 132 0 l 195 193 l 564 193 l 625 0 q 583 -47 599 -26 q 558 -85 567 -68 q 546 -119 549 -103 q 543 -150 543 -134 q 581 -230 543 -199 q 692 -261 618 -261 q 729 -259 709 -261 q 767 -254 750 -258 m 529 301 l 229 301 l 379 775 l 529 301 "},"Æ":{"ha":764,"x_min":-29,"x_max":736,"o":"m 736 0 l 736 97 l 509 97 l 509 411 l 717 411 l 717 507 l 509 507 l 509 790 l 726 790 l 726 886 l 332 886 l -29 0 l 90 0 l 164 191 l 396 191 l 396 0 l 736 0 m 396 288 l 201 288 l 396 791 l 396 288 "},"Ǽ":{"ha":764,"x_min":-29,"x_max":736,"o":"m 736 0 l 736 97 l 509 97 l 509 411 l 717 411 l 717 507 l 509 507 l 509 790 l 726 790 l 726 886 l 332 886 l -29 0 l 90 0 l 164 191 l 396 191 l 396 0 l 736 0 m 396 288 l 201 288 l 396 791 l 396 288 m 667 1125 l 496 1125 l 353 981 l 473 981 l 667 1125 m 41 886 "},"Ć":{"ha":764,"x_min":41,"x_max":675,"o":"m 675 33 l 675 147 q 574 110 627 123 q 465 97 522 97 q 260 184 330 97 q 191 444 191 272 q 210 590 191 526 q 264 699 229 654 q 350 767 299 743 q 463 790 400 790 q 575 776 524 790 q 675 736 627 762 l 675 854 q 573 887 626 876 q 458 897 520 897 q 294 865 368 897 q 170 772 221 832 q 90 626 118 712 q 62 433 62 540 q 163 101 62 214 q 452 -11 264 -11 q 675 33 568 -11 m 667 1125 l 496 1125 l 353 981 l 473 981 l 667 1125 m 41 886 "},"Ĉ":{"ha":764,"x_min":41,"x_max":675,"o":"m 675 33 l 675 147 q 574 110 627 123 q 465 97 522 97 q 260 184 330 97 q 191 444 191 272 q 210 590 191 526 q 264 699 229 654 q 350 767 299 743 q 463 790 400 790 q 575 776 524 790 q 675 736 627 762 l 675 854 q 573 887 626 876 q 458 897 520 897 q 294 865 368 897 q 170 772 221 832 q 90 626 118 712 q 62 433 62 540 q 163 101 62 214 q 452 -11 264 -11 q 675 33 568 -11 m 637 981 l 480 1125 l 366 1125 l 210 981 l 330 981 l 422 1050 l 513 981 l 637 981 m 41 886 "},"Č":{"ha":764,"x_min":41,"x_max":675,"o":"m 675 33 l 675 147 q 574 110 627 123 q 465 97 522 97 q 260 184 330 97 q 191 444 191 272 q 210 590 191 526 q 264 699 229 654 q 350 767 299 743 q 463 790 400 790 q 575 776 524 790 q 675 736 627 762 l 675 854 q 573 887 626 876 q 458 897 520 897 q 294 865 368 897 q 170 772 221 832 q 90 626 118 712 q 62 433 62 540 q 163 101 62 214 q 452 -11 264 -11 q 675 33 568 -11 m 210 1125 l 366 981 l 480 981 l 637 1125 l 516 1125 l 425 1055 l 333 1125 l 210 1125 m 41 886 "},"Ċ":{"ha":764,"x_min":41,"x_max":675,"o":"m 675 33 l 675 147 q 574 110 627 123 q 465 97 522 97 q 260 184 330 97 q 191 444 191 272 q 210 590 191 526 q 264 699 229 654 q 350 767 299 743 q 463 790 400 790 q 575 776 524 790 q 675 736 627 762 l 675 854 q 573 887 626 876 q 458 897 520 897 q 294 865 368 897 q 170 772 221 832 q 90 626 118 712 q 62 433 62 540 q 163 101 62 214 q 452 -11 264 -11 q 675 33 568 -11 m 337 1053 q 344 1019 337 1035 q 362 992 351 1004 q 389 973 374 980 q 423 966 405 966 q 457 973 441 966 q 485 992 473 980 q 503 1019 496 1004 q 509 1053 509 1035 q 503 1086 509 1070 q 485 1113 496 1101 q 457 1132 473 1125 q 423 1139 441 1139 q 389 1132 405 1139 q 362 1113 374 1125 q 344 1086 351 1101 q 337 1053 337 1070 m 41 886 "},"Ç":{"ha":764,"x_min":62,"x_max":675,"o":"m 675 33 l 675 147 q 574 110 627 123 q 465 97 522 97 q 260 185 330 97 q 191 444 191 273 q 210 590 191 526 q 264 699 229 654 q 350 767 299 743 q 463 790 400 790 q 575 776 524 790 q 675 736 627 762 l 675 854 q 573 887 626 876 q 458 897 520 897 q 294 865 368 897 q 170 772 221 832 q 90 626 118 712 q 62 433 62 540 q 135 139 62 250 q 345 0 208 28 l 300 -200 l 403 -200 l 458 -11 q 675 33 567 -11 "},"Ď":{"ha":764,"x_min":-26,"x_max":714,"o":"m 714 453 q 612 780 714 673 q 302 886 510 886 l 74 886 l 74 0 l 264 0 q 415 16 349 0 q 532 61 481 32 q 616 131 582 90 q 673 222 651 172 q 704 331 694 273 q 714 453 714 389 m 587 444 q 285 104 587 104 l 195 104 l 195 785 l 298 785 q 426 767 372 785 q 516 709 480 749 q 570 604 552 669 q 587 444 587 538 m 142 1125 l 298 981 l 412 981 l 570 1125 l 448 1125 l 357 1055 l 265 1125 l 142 1125 m -26 886 "},"Ð":{"ha":764,"x_min":0,"x_max":714,"o":"m 94 886 l 94 510 l 0 510 l 0 408 l 94 408 l 94 0 l 271 0 q 421 16 355 0 q 537 61 488 32 q 620 131 586 90 q 675 222 654 172 q 705 331 696 273 q 714 453 714 389 q 615 780 714 673 q 310 886 517 886 l 94 886 m 215 104 l 215 408 l 368 408 l 368 510 l 215 510 l 215 785 l 306 785 q 432 767 378 785 q 519 709 485 749 q 571 604 554 669 q 587 444 587 538 q 515 190 587 275 q 292 104 443 104 l 215 104 "},"Đ":{"ha":764,"x_min":0,"x_max":714,"o":"m 94 886 l 94 510 l 0 510 l 0 408 l 94 408 l 94 0 l 271 0 q 421 16 355 0 q 537 61 488 32 q 620 131 586 90 q 675 222 654 172 q 705 331 696 273 q 714 453 714 389 q 615 780 714 673 q 310 886 517 886 l 94 886 m 215 104 l 215 408 l 368 408 l 368 510 l 215 510 l 215 785 l 306 785 q 432 767 378 785 q 519 709 485 749 q 571 604 554 669 q 587 444 587 538 q 515 190 587 275 q 292 104 443 104 l 215 104 "},"È":{"ha":764,"x_min":0,"x_max":640,"o":"m 640 0 l 640 103 l 257 103 l 257 408 l 625 408 l 625 510 l 257 510 l 257 785 l 640 785 l 640 886 l 136 886 l 136 0 l 640 0 m 453 981 l 310 1125 l 139 1125 l 332 981 l 453 981 m 0 886 "},"É":{"ha":764,"x_min":0,"x_max":640,"o":"m 640 0 l 640 103 l 257 103 l 257 408 l 625 408 l 625 510 l 257 510 l 257 785 l 640 785 l 640 886 l 136 886 l 136 0 l 640 0 m 625 1125 l 454 1125 l 311 981 l 432 981 l 625 1125 m 0 886 "},"Ê":{"ha":764,"x_min":0,"x_max":640,"o":"m 640 0 l 640 103 l 257 103 l 257 408 l 625 408 l 625 510 l 257 510 l 257 785 l 640 785 l 640 886 l 136 886 l 136 0 l 640 0 m 596 981 l 439 1125 l 325 1125 l 168 981 l 289 981 l 380 1050 l 472 981 l 596 981 m 0 886 "},"Ě":{"ha":764,"x_min":0,"x_max":640,"o":"m 640 0 l 640 103 l 257 103 l 257 408 l 625 408 l 625 510 l 257 510 l 257 785 l 640 785 l 640 886 l 136 886 l 136 0 l 640 0 m 168 1125 l 325 981 l 439 981 l 596 1125 l 475 1125 l 383 1055 l 292 1125 l 168 1125 m 0 886 "},"Ë":{"ha":764,"x_min":0,"x_max":640,"o":"m 640 0 l 640 103 l 257 103 l 257 408 l 625 408 l 625 510 l 257 510 l 257 785 l 640 785 l 640 886 l 136 886 l 136 0 l 640 0 m 233 1125 q 205 1119 218 1125 q 182 1104 192 1114 q 167 1081 173 1095 q 161 1053 161 1067 q 182 1001 161 1022 q 233 981 203 981 q 261 986 248 981 q 284 1002 275 992 q 300 1024 294 1011 q 306 1053 306 1038 q 300 1081 306 1067 q 284 1104 294 1095 q 261 1119 275 1114 q 233 1125 248 1125 m 530 1125 q 502 1119 515 1125 q 479 1104 489 1114 q 464 1081 470 1095 q 458 1053 458 1067 q 479 1001 458 1022 q 530 981 500 981 q 559 986 545 981 q 582 1002 572 992 q 597 1024 591 1011 q 603 1053 603 1038 q 597 1081 603 1067 q 582 1104 591 1095 q 559 1119 572 1114 q 530 1125 545 1125 m 0 886 "},"Ē":{"ha":764,"x_min":0,"x_max":640,"o":"m 640 0 l 640 103 l 257 103 l 257 408 l 625 408 l 625 510 l 257 510 l 257 785 l 640 785 l 640 886 l 136 886 l 136 0 l 640 0 m 574 1006 l 574 1096 l 191 1096 l 191 1006 l 574 1006 m 0 886 "},"Ĕ":{"ha":764,"x_min":0,"x_max":640,"o":"m 640 0 l 640 103 l 257 103 l 257 408 l 625 408 l 625 510 l 257 510 l 257 785 l 640 785 l 640 886 l 136 886 l 136 0 l 640 0 m 562 1129 l 469 1129 q 447 1077 469 1095 q 382 1060 424 1060 q 317 1077 340 1060 q 294 1129 294 1095 l 201 1129 q 216 1058 201 1088 q 256 1010 231 1029 q 313 982 281 991 q 382 972 346 972 q 451 982 418 972 q 508 1010 484 991 q 548 1058 533 1029 q 562 1129 562 1088 m 0 886 "},"Ė":{"ha":764,"x_min":0,"x_max":640,"o":"m 640 0 l 640 103 l 257 103 l 257 408 l 625 408 l 625 510 l 257 510 l 257 785 l 640 785 l 640 886 l 136 886 l 136 0 l 640 0 m 296 1053 q 302 1019 296 1035 q 321 992 309 1004 q 348 973 332 980 q 382 966 363 966 q 416 973 400 966 q 443 992 431 980 q 461 1019 455 1004 q 468 1053 468 1035 q 461 1086 468 1070 q 443 1113 455 1101 q 416 1132 431 1125 q 382 1139 400 1139 q 348 1132 363 1139 q 321 1113 332 1125 q 302 1086 309 1101 q 296 1053 296 1070 m 0 886 "},"Ę":{"ha":764,"x_min":136,"x_max":677,"o":"m 677 -254 l 677 -178 q 652 -180 665 -179 q 629 -180 639 -180 q 579 -166 593 -180 q 564 -131 564 -153 q 567 -105 564 -118 q 578 -77 570 -92 q 602 -43 587 -62 q 641 0 616 -24 l 640 0 l 640 103 l 257 103 l 257 408 l 625 408 l 625 510 l 257 510 l 257 785 l 640 785 l 640 886 l 136 886 l 136 0 l 535 0 q 493 -47 509 -26 q 468 -85 477 -68 q 456 -119 459 -103 q 453 -150 453 -134 q 491 -230 453 -199 q 602 -261 528 -261 q 639 -259 618 -261 q 677 -254 660 -258 "},"Ĝ":{"ha":764,"x_min":41,"x_max":686,"o":"m 682 734 l 682 854 q 579 888 633 878 q 465 899 525 899 q 294 867 372 899 q 161 775 216 836 q 75 629 106 715 q 45 433 45 543 q 72 240 45 323 q 151 101 100 157 q 275 16 202 45 q 439 -12 348 -12 q 500 -9 469 -12 q 565 1 532 -5 q 628 18 597 8 q 686 41 659 28 l 686 494 l 386 494 l 386 395 l 567 395 l 567 113 q 542 105 556 109 q 513 99 528 102 q 484 96 498 97 q 456 94 469 94 q 327 118 380 94 q 238 186 273 142 q 187 296 203 231 q 171 441 171 360 q 191 584 171 519 q 249 694 211 648 q 341 765 286 740 q 467 790 396 790 q 581 775 528 790 q 682 734 633 761 m 637 981 l 480 1125 l 366 1125 l 210 981 l 330 981 l 422 1050 l 513 981 l 637 981 m 41 886 "},"Ğ":{"ha":764,"x_min":41,"x_max":686,"o":"m 682 734 l 682 854 q 579 888 633 878 q 465 899 525 899 q 294 867 372 899 q 161 775 216 836 q 75 629 106 715 q 45 433 45 543 q 72 240 45 323 q 151 101 100 157 q 275 16 202 45 q 439 -12 348 -12 q 500 -9 469 -12 q 565 1 532 -5 q 628 18 597 8 q 686 41 659 28 l 686 494 l 386 494 l 386 395 l 567 395 l 567 113 q 542 105 556 109 q 513 99 528 102 q 484 96 498 97 q 456 94 469 94 q 327 118 380 94 q 238 186 273 142 q 187 296 203 231 q 171 441 171 360 q 191 584 171 519 q 249 694 211 648 q 341 765 286 740 q 467 790 396 790 q 581 775 528 790 q 682 734 633 761 m 604 1129 l 511 1129 q 488 1077 511 1095 q 423 1060 465 1060 q 358 1077 381 1060 q 336 1129 336 1095 l 243 1129 q 257 1058 243 1088 q 297 1010 272 1029 q 355 982 322 991 q 423 972 387 972 q 492 982 459 972 q 550 1010 525 991 q 589 1058 574 1029 q 604 1129 604 1088 m 41 886 "},"Ġ":{"ha":764,"x_min":41,"x_max":686,"o":"m 682 734 l 682 854 q 579 888 633 878 q 465 899 525 899 q 294 867 372 899 q 161 775 216 836 q 75 629 106 715 q 45 433 45 543 q 72 240 45 323 q 151 101 100 157 q 275 16 202 45 q 439 -12 348 -12 q 500 -9 469 -12 q 565 1 532 -5 q 628 18 597 8 q 686 41 659 28 l 686 494 l 386 494 l 386 395 l 567 395 l 567 113 q 542 105 556 109 q 513 99 528 102 q 484 96 498 97 q 456 94 469 94 q 327 118 380 94 q 238 186 273 142 q 187 296 203 231 q 171 441 171 360 q 191 584 171 519 q 249 694 211 648 q 341 765 286 740 q 467 790 396 790 q 581 775 528 790 q 682 734 633 761 m 337 1053 q 344 1019 337 1035 q 362 992 351 1004 q 389 973 374 980 q 423 966 405 966 q 457 973 441 966 q 485 992 473 980 q 503 1019 496 1004 q 509 1053 509 1035 q 503 1086 509 1070 q 485 1113 496 1101 q 457 1132 473 1125 q 423 1139 441 1139 q 389 1132 405 1139 q 362 1113 374 1125 q 344 1086 351 1101 q 337 1053 337 1070 m 41 886 "},"Ģ":{"ha":764,"x_min":45,"x_max":686,"o":"m 682 734 l 682 854 q 579 888 633 878 q 465 899 525 899 q 294 867 372 899 q 161 775 216 836 q 75 629 106 715 q 45 433 45 543 q 72 240 45 323 q 151 101 100 157 q 275 16 202 45 q 439 -12 348 -12 q 500 -9 469 -12 q 565 1 532 -5 q 628 18 597 8 q 686 41 659 28 l 686 494 l 386 494 l 386 395 l 567 395 l 567 113 q 542 105 556 109 q 513 99 528 102 q 484 96 498 97 q 456 94 469 94 q 327 118 380 94 q 238 186 273 142 q 187 296 203 231 q 171 441 171 360 q 191 584 171 519 q 249 694 211 648 q 341 765 286 740 q 467 790 396 790 q 581 775 528 790 q 682 734 633 761 m 453 -78 l 338 -78 l 293 -278 l 393 -278 l 453 -78 "},"Ĥ":{"ha":764,"x_min":0,"x_max":689,"o":"m 689 0 l 689 886 l 568 886 l 568 511 l 196 511 l 196 886 l 75 886 l 75 0 l 196 0 l 196 407 l 568 407 l 568 0 l 689 0 m 596 981 l 439 1125 l 325 1125 l 168 981 l 289 981 l 380 1050 l 472 981 l 596 981 m 0 886 "},"Ħ":{"ha":764,"x_min":21,"x_max":743,"o":"m 668 637 l 743 637 l 743 739 l 668 739 l 668 886 l 547 886 l 547 739 l 216 739 l 216 886 l 96 886 l 96 739 l 21 739 l 21 637 l 96 637 l 96 0 l 216 0 l 216 387 l 547 387 l 547 0 l 668 0 l 668 637 m 547 489 l 216 489 l 216 637 l 547 637 l 547 489 "},"Ì":{"ha":764,"x_min":0,"x_max":647,"o":"m 321 785 l 321 103 l 117 103 l 117 0 l 647 0 l 647 103 l 443 103 l 443 785 l 647 785 l 647 886 l 117 886 l 117 785 l 321 785 m 453 981 l 310 1125 l 139 1125 l 332 981 l 453 981 m 0 886 "},"Í":{"ha":764,"x_min":0,"x_max":647,"o":"m 321 785 l 321 103 l 117 103 l 117 0 l 647 0 l 647 103 l 443 103 l 443 785 l 647 785 l 647 886 l 117 886 l 117 785 l 321 785 m 625 1125 l 454 1125 l 311 981 l 432 981 l 625 1125 m 0 886 "},"Î":{"ha":764,"x_min":0,"x_max":647,"o":"m 321 785 l 321 103 l 117 103 l 117 0 l 647 0 l 647 103 l 443 103 l 443 785 l 647 785 l 647 886 l 117 886 l 117 785 l 321 785 m 596 981 l 439 1125 l 325 1125 l 168 981 l 289 981 l 380 1050 l 472 981 l 596 981 m 0 886 "},"Ĩ":{"ha":764,"x_min":0,"x_max":647,"o":"m 321 785 l 321 103 l 117 103 l 117 0 l 647 0 l 647 103 l 443 103 l 443 785 l 647 785 l 647 886 l 117 886 l 117 785 l 321 785 m 136 1035 l 195 979 q 234 1027 214 1008 q 282 1046 254 1046 q 324 1034 305 1046 q 363 1009 342 1023 q 411 984 385 996 q 478 972 438 972 q 562 997 525 972 q 628 1071 598 1022 l 570 1126 q 530 1079 551 1097 q 482 1060 509 1060 q 440 1072 459 1060 q 401 1097 422 1083 q 353 1122 380 1110 q 286 1133 326 1133 q 202 1108 239 1133 q 136 1035 165 1084 m 0 886 "},"Ï":{"ha":764,"x_min":0,"x_max":647,"o":"m 321 785 l 321 103 l 117 103 l 117 0 l 647 0 l 647 103 l 443 103 l 443 785 l 647 785 l 647 886 l 117 886 l 117 785 l 321 785 m 233 1125 q 205 1119 218 1125 q 182 1104 192 1114 q 167 1081 173 1095 q 161 1053 161 1067 q 182 1001 161 1022 q 233 981 203 981 q 261 986 248 981 q 284 1002 275 992 q 300 1024 294 1011 q 306 1053 306 1038 q 300 1081 306 1067 q 284 1104 294 1095 q 261 1119 275 1114 q 233 1125 248 1125 m 530 1125 q 502 1119 515 1125 q 479 1104 489 1114 q 464 1081 470 1095 q 458 1053 458 1067 q 479 1001 458 1022 q 530 981 500 981 q 559 986 545 981 q 582 1002 572 992 q 597 1024 591 1011 q 603 1053 603 1038 q 597 1081 603 1067 q 582 1104 591 1095 q 559 1119 572 1114 q 530 1125 545 1125 m 0 886 "},"Ī":{"ha":764,"x_min":0,"x_max":647,"o":"m 321 785 l 321 103 l 117 103 l 117 0 l 647 0 l 647 103 l 443 103 l 443 785 l 647 785 l 647 886 l 117 886 l 117 785 l 321 785 m 574 1006 l 574 1096 l 191 1096 l 191 1006 l 574 1006 m 0 886 "},"Ĭ":{"ha":764,"x_min":0,"x_max":647,"o":"m 321 785 l 321 103 l 117 103 l 117 0 l 647 0 l 647 103 l 443 103 l 443 785 l 647 785 l 647 886 l 117 886 l 117 785 l 321 785 m 562 1129 l 469 1129 q 447 1077 469 1095 q 382 1060 424 1060 q 317 1077 340 1060 q 294 1129 294 1095 l 201 1129 q 216 1058 201 1088 q 256 1010 231 1029 q 313 982 281 991 q 382 972 346 972 q 451 982 418 972 q 508 1010 484 991 q 548 1058 533 1029 q 562 1129 562 1088 m 0 886 "},"İ":{"ha":764,"x_min":0,"x_max":647,"o":"m 321 785 l 321 103 l 117 103 l 117 0 l 647 0 l 647 103 l 443 103 l 443 785 l 647 785 l 647 886 l 117 886 l 117 785 l 321 785 m 296 1053 q 302 1019 296 1035 q 321 992 309 1004 q 348 973 332 980 q 382 966 363 966 q 416 973 400 966 q 443 992 431 980 q 461 1019 455 1004 q 468 1053 468 1035 q 461 1086 468 1070 q 443 1113 455 1101 q 416 1132 431 1125 q 382 1139 400 1139 q 348 1132 363 1139 q 321 1113 332 1125 q 302 1086 309 1101 q 296 1053 296 1070 m 0 886 "},"Į":{"ha":764,"x_min":117,"x_max":684,"o":"m 684 -254 l 684 -178 q 659 -180 672 -179 q 636 -180 646 -180 q 586 -166 600 -180 q 571 -131 571 -153 q 574 -105 571 -118 q 585 -77 577 -92 q 608 -43 593 -62 q 648 0 623 -24 l 647 0 l 647 103 l 443 103 l 443 785 l 647 785 l 647 886 l 117 886 l 117 785 l 321 785 l 321 103 l 117 103 l 117 0 l 542 0 q 499 -47 515 -26 q 475 -85 484 -68 q 463 -119 466 -103 q 460 -150 460 -134 q 497 -230 460 -199 q 608 -261 535 -261 q 646 -259 625 -261 q 684 -254 667 -258 "},"Ĳ":{"ha":764,"x_min":75,"x_max":689,"o":"m 322 119 l 322 11 q 444 -8 376 -8 q 552 10 506 -8 q 628 60 597 28 q 674 139 659 93 q 689 240 689 184 l 689 886 l 568 886 l 568 250 q 534 128 568 165 q 437 92 500 92 q 409 94 425 92 q 378 100 393 96 q 348 110 362 104 q 322 119 333 115 m 196 0 l 196 886 l 75 886 l 75 0 l 196 0 "},"Ĵ":{"ha":764,"x_min":0,"x_max":596,"o":"m 595 886 l 135 886 l 135 782 l 472 782 l 472 271 q 432 141 472 186 q 318 96 392 96 q 217 113 268 96 q 123 161 165 131 l 123 40 q 162 20 140 29 q 210 4 184 11 q 263 -6 235 -2 q 317 -9 290 -9 q 439 13 387 -9 q 526 73 492 35 q 578 162 561 111 q 595 271 595 214 l 595 886 m 596 981 l 439 1125 l 325 1125 l 168 981 l 289 981 l 380 1050 l 472 981 l 596 981 m 0 886 "},"Ķ":{"ha":764,"x_min":106,"x_max":710,"o":"m 710 0 l 345 465 l 694 886 l 551 886 l 227 475 l 227 886 l 106 886 l 106 0 l 227 0 l 227 435 l 558 0 l 710 0 m 453 -78 l 338 -78 l 293 -278 l 393 -278 l 453 -78 "},"Ĺ":{"ha":764,"x_min":0,"x_max":668,"o":"m 668 0 l 668 103 l 281 103 l 281 886 l 158 886 l 158 0 l 668 0 m 625 1125 l 454 1125 l 311 981 l 432 981 l 625 1125 m 0 886 "},"Ľ":{"ha":764,"x_min":-165,"x_max":672,"o":"m 668 0 l 668 103 l 281 103 l 281 886 l 158 886 l 158 0 l 668 0 m 672 994 l 557 994 l 500 794 l 598 794 l 672 994 m -165 681 "},"Ļ":{"ha":764,"x_min":158,"x_max":668,"o":"m 668 0 l 668 103 l 281 103 l 281 886 l 158 886 l 158 0 l 668 0 m 453 -78 l 338 -78 l 293 -278 l 393 -278 l 453 -78 "},"Ł":{"ha":764,"x_min":31,"x_max":668,"o":"m 294 103 l 294 469 l 539 593 l 539 700 l 294 576 l 294 886 l 172 886 l 172 515 l 31 443 l 31 336 l 172 408 l 172 0 l 668 0 l 668 103 l 294 103 "},"Ŀ":{"ha":764,"x_min":132,"x_max":758,"o":"m 642 0 l 642 103 l 254 103 l 254 886 l 132 886 l 132 0 l 642 0 m 646 525 q 602 516 622 525 q 566 491 581 507 q 542 455 551 476 q 533 411 533 434 q 542 368 533 388 q 566 332 551 347 q 602 308 581 317 q 646 298 622 298 q 689 308 669 298 q 725 332 710 317 q 749 368 741 347 q 758 411 758 388 q 749 455 758 434 q 725 491 741 476 q 689 516 710 507 q 646 525 669 525 "},"Ń":{"ha":764,"x_min":0,"x_max":684,"o":"m 684 0 l 684 886 l 571 886 l 571 635 l 571 160 l 482 363 l 236 886 l 81 886 l 81 0 l 193 0 l 193 283 l 193 730 l 268 553 l 526 0 l 684 0 m 625 1125 l 454 1125 l 311 981 l 432 981 l 625 1125 m 0 886 "},"Ň":{"ha":764,"x_min":0,"x_max":684,"o":"m 684 0 l 684 886 l 571 886 l 571 635 l 571 160 l 482 363 l 236 886 l 81 886 l 81 0 l 193 0 l 193 283 l 193 730 l 268 553 l 526 0 l 684 0 m 168 1125 l 325 981 l 439 981 l 596 1125 l 475 1125 l 383 1055 l 292 1125 l 168 1125 m 0 886 "},"Ñ":{"ha":764,"x_min":0,"x_max":684,"o":"m 684 0 l 684 886 l 571 886 l 571 635 l 571 160 l 482 363 l 236 886 l 81 886 l 81 0 l 193 0 l 193 283 l 193 730 l 268 553 l 526 0 l 684 0 m 136 1035 l 195 979 q 234 1027 214 1008 q 282 1046 254 1046 q 324 1034 305 1046 q 363 1009 342 1023 q 411 984 385 996 q 478 972 438 972 q 562 997 525 972 q 628 1071 598 1022 l 570 1126 q 530 1079 551 1097 q 482 1060 509 1060 q 440 1072 459 1060 q 401 1097 422 1083 q 353 1122 380 1110 q 286 1133 326 1133 q 202 1108 239 1133 q 136 1035 165 1084 m 0 886 "},"Ņ":{"ha":764,"x_min":81,"x_max":684,"o":"m 684 0 l 684 886 l 571 886 l 571 635 l 571 160 l 482 363 l 236 886 l 81 886 l 81 0 l 193 0 l 193 283 l 193 730 l 268 553 l 526 0 l 684 0 m 453 -78 l 338 -78 l 293 -278 l 393 -278 l 453 -78 "},"Ŋ":{"ha":764,"x_min":81,"x_max":684,"o":"m 277 557 l 566 8 q 525 -135 566 -87 q 411 -183 485 -183 l 410 -285 q 524 -265 473 -285 q 610 -208 574 -245 q 665 -114 646 -170 q 684 12 684 -59 l 684 886 l 571 886 l 571 229 l 498 376 l 229 886 l 81 886 l 81 0 l 193 0 l 193 730 l 277 557 "},"Ò":{"ha":764,"x_min":0,"x_max":726,"o":"m 726 449 q 706 637 726 553 q 643 778 685 720 q 537 867 601 836 q 389 899 474 899 q 254 871 317 899 q 142 787 190 844 q 66 644 94 730 q 39 439 39 557 q 59 250 39 334 q 121 108 79 166 q 226 19 163 50 q 375 -12 290 -12 q 510 15 446 -12 q 622 99 574 43 q 698 243 670 156 q 726 449 726 330 m 601 440 q 588 305 601 368 q 548 195 575 242 q 480 120 522 148 q 382 93 439 93 q 282 119 323 93 q 215 191 241 144 q 176 302 189 237 q 164 446 164 367 q 177 580 164 517 q 216 691 190 644 q 284 765 243 738 q 382 793 325 793 q 483 767 441 793 q 551 694 524 741 q 589 583 577 648 q 601 440 601 518 m 453 981 l 310 1125 l 139 1125 l 332 981 l 453 981 m 0 886 "},"Ó":{"ha":764,"x_min":0,"x_max":726,"o":"m 726 449 q 706 637 726 553 q 643 778 685 720 q 537 867 601 836 q 389 899 474 899 q 254 871 317 899 q 142 787 190 844 q 66 644 94 730 q 39 439 39 557 q 59 250 39 334 q 121 108 79 166 q 226 19 163 50 q 375 -12 290 -12 q 510 15 446 -12 q 622 99 574 43 q 698 243 670 156 q 726 449 726 330 m 601 440 q 588 305 601 368 q 548 195 575 242 q 480 120 522 148 q 382 93 439 93 q 282 119 323 93 q 215 191 241 144 q 176 302 189 237 q 164 446 164 367 q 177 580 164 517 q 216 691 190 644 q 284 765 243 738 q 382 793 325 793 q 483 767 441 793 q 551 694 524 741 q 589 583 577 648 q 601 440 601 518 m 625 1125 l 454 1125 l 311 981 l 432 981 l 625 1125 m 0 886 "},"Ô":{"ha":764,"x_min":0,"x_max":726,"o":"m 726 449 q 706 637 726 553 q 643 778 685 720 q 537 867 601 836 q 389 899 474 899 q 254 871 317 899 q 142 787 190 844 q 66 644 94 730 q 39 439 39 557 q 59 250 39 334 q 121 108 79 166 q 226 19 163 50 q 375 -12 290 -12 q 510 15 446 -12 q 622 99 574 43 q 698 243 670 156 q 726 449 726 330 m 601 440 q 588 305 601 368 q 548 195 575 242 q 480 120 522 148 q 382 93 439 93 q 282 119 323 93 q 215 191 241 144 q 176 302 189 237 q 164 446 164 367 q 177 580 164 517 q 216 691 190 644 q 284 765 243 738 q 382 793 325 793 q 483 767 441 793 q 551 694 524 741 q 589 583 577 648 q 601 440 601 518 m 596 981 l 439 1125 l 325 1125 l 168 981 l 289 981 l 380 1050 l 472 981 l 596 981 m 0 886 "},"Õ":{"ha":764,"x_min":0,"x_max":726,"o":"m 726 449 q 706 637 726 553 q 643 778 685 720 q 537 867 601 836 q 389 899 474 899 q 254 871 317 899 q 142 787 190 844 q 66 644 94 730 q 39 439 39 557 q 59 250 39 334 q 121 108 79 166 q 226 19 163 50 q 375 -12 290 -12 q 510 15 446 -12 q 622 99 574 43 q 698 243 670 156 q 726 449 726 330 m 601 440 q 588 305 601 368 q 548 195 575 242 q 480 120 522 148 q 382 93 439 93 q 282 119 323 93 q 215 191 241 144 q 176 302 189 237 q 164 446 164 367 q 177 580 164 517 q 216 691 190 644 q 284 765 243 738 q 382 793 325 793 q 483 767 441 793 q 551 694 524 741 q 589 583 577 648 q 601 440 601 518 m 136 1035 l 195 979 q 234 1027 214 1008 q 282 1046 254 1046 q 324 1034 305 1046 q 363 1009 342 1023 q 411 984 385 996 q 478 972 438 972 q 562 997 525 972 q 628 1071 598 1022 l 570 1126 q 530 1079 551 1097 q 482 1060 509 1060 q 440 1072 459 1060 q 401 1097 422 1083 q 353 1122 380 1110 q 286 1133 326 1133 q 202 1108 239 1133 q 136 1035 165 1084 m 0 886 "},"Ö":{"ha":764,"x_min":0,"x_max":726,"o":"m 726 449 q 706 637 726 553 q 643 778 685 720 q 537 867 601 836 q 389 899 474 899 q 254 871 317 899 q 142 787 190 844 q 66 644 94 730 q 39 439 39 557 q 59 250 39 334 q 121 108 79 166 q 226 19 163 50 q 375 -12 290 -12 q 510 15 446 -12 q 622 99 574 43 q 698 243 670 156 q 726 449 726 330 m 601 440 q 588 305 601 368 q 548 195 575 242 q 480 120 522 148 q 382 93 439 93 q 282 119 323 93 q 215 191 241 144 q 176 302 189 237 q 164 446 164 367 q 177 580 164 517 q 216 691 190 644 q 284 765 243 738 q 382 793 325 793 q 483 767 441 793 q 551 694 524 741 q 589 583 577 648 q 601 440 601 518 m 233 1125 q 205 1119 218 1125 q 182 1104 192 1114 q 167 1081 173 1095 q 161 1053 161 1067 q 182 1001 161 1022 q 233 981 203 981 q 261 986 248 981 q 284 1002 275 992 q 300 1024 294 1011 q 306 1053 306 1038 q 300 1081 306 1067 q 284 1104 294 1095 q 261 1119 275 1114 q 233 1125 248 1125 m 530 1125 q 502 1119 515 1125 q 479 1104 489 1114 q 464 1081 470 1095 q 458 1053 458 1067 q 479 1001 458 1022 q 530 981 500 981 q 559 986 545 981 q 582 1002 572 992 q 597 1024 591 1011 q 603 1053 603 1038 q 597 1081 603 1067 q 582 1104 591 1095 q 559 1119 572 1114 q 530 1125 545 1125 m 0 886 "},"Ō":{"ha":764,"x_min":0,"x_max":726,"o":"m 726 449 q 706 637 726 553 q 643 778 685 720 q 537 867 601 836 q 389 899 474 899 q 254 871 317 899 q 142 787 190 844 q 66 644 94 730 q 39 439 39 557 q 59 250 39 334 q 121 108 79 166 q 226 19 163 50 q 375 -12 290 -12 q 510 15 446 -12 q 622 99 574 43 q 698 243 670 156 q 726 449 726 330 m 601 440 q 588 305 601 368 q 548 195 575 242 q 480 120 522 148 q 382 93 439 93 q 282 119 323 93 q 215 191 241 144 q 176 302 189 237 q 164 446 164 367 q 177 580 164 517 q 216 691 190 644 q 284 765 243 738 q 382 793 325 793 q 483 767 441 793 q 551 694 524 741 q 589 583 577 648 q 601 440 601 518 m 574 1006 l 574 1096 l 191 1096 l 191 1006 l 574 1006 m 0 886 "},"Ŏ":{"ha":764,"x_min":0,"x_max":726,"o":"m 726 449 q 706 637 726 553 q 643 778 685 720 q 537 867 601 836 q 389 899 474 899 q 254 871 317 899 q 142 787 190 844 q 66 644 94 730 q 39 439 39 557 q 59 250 39 334 q 121 108 79 166 q 226 19 163 50 q 375 -12 290 -12 q 510 15 446 -12 q 622 99 574 43 q 698 243 670 156 q 726 449 726 330 m 601 440 q 588 305 601 368 q 548 195 575 242 q 480 120 522 148 q 382 93 439 93 q 282 119 323 93 q 215 191 241 144 q 176 302 189 237 q 164 446 164 367 q 177 580 164 517 q 216 691 190 644 q 284 765 243 738 q 382 793 325 793 q 483 767 441 793 q 551 694 524 741 q 589 583 577 648 q 601 440 601 518 m 562 1129 l 469 1129 q 447 1077 469 1095 q 382 1060 424 1060 q 317 1077 340 1060 q 294 1129 294 1095 l 201 1129 q 216 1058 201 1088 q 256 1010 231 1029 q 313 982 281 991 q 382 972 346 972 q 451 982 418 972 q 508 1010 484 991 q 548 1058 533 1029 q 562 1129 562 1088 m 0 886 "},"Ő":{"ha":764,"x_min":0,"x_max":764,"o":"m 726 449 q 706 637 726 553 q 643 778 685 720 q 537 867 601 836 q 389 899 474 899 q 254 871 317 899 q 142 787 190 844 q 66 644 94 730 q 39 439 39 557 q 59 250 39 334 q 121 108 79 166 q 226 19 163 50 q 375 -12 290 -12 q 510 15 446 -12 q 622 99 574 43 q 698 243 670 156 q 726 449 726 330 m 601 440 q 588 305 601 368 q 548 195 575 242 q 480 120 522 148 q 382 93 439 93 q 282 119 323 93 q 215 191 241 144 q 176 302 189 237 q 164 446 164 367 q 177 580 164 517 q 216 691 190 644 q 284 765 243 738 q 382 793 325 793 q 483 767 441 793 q 551 694 524 741 q 589 583 577 648 q 601 440 601 518 m 458 1125 l 314 1125 l 184 981 l 307 981 l 458 1125 m 764 1125 l 607 1125 l 464 981 l 587 981 l 764 1125 m 0 886 "},"Ø":{"ha":764,"x_min":39,"x_max":725,"o":"m 608 1032 l 510 1032 l 467 890 q 389 899 431 899 q 254 871 317 899 q 142 787 190 844 q 66 644 94 730 q 39 439 39 557 q 81 182 39 288 q 208 28 123 77 l 157 -146 l 256 -146 l 297 -5 q 335 -11 316 -9 q 375 -12 354 -12 q 510 15 446 -12 q 622 99 574 43 q 697 243 669 156 q 725 449 725 330 q 683 702 725 598 q 555 857 642 806 l 608 1032 m 164 446 q 177 580 164 517 q 216 691 190 644 q 284 765 243 738 q 382 793 325 793 q 410 791 397 793 q 436 786 423 789 l 244 149 q 183 270 201 193 q 164 446 164 347 m 600 440 q 587 305 600 368 q 548 195 574 242 q 480 120 521 148 q 382 93 439 93 q 354 94 368 93 q 329 98 340 95 l 519 736 q 581 614 562 690 q 600 440 600 539 "},"Ǿ":{"ha":764,"x_min":-68,"x_max":725,"o":"m 608 1032 l 510 1032 l 467 890 q 389 899 431 899 q 254 871 317 899 q 142 787 190 844 q 66 644 94 730 q 39 439 39 557 q 81 182 39 288 q 208 28 123 77 l 157 -146 l 256 -146 l 297 -5 q 335 -11 316 -9 q 375 -12 354 -12 q 510 15 446 -12 q 622 99 574 43 q 697 243 669 156 q 725 449 725 330 q 683 702 725 598 q 555 857 642 806 l 608 1032 m 164 446 q 177 580 164 517 q 216 691 190 644 q 284 765 243 738 q 382 793 325 793 q 410 791 397 793 q 436 786 423 789 l 244 149 q 183 270 201 193 q 164 446 164 347 m 600 440 q 587 305 600 368 q 548 195 574 242 q 480 120 521 148 q 382 93 439 93 q 354 94 368 93 q 329 98 340 95 l 519 736 q 581 614 562 690 q 600 440 600 539 m 557 1125 l 387 1125 l 243 981 l 364 981 l 557 1125 m -68 886 "},"Œ":{"ha":764,"x_min":21,"x_max":742,"o":"m 742 0 l 742 100 l 518 100 l 518 410 l 728 410 l 728 509 l 518 509 l 518 787 l 742 787 l 742 886 l 492 886 q 464 888 481 886 q 425 891 446 889 q 383 895 404 893 q 346 896 362 896 q 220 869 279 896 q 117 785 161 842 q 47 643 73 729 q 21 439 21 557 q 40 247 21 330 q 99 106 60 163 q 200 20 139 50 q 343 -9 260 -9 q 408 -5 372 -9 q 494 0 444 0 l 742 0 m 401 790 l 401 97 q 376 92 388 94 q 350 90 363 90 q 194 181 247 90 q 142 443 142 272 q 153 581 142 517 q 190 693 165 646 q 253 769 214 741 q 346 796 292 796 q 377 794 363 796 q 401 790 392 792 "},"Þ":{"ha":764,"x_min":107,"x_max":689,"o":"m 228 886 l 107 886 l 107 0 l 228 0 l 228 172 l 338 172 q 496 199 430 172 q 606 270 563 227 q 669 368 648 313 q 689 476 689 422 q 662 603 689 550 q 589 689 635 656 q 483 739 543 723 q 357 754 422 754 l 228 754 l 228 886 m 564 471 q 506 326 564 376 q 340 275 448 275 l 228 275 l 228 654 l 351 654 q 441 642 401 654 q 508 605 480 629 q 549 547 535 581 q 564 471 564 513 "},"Ŕ":{"ha":764,"x_min":-26,"x_max":713,"o":"m 713 0 l 572 292 q 519 377 545 345 q 456 422 493 410 q 537 455 502 433 q 597 508 573 477 q 633 575 621 538 q 646 653 646 612 q 629 748 646 705 q 577 822 612 791 q 486 869 541 852 q 353 886 430 886 l 115 886 l 115 0 l 236 0 l 236 395 l 293 395 q 341 389 319 395 q 380 371 362 384 q 414 337 398 359 q 444 283 429 316 l 576 0 l 713 0 m 519 643 q 506 578 519 606 q 469 531 493 550 q 411 502 445 511 q 334 492 376 492 l 236 492 l 236 785 l 350 785 q 475 749 431 785 q 519 643 519 714 m 599 1125 l 428 1125 l 285 981 l 406 981 l 599 1125 m -26 886 "},"Ř":{"ha":764,"x_min":-26,"x_max":713,"o":"m 713 0 l 572 292 q 519 377 545 345 q 456 422 493 410 q 537 455 502 433 q 597 508 573 477 q 633 575 621 538 q 646 653 646 612 q 629 748 646 705 q 577 822 612 791 q 486 869 541 852 q 353 886 430 886 l 115 886 l 115 0 l 236 0 l 236 395 l 293 395 q 341 389 319 395 q 380 371 362 384 q 414 337 398 359 q 444 283 429 316 l 576 0 l 713 0 m 519 643 q 506 578 519 606 q 469 531 493 550 q 411 502 445 511 q 334 492 376 492 l 236 492 l 236 785 l 350 785 q 475 749 431 785 q 519 643 519 714 m 142 1125 l 298 981 l 412 981 l 570 1125 l 448 1125 l 357 1055 l 265 1125 l 142 1125 m -26 886 "},"Ŗ":{"ha":764,"x_min":115,"x_max":713,"o":"m 713 0 l 572 292 q 519 377 545 345 q 456 422 493 410 q 537 455 502 433 q 597 508 573 477 q 633 575 621 538 q 646 653 646 612 q 629 748 646 705 q 577 822 612 791 q 486 869 541 852 q 353 886 430 886 l 115 886 l 115 0 l 236 0 l 236 395 l 293 395 q 341 389 319 395 q 380 371 362 384 q 414 337 398 359 q 444 283 429 316 l 576 0 l 713 0 m 519 643 q 506 578 519 606 q 469 531 493 550 q 411 502 445 511 q 334 492 376 492 l 236 492 l 236 785 l 350 785 q 475 749 431 785 q 519 643 519 714 m 453 -78 l 338 -78 l 293 -278 l 393 -278 l 453 -78 "},"Ś":{"ha":764,"x_min":0,"x_max":676,"o":"m 676 240 q 656 332 676 293 q 604 399 636 370 q 529 449 571 428 q 444 488 488 470 q 359 522 401 505 q 285 559 317 538 q 232 605 252 579 q 212 667 212 631 q 261 760 212 725 q 414 794 310 794 q 515 786 463 794 q 619 764 567 779 l 619 872 q 571 882 597 878 q 518 891 545 887 q 465 897 491 895 q 416 899 439 899 q 267 878 330 899 q 164 822 204 857 q 105 744 124 788 q 86 654 86 700 q 106 564 86 602 q 159 498 126 526 q 233 449 191 470 q 318 411 275 429 q 403 377 361 393 q 477 340 445 360 q 530 295 510 320 q 550 233 550 269 q 538 174 550 200 q 500 131 526 149 q 433 103 474 113 q 334 94 392 94 q 190 105 253 94 q 75 135 126 116 l 75 18 q 127 7 98 12 q 188 -3 155 1 q 255 -9 220 -7 q 325 -12 290 -12 q 468 3 403 -12 q 578 51 532 19 q 650 130 625 82 q 676 240 676 177 m 625 1125 l 454 1125 l 311 981 l 432 981 l 625 1125 m 0 886 "},"Ŝ":{"ha":764,"x_min":0,"x_max":676,"o":"m 676 240 q 656 332 676 293 q 604 399 636 370 q 529 449 571 428 q 444 488 488 470 q 359 522 401 505 q 285 559 317 538 q 232 605 252 579 q 212 667 212 631 q 261 760 212 725 q 414 794 310 794 q 515 786 463 794 q 619 764 567 779 l 619 872 q 571 882 597 878 q 518 891 545 887 q 465 897 491 895 q 416 899 439 899 q 267 878 330 899 q 164 822 204 857 q 105 744 124 788 q 86 654 86 700 q 106 564 86 602 q 159 498 126 526 q 233 449 191 470 q 318 411 275 429 q 403 377 361 393 q 477 340 445 360 q 530 295 510 320 q 550 233 550 269 q 538 174 550 200 q 500 131 526 149 q 433 103 474 113 q 334 94 392 94 q 190 105 253 94 q 75 135 126 116 l 75 18 q 127 7 98 12 q 188 -3 155 1 q 255 -9 220 -7 q 325 -12 290 -12 q 468 3 403 -12 q 578 51 532 19 q 650 130 625 82 q 676 240 676 177 m 596 981 l 439 1125 l 325 1125 l 168 981 l 289 981 l 380 1050 l 472 981 l 596 981 m 0 886 "},"Š":{"ha":764,"x_min":0,"x_max":676,"o":"m 676 240 q 656 332 676 293 q 604 399 636 370 q 529 449 571 428 q 444 488 488 470 q 359 522 401 505 q 285 559 317 538 q 232 605 252 579 q 212 667 212 631 q 261 760 212 725 q 414 794 310 794 q 515 786 463 794 q 619 764 567 779 l 619 872 q 571 882 597 878 q 518 891 545 887 q 465 897 491 895 q 416 899 439 899 q 267 878 330 899 q 164 822 204 857 q 105 744 124 788 q 86 654 86 700 q 106 564 86 602 q 159 498 126 526 q 233 449 191 470 q 318 411 275 429 q 403 377 361 393 q 477 340 445 360 q 530 295 510 320 q 550 233 550 269 q 538 174 550 200 q 500 131 526 149 q 433 103 474 113 q 334 94 392 94 q 190 105 253 94 q 75 135 126 116 l 75 18 q 127 7 98 12 q 188 -3 155 1 q 255 -9 220 -7 q 325 -12 290 -12 q 468 3 403 -12 q 578 51 532 19 q 650 130 625 82 q 676 240 676 177 m 168 1125 l 325 981 l 439 981 l 596 1125 l 475 1125 l 383 1055 l 292 1125 l 168 1125 m 0 886 "},"Ş":{"ha":764,"x_min":75,"x_max":676,"o":"m 428 -4 q 572 46 519 11 q 650 130 625 82 q 676 240 676 177 q 656 332 676 293 q 604 399 636 370 q 529 449 571 428 q 444 488 488 470 q 359 522 401 505 q 285 559 317 538 q 232 605 252 579 q 212 667 212 631 q 261 760 212 725 q 414 794 310 794 q 515 786 463 794 q 619 764 567 779 l 619 872 q 571 882 597 878 q 518 891 545 887 q 465 897 491 895 q 416 899 439 899 q 267 878 330 899 q 164 822 204 857 q 105 744 124 788 q 86 654 86 700 q 106 564 86 602 q 159 498 126 526 q 233 449 191 470 q 318 411 275 429 q 403 377 361 393 q 477 340 445 360 q 530 295 510 320 q 550 233 550 269 q 538 174 550 200 q 500 131 526 149 q 433 103 474 113 q 334 94 392 94 q 190 105 253 94 q 75 135 126 116 l 75 18 q 127 7 98 12 q 188 -3 155 1 q 251 -9 220 -7 q 310 -12 282 -12 l 268 -200 l 371 -200 l 428 -4 "},"Ș":{"ha":764,"x_min":75,"x_max":676,"o":"m 676 240 q 656 332 676 293 q 604 399 636 370 q 529 449 571 428 q 444 488 488 470 q 359 522 401 505 q 285 559 317 538 q 232 605 252 579 q 212 667 212 631 q 261 760 212 725 q 414 794 310 794 q 515 786 463 794 q 619 764 567 779 l 619 872 q 571 882 597 878 q 518 891 545 887 q 465 897 491 895 q 416 899 439 899 q 267 878 330 899 q 164 822 204 857 q 105 744 124 788 q 86 654 86 700 q 106 564 86 602 q 159 498 126 526 q 233 449 191 470 q 318 411 275 429 q 403 377 361 393 q 477 340 445 360 q 530 295 510 320 q 550 233 550 269 q 538 174 550 200 q 500 131 526 149 q 433 103 474 113 q 334 94 392 94 q 190 105 253 94 q 75 135 126 116 l 75 18 q 127 7 98 12 q 188 -3 155 1 q 255 -9 220 -7 q 325 -12 290 -12 q 468 3 403 -12 q 578 51 532 19 q 650 130 625 82 q 676 240 676 177 m 453 -78 l 338 -78 l 293 -278 l 393 -278 l 453 -78 "},"Ť":{"ha":764,"x_min":0,"x_max":705,"o":"m 705 783 l 705 886 l 58 886 l 58 783 l 321 783 l 321 0 l 443 0 l 443 783 l 705 783 m 168 1125 l 325 981 l 439 981 l 596 1125 l 475 1125 l 383 1055 l 292 1125 l 168 1125 m 0 886 "},"Ţ":{"ha":764,"x_min":58,"x_max":705,"o":"m 705 783 l 705 886 l 58 886 l 58 783 l 321 783 l 321 0 l 443 0 l 443 783 l 705 783 m 453 -78 l 338 -78 l 293 -278 l 393 -278 l 453 -78 "},"Ŧ":{"ha":764,"x_min":58,"x_max":705,"o":"m 443 395 l 624 395 l 624 496 l 443 496 l 443 783 l 705 783 l 705 886 l 58 886 l 58 783 l 321 783 l 321 496 l 140 496 l 140 395 l 321 395 l 321 0 l 443 0 l 443 395 "},"Ù":{"ha":764,"x_min":0,"x_max":690,"o":"m 690 309 l 690 886 l 570 886 l 570 301 q 524 144 570 200 q 382 89 478 89 q 295 102 330 89 q 237 142 259 116 q 204 208 214 169 q 195 300 195 248 l 195 886 l 74 886 l 74 290 q 91 166 74 222 q 143 71 107 111 q 237 9 180 31 q 378 -12 295 -12 q 511 11 453 -12 q 609 75 569 33 q 670 176 649 117 q 690 309 690 235 m 453 981 l 310 1125 l 139 1125 l 332 981 l 453 981 m 0 886 "},"Ú":{"ha":764,"x_min":0,"x_max":690,"o":"m 690 309 l 690 886 l 570 886 l 570 301 q 524 144 570 200 q 382 89 478 89 q 295 102 330 89 q 237 142 259 116 q 204 208 214 169 q 195 300 195 248 l 195 886 l 74 886 l 74 290 q 91 166 74 222 q 143 71 107 111 q 237 9 180 31 q 378 -12 295 -12 q 511 11 453 -12 q 609 75 569 33 q 670 176 649 117 q 690 309 690 235 m 625 1125 l 454 1125 l 311 981 l 432 981 l 625 1125 m 0 886 "},"Û":{"ha":764,"x_min":0,"x_max":690,"o":"m 690 309 l 690 886 l 570 886 l 570 301 q 524 144 570 200 q 382 89 478 89 q 295 102 330 89 q 237 142 259 116 q 204 208 214 169 q 195 300 195 248 l 195 886 l 74 886 l 74 290 q 91 166 74 222 q 143 71 107 111 q 237 9 180 31 q 378 -12 295 -12 q 511 11 453 -12 q 609 75 569 33 q 670 176 649 117 q 690 309 690 235 m 596 981 l 439 1125 l 325 1125 l 168 981 l 289 981 l 380 1050 l 472 981 l 596 981 m 0 886 "},"Ũ":{"ha":764,"x_min":0,"x_max":690,"o":"m 690 309 l 690 886 l 570 886 l 570 301 q 524 144 570 200 q 382 89 478 89 q 295 102 330 89 q 237 142 259 116 q 204 208 214 169 q 195 300 195 248 l 195 886 l 74 886 l 74 290 q 91 166 74 222 q 143 71 107 111 q 237 9 180 31 q 378 -12 295 -12 q 511 11 453 -12 q 609 75 569 33 q 670 176 649 117 q 690 309 690 235 m 136 1035 l 195 979 q 234 1027 214 1008 q 282 1046 254 1046 q 324 1034 305 1046 q 363 1009 342 1023 q 411 984 385 996 q 478 972 438 972 q 562 997 525 972 q 628 1071 598 1022 l 570 1126 q 530 1079 551 1097 q 482 1060 509 1060 q 440 1072 459 1060 q 401 1097 422 1083 q 353 1122 380 1110 q 286 1133 326 1133 q 202 1108 239 1133 q 136 1035 165 1084 m 0 886 "},"Ü":{"ha":764,"x_min":0,"x_max":690,"o":"m 690 309 l 690 886 l 570 886 l 570 301 q 524 144 570 200 q 382 89 478 89 q 295 102 330 89 q 237 142 259 116 q 204 208 214 169 q 195 300 195 248 l 195 886 l 74 886 l 74 290 q 91 166 74 222 q 143 71 107 111 q 237 9 180 31 q 378 -12 295 -12 q 511 11 453 -12 q 609 75 569 33 q 670 176 649 117 q 690 309 690 235 m 233 1125 q 205 1119 218 1125 q 182 1104 192 1114 q 167 1081 173 1095 q 161 1053 161 1067 q 182 1001 161 1022 q 233 981 203 981 q 261 986 248 981 q 284 1002 275 992 q 300 1024 294 1011 q 306 1053 306 1038 q 300 1081 306 1067 q 284 1104 294 1095 q 261 1119 275 1114 q 233 1125 248 1125 m 530 1125 q 502 1119 515 1125 q 479 1104 489 1114 q 464 1081 470 1095 q 458 1053 458 1067 q 479 1001 458 1022 q 530 981 500 981 q 559 986 545 981 q 582 1002 572 992 q 597 1024 591 1011 q 603 1053 603 1038 q 597 1081 603 1067 q 582 1104 591 1095 q 559 1119 572 1114 q 530 1125 545 1125 m 0 886 "},"Ū":{"ha":764,"x_min":0,"x_max":690,"o":"m 690 309 l 690 886 l 570 886 l 570 301 q 524 144 570 200 q 382 89 478 89 q 295 102 330 89 q 237 142 259 116 q 204 208 214 169 q 195 300 195 248 l 195 886 l 74 886 l 74 290 q 91 166 74 222 q 143 71 107 111 q 237 9 180 31 q 378 -12 295 -12 q 511 11 453 -12 q 609 75 569 33 q 670 176 649 117 q 690 309 690 235 m 574 1006 l 574 1096 l 191 1096 l 191 1006 l 574 1006 m 0 886 "},"Ŭ":{"ha":764,"x_min":0,"x_max":690,"o":"m 690 309 l 690 886 l 570 886 l 570 301 q 524 144 570 200 q 382 89 478 89 q 295 102 330 89 q 237 142 259 116 q 204 208 214 169 q 195 300 195 248 l 195 886 l 74 886 l 74 290 q 91 166 74 222 q 143 71 107 111 q 237 9 180 31 q 378 -12 295 -12 q 511 11 453 -12 q 609 75 569 33 q 670 176 649 117 q 690 309 690 235 m 562 1129 l 469 1129 q 447 1077 469 1095 q 382 1060 424 1060 q 317 1077 340 1060 q 294 1129 294 1095 l 201 1129 q 216 1058 201 1088 q 256 1010 231 1029 q 313 982 281 991 q 382 972 346 972 q 451 982 418 972 q 508 1010 484 991 q 548 1058 533 1029 q 562 1129 562 1088 m 0 886 "},"Ů":{"ha":764,"x_min":0,"x_max":690,"o":"m 690 309 l 690 886 l 570 886 l 570 301 q 524 144 570 200 q 382 89 478 89 q 295 102 330 89 q 237 142 259 116 q 204 208 214 169 q 195 300 195 248 l 195 886 l 74 886 l 74 290 q 91 166 74 222 q 143 71 107 111 q 237 9 180 31 q 378 -12 295 -12 q 511 11 453 -12 q 609 75 569 33 q 670 176 649 117 q 690 309 690 235 m 382 1180 q 328 1171 353 1180 q 285 1144 303 1162 q 256 1103 267 1127 q 245 1051 245 1080 q 256 999 245 1023 q 285 958 267 975 q 328 931 303 941 q 382 921 353 921 q 436 931 411 921 q 479 958 461 941 q 508 999 498 975 q 518 1051 518 1023 q 508 1103 518 1080 q 479 1144 498 1127 q 436 1171 461 1162 q 382 1180 411 1180 m 382 1111 q 427 1095 410 1111 q 443 1051 443 1079 q 427 1007 443 1024 q 382 990 410 990 q 338 1007 355 990 q 321 1051 321 1024 q 338 1095 321 1079 q 382 1111 355 1111 m 0 886 "},"Ű":{"ha":764,"x_min":0,"x_max":764,"o":"m 690 309 l 690 886 l 570 886 l 570 301 q 524 144 570 200 q 382 89 478 89 q 295 102 330 89 q 237 142 259 116 q 204 208 214 169 q 195 300 195 248 l 195 886 l 74 886 l 74 290 q 91 166 74 222 q 143 71 107 111 q 237 9 180 31 q 378 -12 295 -12 q 511 11 453 -12 q 609 75 569 33 q 670 176 649 117 q 690 309 690 235 m 458 1125 l 314 1125 l 184 981 l 307 981 l 458 1125 m 764 1125 l 607 1125 l 464 981 l 587 981 l 764 1125 m 0 886 "},"Ų":{"ha":764,"x_min":74,"x_max":690,"o":"m 514 -254 l 514 -178 q 489 -180 503 -179 q 467 -180 476 -180 q 416 -166 431 -180 q 401 -131 401 -153 q 405 -105 401 -118 q 416 -77 408 -92 q 439 -43 424 -62 q 478 0 454 -24 q 569 40 530 13 q 635 107 608 68 q 676 197 663 146 q 690 309 690 248 l 690 886 l 570 886 l 570 301 q 524 144 570 200 q 382 89 478 89 q 295 102 330 89 q 237 142 259 116 q 204 208 214 169 q 195 300 195 248 l 195 886 l 74 886 l 74 290 q 90 169 74 224 q 139 75 105 115 q 228 13 174 36 q 361 -12 283 -9 q 325 -54 338 -35 q 303 -89 311 -73 q 293 -120 296 -106 q 290 -150 290 -135 q 328 -230 290 -199 q 439 -261 366 -261 q 476 -259 456 -261 q 514 -254 497 -258 "},"Ẁ":{"ha":764,"x_min":0,"x_max":733,"o":"m 733 886 l 625 886 l 590 240 l 587 118 l 546 235 l 422 587 l 339 587 l 232 258 l 189 118 l 179 283 l 144 886 l 31 886 l 92 0 l 243 0 l 345 307 l 376 416 l 407 315 l 517 0 l 673 0 l 733 886 m 453 981 l 310 1125 l 139 1125 l 332 981 l 453 981 m 0 886 "},"Ẃ":{"ha":764,"x_min":0,"x_max":733,"o":"m 733 886 l 625 886 l 590 240 l 587 118 l 546 235 l 422 587 l 339 587 l 232 258 l 189 118 l 179 283 l 144 886 l 31 886 l 92 0 l 243 0 l 345 307 l 376 416 l 407 315 l 517 0 l 673 0 l 733 886 m 625 1125 l 454 1125 l 311 981 l 432 981 l 625 1125 m 0 886 "},"Ŵ":{"ha":764,"x_min":0,"x_max":733,"o":"m 733 886 l 625 886 l 590 240 l 587 118 l 546 235 l 422 587 l 339 587 l 232 258 l 189 118 l 179 283 l 144 886 l 31 886 l 92 0 l 243 0 l 345 307 l 376 416 l 407 315 l 517 0 l 673 0 l 733 886 m 596 981 l 439 1125 l 325 1125 l 168 981 l 289 981 l 380 1050 l 472 981 l 596 981 m 0 886 "},"Ẅ":{"ha":764,"x_min":0,"x_max":733,"o":"m 733 886 l 625 886 l 590 240 l 587 118 l 546 235 l 422 587 l 339 587 l 232 258 l 189 118 l 179 283 l 144 886 l 31 886 l 92 0 l 243 0 l 345 307 l 376 416 l 407 315 l 517 0 l 673 0 l 733 886 m 233 1125 q 205 1119 218 1125 q 182 1104 192 1114 q 167 1081 173 1095 q 161 1053 161 1067 q 182 1001 161 1022 q 233 981 203 981 q 261 986 248 981 q 284 1002 275 992 q 300 1024 294 1011 q 306 1053 306 1038 q 300 1081 306 1067 q 284 1104 294 1095 q 261 1119 275 1114 q 233 1125 248 1125 m 530 1125 q 502 1119 515 1125 q 479 1104 489 1114 q 464 1081 470 1095 q 458 1053 458 1067 q 479 1001 458 1022 q 530 981 500 981 q 559 986 545 981 q 582 1002 572 992 q 597 1024 591 1011 q 603 1053 603 1038 q 597 1081 603 1067 q 582 1104 591 1095 q 559 1119 572 1114 q 530 1125 545 1125 m 0 886 "},"Ỳ":{"ha":764,"x_min":0,"x_max":764,"o":"m 764 886 l 625 886 l 447 550 l 387 432 l 322 562 l 146 886 l 0 886 l 321 319 l 321 0 l 443 0 l 443 317 l 764 886 m 453 981 l 310 1125 l 139 1125 l 332 981 l 453 981 m 0 886 "},"Ý":{"ha":764,"x_min":0,"x_max":764,"o":"m 764 886 l 625 886 l 447 550 l 387 432 l 322 562 l 146 886 l 0 886 l 321 319 l 321 0 l 443 0 l 443 317 l 764 886 m 625 1125 l 454 1125 l 311 981 l 432 981 l 625 1125 m 0 886 "},"Ŷ":{"ha":764,"x_min":0,"x_max":764,"o":"m 764 886 l 625 886 l 447 550 l 387 432 l 322 562 l 146 886 l 0 886 l 321 319 l 321 0 l 443 0 l 443 317 l 764 886 m 596 981 l 439 1125 l 325 1125 l 168 981 l 289 981 l 380 1050 l 472 981 l 596 981 m 0 886 "},"Ÿ":{"ha":764,"x_min":0,"x_max":764,"o":"m 764 886 l 625 886 l 447 550 l 387 432 l 322 562 l 146 886 l 0 886 l 321 319 l 321 0 l 443 0 l 443 317 l 764 886 m 233 1125 q 205 1119 218 1125 q 182 1104 192 1114 q 167 1081 173 1095 q 161 1053 161 1067 q 182 1001 161 1022 q 233 981 203 981 q 261 986 248 981 q 284 1002 275 992 q 300 1024 294 1011 q 306 1053 306 1038 q 300 1081 306 1067 q 284 1104 294 1095 q 261 1119 275 1114 q 233 1125 248 1125 m 530 1125 q 502 1119 515 1125 q 479 1104 489 1114 q 464 1081 470 1095 q 458 1053 458 1067 q 479 1001 458 1022 q 530 981 500 981 q 559 986 545 981 q 582 1002 572 992 q 597 1024 591 1011 q 603 1053 603 1038 q 597 1081 603 1067 q 582 1104 591 1095 q 559 1119 572 1114 q 530 1125 545 1125 m 0 886 "},"Ź":{"ha":764,"x_min":0,"x_max":688,"o":"m 679 791 l 679 886 l 87 886 l 87 777 l 530 777 l 75 90 l 75 0 l 688 0 l 688 113 l 227 113 l 679 791 m 625 1125 l 454 1125 l 311 981 l 432 981 l 625 1125 m 0 886 "},"Ž":{"ha":764,"x_min":0,"x_max":688,"o":"m 679 791 l 679 886 l 87 886 l 87 777 l 530 777 l 75 90 l 75 0 l 688 0 l 688 113 l 227 113 l 679 791 m 168 1125 l 325 981 l 439 981 l 596 1125 l 475 1125 l 383 1055 l 292 1125 l 168 1125 m 0 886 "},"Ż":{"ha":764,"x_min":0,"x_max":688,"o":"m 679 791 l 679 886 l 87 886 l 87 777 l 530 777 l 75 90 l 75 0 l 688 0 l 688 113 l 227 113 l 679 791 m 296 1053 q 302 1019 296 1035 q 321 992 309 1004 q 348 973 332 980 q 382 966 363 966 q 416 973 400 966 q 443 992 431 980 q 461 1019 455 1004 q 468 1053 468 1035 q 461 1086 468 1070 q 443 1113 455 1101 q 416 1132 431 1125 q 382 1139 400 1139 q 348 1132 363 1139 q 321 1113 332 1125 q 302 1086 309 1101 q 296 1053 296 1070 m 0 886 "},"a":{"ha":764,"x_min":90,"x_max":652,"o":"m 546 0 l 652 0 l 652 469 q 633 568 652 526 q 581 638 615 610 q 497 680 547 666 q 386 693 448 693 q 319 689 352 693 q 255 680 286 686 q 197 666 224 673 q 147 650 170 658 l 147 543 q 263 580 207 567 q 376 593 319 593 q 494 556 456 593 q 533 460 533 520 l 533 400 l 392 400 q 166 342 243 400 q 90 182 90 284 q 103 105 90 140 q 142 44 115 70 q 210 3 169 18 q 310 -12 252 -12 q 430 12 373 -12 q 543 92 488 37 l 546 0 m 533 310 l 533 189 q 422 111 475 136 q 329 86 370 86 q 276 94 298 86 q 241 116 254 102 q 221 148 227 130 q 215 186 215 166 q 225 237 215 214 q 255 276 235 260 q 307 301 275 292 q 383 310 339 310 l 533 310 "},"b":{"ha":764,"x_min":109,"x_max":690,"o":"m 690 353 q 675 493 690 430 q 631 600 661 555 q 557 669 601 644 q 454 693 513 693 q 330 665 388 693 q 221 568 272 637 l 227 694 l 227 958 l 109 958 l 109 40 q 233 3 170 15 q 357 -8 296 -8 q 496 17 434 -8 q 601 88 557 41 q 667 201 644 134 q 690 353 690 268 m 570 347 q 553 223 570 273 q 508 143 536 174 q 443 100 480 113 q 366 87 406 87 q 297 95 333 87 q 227 117 261 103 l 227 447 q 285 515 258 488 q 337 559 313 543 q 385 583 362 576 q 431 590 408 590 q 494 572 467 590 q 537 522 520 554 q 562 446 554 490 q 570 347 570 401 "},"c":{"ha":764,"x_min":107,"x_max":637,"o":"m 637 25 l 637 135 q 550 102 595 113 q 457 92 505 92 q 291 153 351 92 q 231 338 231 214 q 248 444 231 397 q 296 523 266 490 q 367 573 327 555 q 453 590 408 590 q 548 579 502 590 q 637 546 593 569 l 637 659 q 549 683 595 675 q 450 690 503 690 q 311 665 374 690 q 203 593 248 640 q 132 480 157 546 q 107 334 107 414 q 194 78 107 165 q 443 -9 281 -9 q 543 -1 494 -9 q 637 25 591 7 "},"d":{"ha":764,"x_min":74,"x_max":652,"o":"m 74 326 q 89 188 74 250 q 133 81 104 125 q 207 12 163 37 q 310 -12 252 -12 q 435 22 377 -12 q 542 129 492 57 l 546 0 l 652 0 l 652 958 l 533 958 l 533 672 q 471 685 503 681 q 407 689 439 689 q 270 665 332 689 q 165 594 209 641 q 98 480 121 548 q 74 326 74 413 m 195 334 q 249 529 195 467 q 399 591 302 591 q 469 584 433 591 q 533 564 504 577 l 533 248 q 428 129 478 169 q 334 89 378 89 q 231 150 267 89 q 195 334 195 210 "},"e":{"ha":764,"x_min":79,"x_max":684,"o":"m 684 376 q 664 508 684 449 q 607 607 645 566 q 515 671 570 648 q 389 693 460 693 q 258 665 315 693 q 160 588 200 636 q 100 475 121 539 q 79 339 79 411 q 99 191 79 256 q 158 80 118 125 q 262 12 199 35 q 412 -12 325 -12 q 538 -4 477 -12 q 647 18 599 5 l 647 115 q 600 104 625 109 q 547 95 574 99 q 489 89 519 91 q 429 86 459 86 q 261 142 319 86 q 203 302 203 198 l 681 302 q 683 334 682 317 q 684 376 684 351 m 561 393 l 203 393 q 220 477 206 439 q 258 542 235 515 q 313 584 281 569 q 383 599 345 599 q 462 584 428 599 q 518 541 496 568 q 552 476 541 514 q 561 393 563 439 "},"f":{"ha":764,"x_min":0,"x_max":713,"o":"m 713 848 l 713 950 q 557 966 627 966 q 273 694 273 966 l 273 582 l 54 582 l 54 484 l 273 484 l 273 0 l 393 0 l 393 484 l 692 484 l 692 582 l 393 582 l 393 701 q 553 868 393 868 q 713 848 620 868 m 0 681 "},"g":{"ha":764,"x_min":64,"x_max":708,"o":"m 599 585 l 708 585 l 708 681 l 461 681 q 420 690 444 686 q 372 693 397 693 q 263 676 313 693 q 179 627 214 659 q 125 552 144 596 q 106 456 106 509 q 110 410 106 430 q 120 373 113 390 q 137 340 127 355 q 160 310 147 326 q 111 241 132 277 q 90 160 90 204 q 94 128 90 144 q 106 97 98 112 q 127 71 115 83 q 158 50 140 58 q 87 -22 110 16 q 64 -109 64 -59 q 81 -179 64 -147 q 135 -235 98 -212 q 230 -272 172 -258 q 371 -285 288 -285 q 521 -267 458 -285 q 625 -217 584 -248 q 686 -146 666 -186 q 705 -60 705 -105 q 688 14 705 -18 q 640 68 671 46 q 566 101 609 90 q 472 114 523 113 l 293 121 q 228 139 252 122 q 203 182 203 156 q 212 220 203 203 q 233 256 220 237 q 292 233 255 242 q 372 224 330 224 q 480 241 431 224 q 565 290 530 258 q 620 365 600 321 q 639 461 639 408 q 628 529 639 498 q 599 585 618 561 m 189 -98 q 193 -69 189 -83 q 204 -40 196 -54 q 227 -11 212 -25 q 264 18 241 3 l 441 12 q 545 -11 511 9 q 579 -72 579 -31 q 569 -116 579 -94 q 535 -154 559 -137 q 474 -180 512 -170 q 379 -191 435 -191 q 239 -169 290 -191 q 189 -98 189 -146 m 225 458 q 235 513 225 487 q 263 560 245 540 q 310 592 282 580 q 372 604 337 604 q 432 594 405 604 q 478 564 458 583 q 509 518 498 545 q 519 458 519 491 q 510 404 519 430 q 481 357 500 377 q 435 325 463 336 q 372 313 408 313 q 313 323 340 313 q 267 353 286 334 q 236 399 247 372 q 225 458 225 426 "},"h":{"ha":764,"x_min":109,"x_max":656,"o":"m 656 0 l 656 444 q 600 631 656 569 q 443 693 545 693 q 385 687 413 693 q 331 667 357 681 q 277 630 304 652 q 222 574 250 607 l 227 681 l 227 958 l 109 958 l 109 0 l 227 0 l 227 452 q 288 519 261 492 q 336 563 314 547 q 379 585 359 578 q 424 591 400 591 q 508 552 479 591 q 538 435 538 513 l 538 0 l 656 0 "},"i":{"ha":764,"x_min":117,"x_max":663,"o":"m 340 583 l 340 98 l 117 98 l 117 0 l 663 0 l 663 98 l 460 98 l 460 681 l 139 681 l 139 583 l 340 583 m 382 966 q 345 959 362 966 q 316 939 328 952 q 296 910 303 926 q 289 873 289 893 q 296 838 289 854 q 316 808 303 821 q 345 788 328 795 q 382 781 362 781 q 418 788 401 781 q 448 808 435 795 q 468 838 460 821 q 475 873 475 854 q 468 910 475 893 q 448 939 460 926 q 418 959 435 952 q 382 966 401 966 "},"j":{"ha":764,"x_min":89,"x_max":591,"o":"m 570 681 l 117 681 l 117 583 l 450 583 l 450 8 q 406 -136 450 -87 q 285 -184 362 -184 q 235 -181 260 -184 q 183 -172 209 -178 q 134 -157 158 -166 q 89 -138 110 -149 l 89 -250 q 175 -276 127 -267 q 273 -285 223 -285 q 398 -265 342 -285 q 491 -208 453 -245 q 549 -114 529 -170 q 570 12 570 -59 l 570 681 m 498 966 q 462 959 479 966 q 432 939 445 952 q 413 909 420 926 q 406 873 406 892 q 413 837 406 854 q 432 808 420 821 q 462 788 445 795 q 498 781 479 781 q 535 788 518 781 q 565 808 552 795 q 584 837 577 821 q 591 873 591 854 q 584 909 591 892 q 565 939 577 926 q 535 959 552 952 q 498 966 518 966 "},"k":{"ha":764,"x_min":123,"x_max":721,"o":"m 721 0 l 384 367 l 703 681 l 547 681 l 241 370 l 241 958 l 123 958 l 123 0 l 241 0 l 241 365 l 559 0 l 721 0 "},"l":{"ha":764,"x_min":117,"x_max":663,"o":"m 340 861 l 340 98 l 117 98 l 117 0 l 663 0 l 663 98 l 460 98 l 460 958 l 139 958 l 139 861 l 340 861 "},"m":{"ha":764,"x_min":61,"x_max":703,"o":"m 594 0 l 703 0 l 703 496 q 574 693 703 693 q 524 683 546 693 q 485 655 503 673 q 451 609 467 636 q 419 546 435 581 q 391 657 419 621 q 307 693 362 693 q 263 685 283 693 q 225 661 243 677 q 191 617 208 644 q 157 551 174 590 l 151 681 l 61 681 l 61 0 l 170 0 l 170 437 q 208 515 192 485 q 238 564 224 546 q 262 588 251 581 q 285 595 273 595 q 304 590 296 595 q 318 572 313 585 q 325 536 323 559 q 328 476 328 513 l 328 0 l 435 0 l 435 437 q 473 512 457 481 q 502 560 489 542 q 527 587 515 578 q 552 595 538 595 q 571 590 564 595 q 584 573 579 585 q 592 541 589 562 q 594 489 594 521 l 594 0 "},"n":{"ha":764,"x_min":109,"x_max":656,"o":"m 109 681 l 109 0 l 227 0 l 227 452 q 285 519 259 492 q 334 563 311 547 q 377 585 356 578 q 419 591 397 591 q 508 553 478 591 q 538 435 538 515 l 538 0 l 656 0 l 656 444 q 602 631 656 569 q 443 693 548 693 q 385 687 413 693 q 331 667 357 682 q 276 630 304 653 q 218 571 248 606 l 214 681 l 109 681 "},"o":{"ha":764,"x_min":62,"x_max":701,"o":"m 701 346 q 680 495 701 430 q 618 604 659 560 q 520 670 578 648 q 389 693 462 693 q 252 667 312 693 q 149 594 191 641 q 85 481 107 547 q 62 336 62 416 q 84 186 62 252 q 145 77 105 121 q 244 11 186 33 q 375 -12 302 -12 q 512 14 452 -12 q 614 87 572 40 q 679 200 656 134 q 701 346 701 267 m 581 340 q 569 244 581 290 q 534 163 558 198 q 472 108 510 129 q 382 87 435 87 q 299 103 336 87 q 237 151 262 119 q 197 230 211 182 q 183 340 183 277 q 194 436 183 391 q 230 517 205 482 q 291 572 254 551 q 382 593 329 593 q 464 577 427 593 q 527 529 501 561 q 567 451 553 498 q 581 340 581 404 "},"p":{"ha":764,"x_min":109,"x_max":690,"o":"m 690 353 q 675 493 690 430 q 631 600 661 555 q 557 669 601 644 q 454 693 513 693 q 330 665 387 693 q 221 567 272 637 l 214 681 l 109 681 l 109 -278 l 227 -278 l 227 7 q 292 -5 260 -1 q 357 -8 324 -8 q 489 14 428 -8 q 595 81 550 37 q 665 194 640 126 q 690 353 690 262 m 570 347 q 515 152 570 217 q 366 87 461 87 q 295 95 331 87 q 227 117 259 103 l 227 447 q 285 515 258 488 q 337 559 313 543 q 385 583 362 576 q 431 590 408 590 q 494 572 467 590 q 537 522 520 554 q 562 446 554 490 q 570 347 570 401 "},"q":{"ha":764,"x_min":74,"x_max":652,"o":"m 74 326 q 89 189 74 251 q 133 81 103 126 q 206 12 162 37 q 310 -12 250 -12 q 539 125 443 -12 l 533 -21 l 533 -278 l 652 -278 l 652 693 l 547 667 q 475 684 509 678 q 407 689 441 689 q 256 660 319 689 q 153 581 193 631 q 93 465 113 531 q 74 326 74 399 m 195 334 q 247 527 195 461 q 399 593 299 593 q 472 585 437 593 q 533 564 506 576 l 533 248 q 428 129 478 169 q 334 89 378 89 q 272 106 298 89 q 229 154 246 123 q 203 231 212 186 q 195 334 195 277 "},"r":{"ha":764,"x_min":136,"x_max":700,"o":"m 136 681 l 136 0 l 256 0 l 256 437 q 317 508 288 479 q 371 556 345 537 q 420 583 396 574 q 468 591 444 591 q 550 551 522 591 q 576 421 578 511 l 696 421 q 645 625 700 556 q 485 693 591 693 q 367 661 425 693 q 248 555 308 628 l 244 681 l 136 681 "},"s":{"ha":764,"x_min":123,"x_max":648,"o":"m 648 186 q 636 254 648 224 q 600 307 625 283 q 532 350 574 331 q 431 387 491 370 q 340 417 375 404 q 287 445 306 431 q 260 474 267 459 q 253 507 253 489 q 261 542 253 526 q 288 569 269 557 q 337 588 307 581 q 411 595 367 595 q 497 588 448 595 q 603 568 547 582 l 603 673 q 501 689 550 684 q 412 693 452 693 q 277 674 331 693 q 191 625 222 654 q 145 562 159 596 q 132 500 132 528 q 149 425 132 456 q 193 369 165 393 q 261 328 222 345 q 346 297 300 311 q 443 264 408 279 q 496 237 479 250 q 519 209 513 224 q 526 176 526 195 q 485 111 526 134 q 359 87 444 87 q 242 96 301 87 q 123 122 183 105 l 123 14 q 237 -6 179 0 q 364 -12 295 -12 q 429 -7 396 -12 q 494 7 463 -3 q 553 33 526 18 q 602 71 581 49 q 635 121 623 93 q 648 186 648 150 "},"t":{"ha":764,"x_min":43,"x_max":657,"o":"m 657 9 l 657 111 q 576 95 615 100 q 505 90 538 90 q 390 126 429 90 q 351 236 351 163 l 351 582 l 657 582 l 657 681 l 351 681 l 351 899 l 233 868 l 233 681 l 43 681 l 43 582 l 233 582 l 233 227 q 296 48 233 106 q 488 -9 359 -9 q 574 -5 532 -9 q 657 9 617 -1 "},"u":{"ha":764,"x_min":109,"x_max":656,"o":"m 656 0 l 656 681 l 538 681 l 538 229 q 479 161 505 188 q 430 118 453 134 q 387 95 408 102 q 345 89 366 89 q 227 245 227 89 l 227 681 l 109 681 l 109 236 q 162 50 109 111 q 321 -12 216 -12 q 379 -6 351 -12 q 433 14 406 -1 q 488 51 460 28 q 546 110 515 75 l 550 0 l 656 0 "},"v":{"ha":764,"x_min":45,"x_max":714,"o":"m 45 681 l 311 0 l 447 0 l 714 681 l 585 681 l 419 233 l 382 121 l 346 231 l 179 681 l 45 681 "},"w":{"ha":764,"x_min":25,"x_max":739,"o":"m 739 681 l 623 681 l 570 215 l 559 119 l 529 210 l 422 511 l 338 511 l 239 205 l 210 115 l 197 218 l 140 681 l 25 681 l 123 0 l 262 0 l 357 281 l 379 354 l 399 285 l 497 0 l 640 0 l 739 681 "},"x":{"ha":764,"x_min":47,"x_max":722,"o":"m 722 0 l 456 339 l 711 681 l 566 681 l 390 419 l 211 681 l 60 681 l 311 342 l 47 0 l 200 0 l 382 260 l 566 0 l 722 0 "},"y":{"ha":764,"x_min":40,"x_max":714,"o":"m 714 681 l 585 681 l 425 233 l 386 125 l 351 231 l 179 681 l 45 681 l 317 0 q 272 -82 295 -48 q 224 -137 249 -116 q 171 -168 199 -159 q 110 -178 142 -178 q 73 -176 90 -178 q 40 -172 55 -174 l 40 -279 q 71 -281 57 -281 q 103 -282 85 -282 q 224 -262 170 -282 q 324 -198 279 -241 q 408 -88 370 -155 q 482 72 446 -21 l 714 681 "},"z":{"ha":764,"x_min":111,"x_max":660,"o":"m 660 0 l 660 100 l 260 100 l 637 589 l 637 681 l 121 681 l 121 582 l 496 582 l 111 85 l 111 0 l 660 0 "},"à":{"ha":764,"x_min":0,"x_max":652,"o":"m 546 0 l 652 0 l 652 469 q 633 568 652 526 q 581 638 615 610 q 497 680 547 666 q 386 693 448 693 q 319 689 352 693 q 255 680 286 686 q 197 666 224 673 q 147 650 170 658 l 147 543 q 263 580 207 567 q 376 593 319 593 q 494 556 456 593 q 533 460 533 520 l 533 400 l 392 400 q 166 342 243 400 q 90 182 90 284 q 103 105 90 140 q 142 44 115 70 q 210 3 169 18 q 310 -12 252 -12 q 430 12 373 -12 q 543 92 488 37 l 546 0 m 533 310 l 533 189 q 422 111 475 136 q 329 86 370 86 q 276 94 298 86 q 241 116 254 102 q 221 148 227 130 q 215 186 215 166 q 225 237 215 214 q 255 276 235 260 q 307 301 275 292 q 383 310 339 310 l 533 310 m 453 794 l 289 958 l 118 958 l 335 794 l 453 794 m 0 681 "},"á":{"ha":764,"x_min":0,"x_max":652,"o":"m 546 0 l 652 0 l 652 469 q 633 568 652 526 q 581 638 615 610 q 497 680 547 666 q 386 693 448 693 q 319 689 352 693 q 255 680 286 686 q 197 666 224 673 q 147 650 170 658 l 147 543 q 263 580 207 567 q 376 593 319 593 q 494 556 456 593 q 533 460 533 520 l 533 400 l 392 400 q 166 342 243 400 q 90 182 90 284 q 103 105 90 140 q 142 44 115 70 q 210 3 169 18 q 310 -12 252 -12 q 430 12 373 -12 q 543 92 488 37 l 546 0 m 533 310 l 533 189 q 422 111 475 136 q 329 86 370 86 q 276 94 298 86 q 241 116 254 102 q 221 148 227 130 q 215 186 215 166 q 225 237 215 214 q 255 276 235 260 q 307 301 275 292 q 383 310 339 310 l 533 310 m 646 958 l 475 958 l 311 794 l 429 794 l 646 958 m 0 681 "},"â":{"ha":764,"x_min":0,"x_max":652,"o":"m 546 0 l 652 0 l 652 469 q 633 568 652 526 q 581 638 615 610 q 497 680 547 666 q 386 693 448 693 q 319 689 352 693 q 255 680 286 686 q 197 666 224 673 q 147 650 170 658 l 147 543 q 263 580 207 567 q 376 593 319 593 q 494 556 456 593 q 533 460 533 520 l 533 400 l 392 400 q 166 342 243 400 q 90 182 90 284 q 103 105 90 140 q 142 44 115 70 q 210 3 169 18 q 310 -12 252 -12 q 430 12 373 -12 q 543 92 488 37 l 546 0 m 533 310 l 533 189 q 422 111 475 136 q 329 86 370 86 q 276 94 298 86 q 241 116 254 102 q 221 148 227 130 q 215 186 215 166 q 225 237 215 214 q 255 276 235 260 q 307 301 275 292 q 383 310 339 310 l 533 310 m 431 958 l 334 958 l 168 794 l 285 794 l 380 876 l 476 794 l 596 794 l 431 958 m 0 681 "},"ã":{"ha":764,"x_min":0,"x_max":652,"o":"m 546 0 l 652 0 l 652 469 q 633 568 652 526 q 581 638 615 610 q 497 680 547 666 q 386 693 448 693 q 319 689 352 693 q 255 680 286 686 q 197 666 224 673 q 147 650 170 658 l 147 543 q 263 580 207 567 q 376 593 319 593 q 494 556 456 593 q 533 460 533 520 l 533 400 l 392 400 q 166 342 243 400 q 90 182 90 284 q 103 105 90 140 q 142 44 115 70 q 210 3 169 18 q 310 -12 252 -12 q 430 12 373 -12 q 543 92 488 37 l 546 0 m 533 310 l 533 189 q 422 111 475 136 q 329 86 370 86 q 276 94 298 86 q 241 116 254 102 q 221 148 227 130 q 215 186 215 166 q 225 237 215 214 q 255 276 235 260 q 307 301 275 292 q 383 310 339 310 l 533 310 m 136 860 l 195 802 q 234 849 214 831 q 282 868 254 868 q 324 857 305 868 q 363 831 342 845 q 411 806 385 817 q 478 795 438 795 q 562 820 525 795 q 628 893 598 844 l 570 951 q 530 904 551 922 q 482 885 509 885 q 440 897 459 885 q 401 922 422 908 q 353 947 380 935 q 286 958 326 958 q 202 933 239 958 q 136 860 165 909 m 0 681 "},"ä":{"ha":764,"x_min":0,"x_max":652,"o":"m 546 0 l 652 0 l 652 469 q 633 568 652 526 q 581 638 615 610 q 497 680 547 666 q 386 693 448 693 q 319 689 352 693 q 255 680 286 686 q 197 666 224 673 q 147 650 170 658 l 147 543 q 263 580 207 567 q 376 593 319 593 q 494 556 456 593 q 533 460 533 520 l 533 400 l 392 400 q 166 342 243 400 q 90 182 90 284 q 103 105 90 140 q 142 44 115 70 q 210 3 169 18 q 310 -12 252 -12 q 430 12 373 -12 q 543 92 488 37 l 546 0 m 533 310 l 533 189 q 422 111 475 136 q 329 86 370 86 q 276 94 298 86 q 241 116 254 102 q 221 148 227 130 q 215 186 215 166 q 225 237 215 214 q 255 276 235 260 q 307 301 275 292 q 383 310 339 310 l 533 310 m 236 953 q 207 947 220 953 q 182 930 193 941 q 166 906 172 920 q 160 876 160 892 q 166 847 160 861 q 182 823 172 833 q 207 806 193 812 q 236 800 220 800 q 266 806 252 800 q 290 823 279 812 q 307 847 300 833 q 313 876 313 861 q 307 906 313 892 q 290 930 300 920 q 266 947 279 941 q 236 953 252 953 m 528 953 q 498 947 512 953 q 474 930 484 941 q 458 906 464 920 q 452 876 452 892 q 458 847 452 861 q 474 823 464 833 q 498 806 484 812 q 528 800 512 800 q 557 806 543 800 q 582 823 571 812 q 598 847 592 833 q 604 876 604 861 q 598 906 604 892 q 582 930 592 920 q 557 947 571 941 q 528 953 543 953 m 0 681 "},"ā":{"ha":764,"x_min":0,"x_max":652,"o":"m 546 0 l 652 0 l 652 469 q 633 568 652 526 q 581 638 615 610 q 497 680 547 666 q 386 693 448 693 q 319 689 352 693 q 255 680 286 686 q 197 666 224 673 q 147 650 170 658 l 147 543 q 263 580 207 567 q 376 593 319 593 q 494 556 456 593 q 533 460 533 520 l 533 400 l 392 400 q 166 342 243 400 q 90 182 90 284 q 103 105 90 140 q 142 44 115 70 q 210 3 169 18 q 310 -12 252 -12 q 430 12 373 -12 q 543 92 488 37 l 546 0 m 533 310 l 533 189 q 422 111 475 136 q 329 86 370 86 q 276 94 298 86 q 241 116 254 102 q 221 148 227 130 q 215 186 215 166 q 225 237 215 214 q 255 276 235 260 q 307 301 275 292 q 383 310 339 310 l 533 310 m 559 831 l 559 921 l 204 921 l 204 831 l 559 831 m 0 681 "},"ă":{"ha":764,"x_min":0,"x_max":652,"o":"m 546 0 l 652 0 l 652 469 q 633 568 652 526 q 581 638 615 610 q 497 680 547 666 q 386 693 448 693 q 319 689 352 693 q 255 680 286 686 q 197 666 224 673 q 147 650 170 658 l 147 543 q 263 580 207 567 q 376 593 319 593 q 494 556 456 593 q 533 460 533 520 l 533 400 l 392 400 q 166 342 243 400 q 90 182 90 284 q 103 105 90 140 q 142 44 115 70 q 210 3 169 18 q 310 -12 252 -12 q 430 12 373 -12 q 543 92 488 37 l 546 0 m 533 310 l 533 189 q 422 111 475 136 q 329 86 370 86 q 276 94 298 86 q 241 116 254 102 q 221 148 227 130 q 215 186 215 166 q 225 237 215 214 q 255 276 235 260 q 307 301 275 292 q 383 310 339 310 l 533 310 m 550 958 l 458 958 q 439 903 458 924 q 382 882 420 882 q 325 903 344 882 q 306 958 306 924 l 214 958 q 227 886 214 917 q 263 835 241 855 q 317 804 286 814 q 382 794 347 794 q 447 804 416 794 q 500 835 477 814 q 536 886 523 855 q 550 958 550 917 m 0 681 "},"å":{"ha":764,"x_min":0,"x_max":652,"o":"m 546 0 l 652 0 l 652 469 q 633 568 652 526 q 581 638 615 610 q 497 680 547 666 q 386 693 448 693 q 319 689 352 693 q 255 680 286 686 q 197 666 224 673 q 147 650 170 658 l 147 543 q 263 580 207 567 q 376 593 319 593 q 494 556 456 593 q 533 460 533 520 l 533 400 l 392 400 q 166 342 243 400 q 90 182 90 284 q 103 105 90 140 q 142 44 115 70 q 210 3 169 18 q 310 -12 252 -12 q 430 12 373 -12 q 543 92 488 37 l 546 0 m 533 310 l 533 189 q 422 111 475 136 q 329 86 370 86 q 276 94 298 86 q 241 116 254 102 q 221 148 227 130 q 215 186 215 166 q 225 237 215 214 q 255 276 235 260 q 307 301 275 292 q 383 310 339 310 l 533 310 m 382 1018 q 325 1007 351 1018 q 279 977 298 996 q 248 932 259 958 q 236 878 236 907 q 248 823 236 848 q 279 779 259 798 q 325 749 298 760 q 382 738 351 738 q 439 749 412 738 q 485 779 465 760 q 516 823 505 798 q 528 878 528 848 q 516 932 528 907 q 485 977 505 958 q 439 1007 465 996 q 382 1018 412 1018 m 382 946 q 408 941 396 946 q 430 926 420 935 q 444 904 439 917 q 450 878 450 892 q 444 851 450 863 q 430 830 439 839 q 408 815 420 821 q 382 810 396 810 q 334 829 353 810 q 314 878 314 849 q 319 904 314 892 q 334 926 325 917 q 355 941 343 935 q 382 946 368 946 m 0 681 "},"ǻ":{"ha":764,"x_min":0,"x_max":652,"o":"m 546 0 l 652 0 l 652 469 q 633 568 652 526 q 581 638 615 610 q 497 680 547 666 q 386 693 448 693 q 319 689 352 693 q 255 680 286 686 q 197 666 224 673 q 147 650 170 658 l 147 543 q 263 580 207 567 q 376 593 319 593 q 494 556 456 593 q 533 460 533 520 l 533 400 l 392 400 q 166 342 243 400 q 90 182 90 284 q 103 105 90 140 q 142 44 115 70 q 210 3 169 18 q 310 -12 252 -12 q 430 12 373 -12 q 543 92 488 37 l 546 0 m 533 310 l 533 189 q 422 111 475 136 q 329 86 370 86 q 276 94 298 86 q 241 116 254 102 q 221 148 227 130 q 215 186 215 166 q 225 237 215 214 q 255 276 235 260 q 307 301 275 292 q 383 310 339 310 l 533 310 m 382 1018 q 325 1007 351 1018 q 279 977 298 996 q 248 932 259 958 q 236 878 236 907 q 248 823 236 848 q 279 779 259 798 q 325 749 298 760 q 382 738 351 738 q 439 749 412 738 q 485 779 465 760 q 516 823 505 798 q 528 878 528 848 q 516 932 528 907 q 485 977 505 958 q 439 1007 465 996 q 382 1018 412 1018 m 382 946 q 408 941 396 946 q 430 926 420 935 q 444 904 439 917 q 450 878 450 892 q 444 851 450 863 q 430 830 439 839 q 408 815 420 821 q 382 810 396 810 q 334 829 353 810 q 314 878 314 849 q 319 904 314 892 q 334 926 325 917 q 355 941 343 935 q 382 946 368 946 m 0 681 m 632 1193 l 461 1193 l 318 1048 l 439 1048 l 632 1193 m 7 954 "},"ą":{"ha":764,"x_min":90,"x_max":688,"o":"m 688 -254 l 688 -178 q 663 -180 676 -179 q 640 -180 650 -180 q 590 -166 604 -180 q 575 -131 575 -153 q 578 -105 575 -118 q 589 -77 581 -92 q 612 -43 597 -62 q 652 0 627 -24 l 652 469 q 633 568 652 526 q 581 638 615 610 q 497 680 547 666 q 386 693 448 693 q 319 689 352 693 q 255 680 286 686 q 197 666 224 673 q 147 650 170 658 l 147 543 q 263 580 207 567 q 376 593 319 593 q 494 556 456 593 q 533 460 533 520 l 533 400 l 392 400 q 166 342 243 400 q 90 182 90 284 q 103 105 90 140 q 142 44 115 70 q 210 3 169 18 q 310 -12 252 -12 q 430 12 373 -12 q 543 92 488 37 l 546 0 q 504 -47 519 -26 q 479 -85 488 -68 q 467 -119 470 -103 q 464 -150 464 -134 q 502 -230 464 -199 q 612 -261 539 -261 q 650 -259 629 -261 q 688 -254 671 -258 m 533 310 l 533 189 q 422 111 475 136 q 329 86 370 86 q 276 94 298 86 q 241 116 254 102 q 221 148 227 130 q 215 186 215 166 q 225 237 215 214 q 255 276 235 260 q 307 301 275 292 q 383 310 339 310 l 533 310 "},"æ":{"ha":764,"x_min":21,"x_max":737,"o":"m 231 693 q 184 689 208 693 q 138 680 161 686 q 95 666 116 673 q 58 650 75 658 l 58 547 q 143 584 100 571 q 225 597 186 597 q 306 560 282 597 q 329 454 329 523 l 329 397 l 248 397 q 145 383 188 397 q 75 341 102 368 q 34 273 47 313 q 21 182 21 233 q 63 37 21 87 q 187 -12 106 -12 q 283 19 239 -12 q 363 106 328 50 q 545 -12 413 -12 q 589 -10 566 -12 q 634 -4 612 -8 q 677 6 656 0 q 713 18 697 12 l 713 113 q 646 93 684 101 q 570 85 608 85 q 465 143 496 85 q 433 310 433 201 l 734 310 q 736 338 736 320 q 737 393 737 357 q 726 516 737 460 q 692 610 715 571 q 632 671 669 650 q 542 693 595 693 q 455 671 492 693 q 393 611 417 649 q 334 673 376 653 q 231 693 292 693 m 244 310 l 329 310 l 329 191 q 260 108 292 131 q 200 85 229 85 q 150 110 168 85 q 132 186 132 135 q 159 276 132 242 q 244 310 185 310 m 538 599 q 580 583 563 599 q 608 541 597 568 q 623 476 618 513 q 627 397 627 439 l 433 397 q 440 477 433 440 q 459 541 446 514 q 492 583 473 568 q 538 599 511 599 "},"ǽ":{"ha":764,"x_min":0,"x_max":737,"o":"m 231 693 q 184 689 208 693 q 138 680 161 686 q 95 666 116 673 q 58 650 75 658 l 58 547 q 143 584 100 571 q 225 597 186 597 q 306 560 282 597 q 329 454 329 523 l 329 397 l 248 397 q 145 383 188 397 q 75 341 102 368 q 34 273 47 313 q 21 182 21 233 q 63 37 21 87 q 187 -12 106 -12 q 283 19 239 -12 q 363 106 328 50 q 545 -12 413 -12 q 589 -10 566 -12 q 634 -4 612 -8 q 677 6 656 0 q 713 18 697 12 l 713 113 q 646 93 684 101 q 570 85 608 85 q 465 143 496 85 q 433 310 433 201 l 734 310 q 736 338 736 320 q 737 393 737 357 q 726 516 737 460 q 692 610 715 571 q 632 671 669 650 q 542 693 595 693 q 455 671 492 693 q 393 611 417 649 q 334 673 376 653 q 231 693 292 693 m 244 310 l 329 310 l 329 191 q 260 108 292 131 q 200 85 229 85 q 150 110 168 85 q 132 186 132 135 q 159 276 132 242 q 244 310 185 310 m 538 599 q 580 583 563 599 q 608 541 597 568 q 623 476 618 513 q 627 397 627 439 l 433 397 q 440 477 433 440 q 459 541 446 514 q 492 583 473 568 q 538 599 511 599 m 646 958 l 475 958 l 311 794 l 429 794 l 646 958 m 0 681 "},"ć":{"ha":764,"x_min":28,"x_max":673,"o":"m 637 25 l 637 135 q 550 102 595 113 q 457 92 505 92 q 291 153 351 92 q 231 338 231 214 q 248 444 231 397 q 296 523 266 490 q 367 573 327 555 q 453 590 408 590 q 548 579 502 590 q 637 546 593 569 l 637 659 q 549 683 595 675 q 450 690 503 690 q 311 665 374 690 q 203 593 248 640 q 132 480 157 546 q 107 334 107 414 q 194 78 107 165 q 443 -9 281 -9 q 543 -1 494 -9 q 637 25 591 7 m 673 958 l 503 958 l 339 794 l 457 794 l 673 958 m 28 681 "},"ĉ":{"ha":764,"x_min":28,"x_max":637,"o":"m 637 25 l 637 135 q 550 102 595 113 q 457 92 505 92 q 291 153 351 92 q 231 338 231 214 q 248 444 231 397 q 296 523 266 490 q 367 573 327 555 q 453 590 408 590 q 548 579 502 590 q 637 546 593 569 l 637 659 q 549 683 595 675 q 450 690 503 690 q 311 665 374 690 q 203 593 248 640 q 132 480 157 546 q 107 334 107 414 q 194 78 107 165 q 443 -9 281 -9 q 543 -1 494 -9 q 637 25 591 7 m 458 958 l 361 958 l 196 794 l 313 794 l 408 876 l 504 794 l 624 794 l 458 958 m 28 681 "},"č":{"ha":764,"x_min":41,"x_max":637,"o":"m 637 25 l 637 135 q 550 102 595 113 q 457 92 505 92 q 291 153 351 92 q 231 338 231 214 q 248 444 231 397 q 296 523 266 490 q 367 573 327 555 q 453 590 408 590 q 548 579 502 590 q 637 546 593 569 l 637 659 q 549 683 595 675 q 450 690 503 690 q 311 665 374 690 q 203 593 248 640 q 132 480 157 546 q 107 334 107 414 q 194 78 107 165 q 443 -9 281 -9 q 543 -1 494 -9 q 637 25 591 7 m 375 794 l 472 794 l 637 958 l 521 958 l 425 876 l 329 958 l 210 958 l 375 794 m 41 681 "},"ċ":{"ha":764,"x_min":28,"x_max":637,"o":"m 637 25 l 637 135 q 550 102 595 113 q 457 92 505 92 q 291 153 351 92 q 231 338 231 214 q 248 444 231 397 q 296 523 266 490 q 367 573 327 555 q 453 590 408 590 q 548 579 502 590 q 637 546 593 569 l 637 659 q 549 683 595 675 q 450 690 503 690 q 311 665 374 690 q 203 593 248 640 q 132 480 157 546 q 107 334 107 414 q 194 78 107 165 q 443 -9 281 -9 q 543 -1 494 -9 q 637 25 591 7 m 410 964 q 374 957 390 964 q 345 937 357 949 q 326 909 333 925 q 319 873 319 892 q 326 838 319 854 q 345 810 333 822 q 374 790 357 798 q 410 783 390 783 q 445 790 429 783 q 474 810 462 798 q 493 838 486 822 q 500 873 500 854 q 493 909 500 892 q 474 937 486 925 q 445 957 462 949 q 410 964 429 964 m 28 681 "},"ç":{"ha":764,"x_min":107,"x_max":637,"o":"m 459 -9 q 546 -1 500 -9 q 637 25 591 7 l 637 135 q 550 102 595 113 q 457 92 505 92 q 291 153 351 92 q 231 338 231 214 q 248 444 231 397 q 296 523 266 490 q 367 573 327 555 q 453 590 408 590 q 548 579 502 590 q 637 546 593 569 l 637 659 q 549 683 595 675 q 450 690 503 690 q 311 665 374 690 q 203 593 248 640 q 132 480 157 546 q 107 334 107 414 q 167 111 107 196 q 345 0 227 26 l 300 -200 l 404 -200 l 459 -9 "},"ď":{"ha":764,"x_min":-9,"x_max":828,"o":"m 41 326 q 56 188 41 250 q 100 81 71 125 q 174 12 130 37 q 277 -12 218 -12 q 401 22 344 -12 q 509 129 459 57 l 513 0 l 618 0 l 618 958 l 500 958 l 500 672 q 438 685 469 681 q 374 689 406 689 q 237 665 298 689 q 132 594 176 641 q 64 480 88 548 q 41 326 41 413 m 161 334 q 215 529 161 467 q 366 591 269 591 q 435 584 400 591 q 500 564 471 577 l 500 248 q 395 129 445 169 q 300 89 345 89 q 198 150 234 89 q 161 334 161 210 m 828 994 l 713 994 l 656 794 l 754 794 l 828 994 m -9 681 "},"ð":{"ha":764,"x_min":68,"x_max":682,"o":"m 486 578 q 543 451 525 510 q 561 334 561 392 q 549 233 561 279 q 515 156 538 188 q 457 105 492 123 q 375 87 422 87 q 301 103 335 87 q 242 150 267 119 q 203 226 217 180 q 189 330 189 271 q 200 429 189 382 q 235 511 211 475 q 298 568 259 547 q 395 589 338 589 q 436 586 414 589 q 486 578 458 584 m 418 685 q 401 687 410 686 q 387 688 392 688 q 251 659 310 688 q 151 579 191 629 q 89 464 110 530 q 68 323 68 397 q 87 186 68 248 q 145 80 107 124 q 238 12 182 36 q 366 -12 294 -12 q 478 4 430 -12 q 562 47 527 20 q 620 110 597 75 q 657 185 644 146 q 676 264 671 224 q 682 340 682 304 q 669 444 682 391 q 629 553 655 496 q 566 672 604 610 q 478 803 528 734 l 616 831 l 616 929 l 415 888 l 359 958 l 212 958 l 290 860 l 164 833 l 164 734 l 354 775 q 388 728 372 751 q 418 685 404 705 "},"đ":{"ha":764,"x_min":66,"x_max":764,"o":"m 323 869 l 323 771 l 519 771 l 519 672 q 395 689 460 689 q 259 665 319 689 q 155 594 198 641 q 90 480 113 548 q 66 326 66 413 q 81 188 66 250 q 123 81 95 125 q 195 12 152 37 q 297 -12 239 -12 q 421 22 364 -12 q 528 129 479 57 l 532 0 l 637 0 l 637 771 l 764 771 l 764 869 l 637 869 l 637 958 l 519 958 l 519 869 l 323 869 m 187 334 q 239 529 187 467 q 386 591 290 591 q 455 584 420 591 q 519 564 490 577 l 519 248 q 415 129 464 169 q 321 89 366 89 q 221 149 255 89 q 187 334 187 210 "},"è":{"ha":764,"x_min":0,"x_max":684,"o":"m 684 376 q 664 508 684 449 q 607 607 645 566 q 515 671 570 648 q 389 693 460 693 q 258 665 315 693 q 160 588 200 636 q 100 475 121 539 q 79 339 79 411 q 99 191 79 256 q 158 80 118 125 q 262 12 199 35 q 412 -12 325 -12 q 538 -4 477 -12 q 647 18 599 5 l 647 115 q 600 104 625 109 q 547 95 574 99 q 489 89 519 91 q 429 86 459 86 q 261 142 319 86 q 203 302 203 198 l 681 302 q 683 334 682 317 q 684 376 684 351 m 561 393 l 203 393 q 220 477 206 439 q 258 542 235 515 q 313 584 281 569 q 383 599 345 599 q 462 584 428 599 q 518 541 496 568 q 552 476 541 514 q 561 393 563 439 m 453 794 l 289 958 l 118 958 l 335 794 l 453 794 m 0 681 "},"é":{"ha":764,"x_min":0,"x_max":684,"o":"m 684 376 q 664 508 684 449 q 607 607 645 566 q 515 671 570 648 q 389 693 460 693 q 258 665 315 693 q 160 588 200 636 q 100 475 121 539 q 79 339 79 411 q 99 191 79 256 q 158 80 118 125 q 262 12 199 35 q 412 -12 325 -12 q 538 -4 477 -12 q 647 18 599 5 l 647 115 q 600 104 625 109 q 547 95 574 99 q 489 89 519 91 q 429 86 459 86 q 261 142 319 86 q 203 302 203 198 l 681 302 q 683 334 682 317 q 684 376 684 351 m 561 393 l 203 393 q 220 477 206 439 q 258 542 235 515 q 313 584 281 569 q 383 599 345 599 q 462 584 428 599 q 518 541 496 568 q 552 476 541 514 q 561 393 563 439 m 646 958 l 475 958 l 311 794 l 429 794 l 646 958 m 0 681 "},"ê":{"ha":764,"x_min":0,"x_max":684,"o":"m 684 376 q 664 508 684 449 q 607 607 645 566 q 515 671 570 648 q 389 693 460 693 q 258 665 315 693 q 160 588 200 636 q 100 475 121 539 q 79 339 79 411 q 99 191 79 256 q 158 80 118 125 q 262 12 199 35 q 412 -12 325 -12 q 538 -4 477 -12 q 647 18 599 5 l 647 115 q 600 104 625 109 q 547 95 574 99 q 489 89 519 91 q 429 86 459 86 q 261 142 319 86 q 203 302 203 198 l 681 302 q 683 334 682 317 q 684 376 684 351 m 561 393 l 203 393 q 220 477 206 439 q 258 542 235 515 q 313 584 281 569 q 383 599 345 599 q 462 584 428 599 q 518 541 496 568 q 552 476 541 514 q 561 393 563 439 m 431 958 l 334 958 l 168 794 l 285 794 l 380 876 l 476 794 l 596 794 l 431 958 m 0 681 "},"ě":{"ha":764,"x_min":0,"x_max":684,"o":"m 684 376 q 664 508 684 449 q 607 607 645 566 q 515 671 570 648 q 389 693 460 693 q 258 665 315 693 q 160 588 200 636 q 100 475 121 539 q 79 339 79 411 q 99 191 79 256 q 158 80 118 125 q 262 12 199 35 q 412 -12 325 -12 q 538 -4 477 -12 q 647 18 599 5 l 647 115 q 600 104 625 109 q 547 95 574 99 q 489 89 519 91 q 429 86 459 86 q 261 142 319 86 q 203 302 203 198 l 681 302 q 683 334 682 317 q 684 376 684 351 m 561 393 l 203 393 q 220 477 206 439 q 258 542 235 515 q 313 584 281 569 q 383 599 345 599 q 462 584 428 599 q 518 541 496 568 q 552 476 541 514 q 561 393 563 439 m 334 794 l 431 794 l 596 958 l 479 958 l 383 876 l 288 958 l 168 958 l 334 794 m 0 681 "},"ë":{"ha":764,"x_min":0,"x_max":684,"o":"m 684 376 q 664 508 684 449 q 607 607 645 566 q 515 671 570 648 q 389 693 460 693 q 258 665 315 693 q 160 588 200 636 q 100 475 121 539 q 79 339 79 411 q 99 191 79 256 q 158 80 118 125 q 262 12 199 35 q 412 -12 325 -12 q 538 -4 477 -12 q 647 18 599 5 l 647 115 q 600 104 625 109 q 547 95 574 99 q 489 89 519 91 q 429 86 459 86 q 261 142 319 86 q 203 302 203 198 l 681 302 q 683 334 682 317 q 684 376 684 351 m 561 393 l 203 393 q 220 477 206 439 q 258 542 235 515 q 313 584 281 569 q 383 599 345 599 q 462 584 428 599 q 518 541 496 568 q 552 476 541 514 q 561 393 563 439 m 236 953 q 207 947 220 953 q 182 930 193 941 q 166 906 172 920 q 160 876 160 892 q 166 847 160 861 q 182 823 172 833 q 207 806 193 812 q 236 800 220 800 q 266 806 252 800 q 290 823 279 812 q 307 847 300 833 q 313 876 313 861 q 307 906 313 892 q 290 930 300 920 q 266 947 279 941 q 236 953 252 953 m 528 953 q 498 947 512 953 q 474 930 484 941 q 458 906 464 920 q 452 876 452 892 q 458 847 452 861 q 474 823 464 833 q 498 806 484 812 q 528 800 512 800 q 557 806 543 800 q 582 823 571 812 q 598 847 592 833 q 604 876 604 861 q 598 906 604 892 q 582 930 592 920 q 557 947 571 941 q 528 953 543 953 m 0 681 "},"ē":{"ha":764,"x_min":0,"x_max":684,"o":"m 684 376 q 664 508 684 449 q 607 607 645 566 q 515 671 570 648 q 389 693 460 693 q 258 665 315 693 q 160 588 200 636 q 100 475 121 539 q 79 339 79 411 q 99 191 79 256 q 158 80 118 125 q 262 12 199 35 q 412 -12 325 -12 q 538 -4 477 -12 q 647 18 599 5 l 647 115 q 600 104 625 109 q 547 95 574 99 q 489 89 519 91 q 429 86 459 86 q 261 142 319 86 q 203 302 203 198 l 681 302 q 683 334 682 317 q 684 376 684 351 m 561 393 l 203 393 q 220 477 206 439 q 258 542 235 515 q 313 584 281 569 q 383 599 345 599 q 462 584 428 599 q 518 541 496 568 q 552 476 541 514 q 561 393 563 439 m 559 831 l 559 921 l 204 921 l 204 831 l 559 831 m 0 681 "},"ĕ":{"ha":764,"x_min":0,"x_max":684,"o":"m 684 376 q 664 508 684 449 q 607 607 645 566 q 515 671 570 648 q 389 693 460 693 q 258 665 315 693 q 160 588 200 636 q 100 475 121 539 q 79 339 79 411 q 99 191 79 256 q 158 80 118 125 q 262 12 199 35 q 412 -12 325 -12 q 538 -4 477 -12 q 647 18 599 5 l 647 115 q 600 104 625 109 q 547 95 574 99 q 489 89 519 91 q 429 86 459 86 q 261 142 319 86 q 203 302 203 198 l 681 302 q 683 334 682 317 q 684 376 684 351 m 561 393 l 203 393 q 220 477 206 439 q 258 542 235 515 q 313 584 281 569 q 383 599 345 599 q 462 584 428 599 q 518 541 496 568 q 552 476 541 514 q 561 393 563 439 m 550 958 l 458 958 q 439 903 458 924 q 382 882 420 882 q 325 903 344 882 q 306 958 306 924 l 214 958 q 227 886 214 917 q 263 835 241 855 q 317 804 286 814 q 382 794 347 794 q 447 804 416 794 q 500 835 477 814 q 536 886 523 855 q 550 958 550 917 m 0 681 "},"ė":{"ha":764,"x_min":0,"x_max":684,"o":"m 684 376 q 664 508 684 449 q 607 607 645 566 q 515 671 570 648 q 389 693 460 693 q 258 665 315 693 q 160 588 200 636 q 100 475 121 539 q 79 339 79 411 q 99 191 79 256 q 158 80 118 125 q 262 12 199 35 q 412 -12 325 -12 q 538 -4 477 -12 q 647 18 599 5 l 647 115 q 600 104 625 109 q 547 95 574 99 q 489 89 519 91 q 429 86 459 86 q 261 142 319 86 q 203 302 203 198 l 681 302 q 683 334 682 317 q 684 376 684 351 m 561 393 l 203 393 q 220 477 206 439 q 258 542 235 515 q 313 584 281 569 q 383 599 345 599 q 462 584 428 599 q 518 541 496 568 q 552 476 541 514 q 561 393 563 439 m 382 964 q 346 957 362 964 q 317 937 330 949 q 298 909 305 925 q 292 873 292 892 q 298 838 292 854 q 317 810 305 822 q 346 790 330 798 q 382 783 362 783 q 417 790 401 783 q 446 810 434 798 q 465 838 458 822 q 472 873 472 854 q 465 909 472 892 q 446 937 458 925 q 417 957 434 949 q 382 964 401 964 m 0 681 "},"ę":{"ha":764,"x_min":79,"x_max":684,"o":"m 599 -254 l 599 -178 q 574 -180 587 -179 q 551 -180 561 -180 q 501 -166 515 -180 q 486 -131 486 -153 q 489 -105 486 -118 q 500 -77 492 -92 q 523 -43 509 -62 q 562 0 538 -24 q 647 18 608 7 l 647 115 q 600 104 625 109 q 547 95 574 99 q 489 89 519 91 q 429 86 459 86 q 261 142 319 86 q 203 302 203 198 l 681 302 q 683 334 682 317 q 684 376 684 351 q 664 508 684 449 q 607 607 645 566 q 515 671 570 648 q 389 693 460 693 q 258 665 315 693 q 160 588 200 636 q 100 475 121 539 q 79 339 79 411 q 99 191 79 256 q 158 80 118 125 q 262 12 199 35 q 412 -12 325 -12 q 429 -12 420 -12 q 446 -12 437 -12 q 409 -54 423 -35 q 388 -89 395 -73 q 378 -120 380 -106 q 375 -150 375 -135 q 413 -230 375 -199 q 524 -261 450 -261 q 561 -259 541 -261 q 599 -254 582 -258 m 561 393 l 203 393 q 220 477 206 439 q 258 542 235 515 q 313 584 281 569 q 383 599 345 599 q 462 584 428 599 q 518 541 496 568 q 552 476 541 514 q 561 393 563 439 "},"ﬁ":{"ha":764,"x_min":0,"x_max":653,"o":"m 653 0 l 653 612 l 271 612 l 271 701 q 318 827 271 785 q 457 868 366 868 q 544 861 498 868 q 631 843 590 854 l 631 945 q 543 961 588 955 q 461 966 497 966 q 230 899 308 966 q 153 694 153 831 l 153 612 l 32 612 l 32 514 l 153 514 l 153 0 l 271 0 l 271 514 l 534 514 l 534 0 l 653 0 m 0 681 "},"ﬂ":{"ha":764,"x_min":0,"x_max":653,"o":"m 534 864 l 534 0 l 653 0 l 653 945 q 550 961 600 956 q 457 965 501 965 q 230 897 307 965 q 153 693 153 829 l 153 612 l 32 612 l 32 514 l 153 514 l 153 0 l 271 0 l 271 514 l 415 514 l 415 612 l 271 612 l 271 700 q 315 827 271 784 q 453 869 360 869 q 494 868 475 869 q 534 864 514 867 m 0 681 "},"ĝ":{"ha":764,"x_min":0,"x_max":708,"o":"m 599 585 l 708 585 l 708 681 l 461 681 q 420 690 444 686 q 372 693 397 693 q 263 676 313 693 q 179 627 214 659 q 125 552 144 596 q 106 456 106 509 q 110 410 106 430 q 120 373 113 390 q 137 340 127 355 q 160 310 147 326 q 111 241 132 277 q 90 160 90 204 q 94 128 90 144 q 106 97 98 112 q 127 71 115 83 q 158 50 140 58 q 87 -22 110 16 q 64 -109 64 -59 q 81 -179 64 -147 q 135 -235 98 -212 q 230 -272 172 -258 q 371 -285 288 -285 q 521 -267 458 -285 q 625 -217 584 -248 q 686 -146 666 -186 q 705 -60 705 -105 q 688 14 705 -18 q 640 68 671 46 q 566 101 609 90 q 472 114 523 113 l 293 121 q 228 139 252 122 q 203 182 203 156 q 212 220 203 203 q 233 256 220 237 q 292 233 255 242 q 372 224 330 224 q 480 241 431 224 q 565 290 530 258 q 620 365 600 321 q 639 461 639 408 q 628 529 639 498 q 599 585 618 561 m 189 -98 q 193 -69 189 -83 q 204 -40 196 -54 q 227 -11 212 -25 q 264 18 241 3 l 441 12 q 545 -11 511 9 q 579 -72 579 -31 q 569 -116 579 -94 q 535 -154 559 -137 q 474 -180 512 -170 q 379 -191 435 -191 q 239 -169 290 -191 q 189 -98 189 -146 m 225 458 q 235 513 225 487 q 263 560 245 540 q 310 592 282 580 q 372 604 337 604 q 432 594 405 604 q 478 564 458 583 q 509 518 498 545 q 519 458 519 491 q 510 404 519 430 q 481 357 500 377 q 435 325 463 336 q 372 313 408 313 q 313 323 340 313 q 267 353 286 334 q 236 399 247 372 q 225 458 225 426 m 431 958 l 334 958 l 168 794 l 285 794 l 380 876 l 476 794 l 596 794 l 431 958 m 0 681 "},"ğ":{"ha":764,"x_min":0,"x_max":708,"o":"m 599 585 l 708 585 l 708 681 l 461 681 q 420 690 444 686 q 372 693 397 693 q 263 676 313 693 q 179 627 214 659 q 125 552 144 596 q 106 456 106 509 q 110 410 106 430 q 120 373 113 390 q 137 340 127 355 q 160 310 147 326 q 111 241 132 277 q 90 160 90 204 q 94 128 90 144 q 106 97 98 112 q 127 71 115 83 q 158 50 140 58 q 87 -22 110 16 q 64 -109 64 -59 q 81 -179 64 -147 q 135 -235 98 -212 q 230 -272 172 -258 q 371 -285 288 -285 q 521 -267 458 -285 q 625 -217 584 -248 q 686 -146 666 -186 q 705 -60 705 -105 q 688 14 705 -18 q 640 68 671 46 q 566 101 609 90 q 472 114 523 113 l 293 121 q 228 139 252 122 q 203 182 203 156 q 212 220 203 203 q 233 256 220 237 q 292 233 255 242 q 372 224 330 224 q 480 241 431 224 q 565 290 530 258 q 620 365 600 321 q 639 461 639 408 q 628 529 639 498 q 599 585 618 561 m 189 -98 q 193 -69 189 -83 q 204 -40 196 -54 q 227 -11 212 -25 q 264 18 241 3 l 441 12 q 545 -11 511 9 q 579 -72 579 -31 q 569 -116 579 -94 q 535 -154 559 -137 q 474 -180 512 -170 q 379 -191 435 -191 q 239 -169 290 -191 q 189 -98 189 -146 m 225 458 q 235 513 225 487 q 263 560 245 540 q 310 592 282 580 q 372 604 337 604 q 432 594 405 604 q 478 564 458 583 q 509 518 498 545 q 519 458 519 491 q 510 404 519 430 q 481 357 500 377 q 435 325 463 336 q 372 313 408 313 q 313 323 340 313 q 267 353 286 334 q 236 399 247 372 q 225 458 225 426 m 550 958 l 458 958 q 439 903 458 924 q 382 882 420 882 q 325 903 344 882 q 306 958 306 924 l 214 958 q 227 886 214 917 q 263 835 241 855 q 317 804 286 814 q 382 794 347 794 q 447 804 416 794 q 500 835 477 814 q 536 886 523 855 q 550 958 550 917 m 0 681 "},"ġ":{"ha":764,"x_min":0,"x_max":708,"o":"m 599 585 l 708 585 l 708 681 l 461 681 q 420 690 444 686 q 372 693 397 693 q 263 676 313 693 q 179 627 214 659 q 125 552 144 596 q 106 456 106 509 q 110 410 106 430 q 120 373 113 390 q 137 340 127 355 q 160 310 147 326 q 111 241 132 277 q 90 160 90 204 q 94 128 90 144 q 106 97 98 112 q 127 71 115 83 q 158 50 140 58 q 87 -22 110 16 q 64 -109 64 -59 q 81 -179 64 -147 q 135 -235 98 -212 q 230 -272 172 -258 q 371 -285 288 -285 q 521 -267 458 -285 q 625 -217 584 -248 q 686 -146 666 -186 q 705 -60 705 -105 q 688 14 705 -18 q 640 68 671 46 q 566 101 609 90 q 472 114 523 113 l 293 121 q 228 139 252 122 q 203 182 203 156 q 212 220 203 203 q 233 256 220 237 q 292 233 255 242 q 372 224 330 224 q 480 241 431 224 q 565 290 530 258 q 620 365 600 321 q 639 461 639 408 q 628 529 639 498 q 599 585 618 561 m 189 -98 q 193 -69 189 -83 q 204 -40 196 -54 q 227 -11 212 -25 q 264 18 241 3 l 441 12 q 545 -11 511 9 q 579 -72 579 -31 q 569 -116 579 -94 q 535 -154 559 -137 q 474 -180 512 -170 q 379 -191 435 -191 q 239 -169 290 -191 q 189 -98 189 -146 m 225 458 q 235 513 225 487 q 263 560 245 540 q 310 592 282 580 q 372 604 337 604 q 432 594 405 604 q 478 564 458 583 q 509 518 498 545 q 519 458 519 491 q 510 404 519 430 q 481 357 500 377 q 435 325 463 336 q 372 313 408 313 q 313 323 340 313 q 267 353 286 334 q 236 399 247 372 q 225 458 225 426 m 382 964 q 346 957 362 964 q 317 937 330 949 q 298 909 305 925 q 292 873 292 892 q 298 838 292 854 q 317 810 305 822 q 346 790 330 798 q 382 783 362 783 q 417 790 401 783 q 446 810 434 798 q 465 838 458 822 q 472 873 472 854 q 465 909 472 892 q 446 937 458 925 q 417 957 434 949 q 382 964 401 964 m 0 681 "},"ģ":{"ha":764,"x_min":0,"x_max":708,"o":"m 599 585 l 708 585 l 708 681 l 461 681 q 420 690 444 686 q 372 693 397 693 q 263 676 313 693 q 179 627 214 659 q 125 552 144 596 q 106 456 106 509 q 110 410 106 430 q 120 373 113 390 q 137 340 127 355 q 160 310 147 326 q 111 241 132 277 q 90 160 90 204 q 94 128 90 144 q 106 97 98 112 q 127 71 115 83 q 158 50 140 58 q 87 -22 110 16 q 64 -109 64 -59 q 81 -179 64 -147 q 135 -235 98 -212 q 230 -272 172 -258 q 371 -285 288 -285 q 521 -267 458 -285 q 625 -217 584 -248 q 686 -146 666 -186 q 705 -60 705 -105 q 688 14 705 -18 q 640 68 671 46 q 566 101 609 90 q 472 114 523 113 l 293 121 q 228 139 252 122 q 203 182 203 156 q 212 220 203 203 q 233 256 220 237 q 292 233 255 242 q 372 224 330 224 q 480 241 431 224 q 565 290 530 258 q 620 365 600 321 q 639 461 639 408 q 628 529 639 498 q 599 585 618 561 m 189 -98 q 193 -69 189 -83 q 204 -40 196 -54 q 227 -11 212 -25 q 264 18 241 3 l 441 12 q 545 -11 511 9 q 579 -72 579 -31 q 569 -116 579 -94 q 535 -154 559 -137 q 474 -180 512 -170 q 379 -191 435 -191 q 239 -169 290 -191 q 189 -98 189 -146 m 225 458 q 235 513 225 487 q 263 560 245 540 q 310 592 282 580 q 372 604 337 604 q 432 594 405 604 q 478 564 458 583 q 509 518 498 545 q 519 458 519 491 q 510 404 519 430 q 481 357 500 377 q 435 325 463 336 q 372 313 408 313 q 313 323 340 313 q 267 353 286 334 q 236 399 247 372 q 225 458 225 426 m 315 794 l 431 794 l 488 994 l 389 994 l 315 794 m 0 681 "},"ĥ":{"ha":764,"x_min":0,"x_max":656,"o":"m 656 0 l 656 444 q 600 631 656 569 q 443 693 545 693 q 385 687 413 693 q 331 667 357 681 q 277 630 304 652 q 222 574 250 607 l 227 681 l 227 958 l 109 958 l 109 0 l 227 0 l 227 452 q 288 519 261 492 q 336 563 314 547 q 379 585 359 578 q 424 591 400 591 q 508 552 479 591 q 538 435 538 513 l 538 0 l 656 0 m 596 1015 l 439 1160 l 325 1160 l 168 1015 l 289 1015 l 380 1084 l 472 1015 l 596 1015 m 0 921 "},"ħ":{"ha":764,"x_min":0,"x_max":656,"o":"m 227 653 l 227 772 l 440 772 l 440 868 l 227 868 l 227 958 l 109 958 l 109 868 l 0 868 l 0 772 l 109 772 l 109 0 l 227 0 l 227 418 q 288 486 261 459 q 336 529 314 513 q 379 552 359 545 q 424 558 400 558 q 508 519 479 558 q 538 401 538 479 l 538 0 l 656 0 l 656 411 q 600 598 656 536 q 443 660 545 660 q 385 654 413 660 q 331 633 357 648 q 277 596 304 619 q 222 541 250 574 l 227 653 m 0 681 "},"ì":{"ha":764,"x_min":0,"x_max":663,"o":"m 340 583 l 340 98 l 117 98 l 117 0 l 663 0 l 663 98 l 460 98 l 460 681 l 139 681 l 139 583 l 340 583 m 453 794 l 289 958 l 118 958 l 335 794 l 453 794 m 0 681 "},"í":{"ha":764,"x_min":0,"x_max":663,"o":"m 340 583 l 340 98 l 117 98 l 117 0 l 663 0 l 663 98 l 460 98 l 460 681 l 139 681 l 139 583 l 340 583 m 646 958 l 475 958 l 311 794 l 429 794 l 646 958 m 0 681 "},"î":{"ha":764,"x_min":0,"x_max":663,"o":"m 340 583 l 340 98 l 117 98 l 117 0 l 663 0 l 663 98 l 460 98 l 460 681 l 139 681 l 139 583 l 340 583 m 431 958 l 334 958 l 168 794 l 285 794 l 380 876 l 476 794 l 596 794 l 431 958 m 0 681 "},"ĩ":{"ha":764,"x_min":0,"x_max":663,"o":"m 340 583 l 340 98 l 117 98 l 117 0 l 663 0 l 663 98 l 460 98 l 460 681 l 139 681 l 139 583 l 340 583 m 136 860 l 195 802 q 234 849 214 831 q 282 868 254 868 q 324 857 305 868 q 363 831 342 845 q 411 806 385 817 q 478 795 438 795 q 562 820 525 795 q 628 893 598 844 l 570 951 q 530 904 551 922 q 482 885 509 885 q 440 897 459 885 q 401 922 422 908 q 353 947 380 935 q 286 958 326 958 q 202 933 239 958 q 136 860 165 909 m 0 681 "},"ï":{"ha":764,"x_min":0,"x_max":663,"o":"m 340 583 l 340 98 l 117 98 l 117 0 l 663 0 l 663 98 l 460 98 l 460 681 l 139 681 l 139 583 l 340 583 m 236 953 q 207 947 220 953 q 182 930 193 941 q 166 906 172 920 q 160 876 160 892 q 166 847 160 861 q 182 823 172 833 q 207 806 193 812 q 236 800 220 800 q 266 806 252 800 q 290 823 279 812 q 307 847 300 833 q 313 876 313 861 q 307 906 313 892 q 290 930 300 920 q 266 947 279 941 q 236 953 252 953 m 528 953 q 498 947 512 953 q 474 930 484 941 q 458 906 464 920 q 452 876 452 892 q 458 847 452 861 q 474 823 464 833 q 498 806 484 812 q 528 800 512 800 q 557 806 543 800 q 582 823 571 812 q 598 847 592 833 q 604 876 604 861 q 598 906 604 892 q 582 930 592 920 q 557 947 571 941 q 528 953 543 953 m 0 681 "},"ī":{"ha":764,"x_min":0,"x_max":663,"o":"m 340 583 l 340 98 l 117 98 l 117 0 l 663 0 l 663 98 l 460 98 l 460 681 l 139 681 l 139 583 l 340 583 m 559 831 l 559 921 l 204 921 l 204 831 l 559 831 m 0 681 "},"ĭ":{"ha":764,"x_min":0,"x_max":663,"o":"m 340 583 l 340 98 l 117 98 l 117 0 l 663 0 l 663 98 l 460 98 l 460 681 l 139 681 l 139 583 l 340 583 m 550 958 l 458 958 q 439 903 458 924 q 382 882 420 882 q 325 903 344 882 q 306 958 306 924 l 214 958 q 227 886 214 917 q 263 835 241 855 q 317 804 286 814 q 382 794 347 794 q 447 804 416 794 q 500 835 477 814 q 536 886 523 855 q 550 958 550 917 m 0 681 "},"į":{"ha":764,"x_min":117,"x_max":699,"o":"m 699 -254 l 699 -178 q 674 -180 687 -179 q 651 -180 661 -180 q 601 -166 615 -180 q 586 -131 586 -153 q 589 -105 586 -118 q 600 -77 592 -92 q 623 -43 608 -62 q 663 0 638 -24 l 663 98 l 460 98 l 460 681 l 139 681 l 139 583 l 340 583 l 340 98 l 117 98 l 117 0 l 557 0 q 514 -47 530 -26 q 490 -85 498 -68 q 478 -119 481 -103 q 475 -150 475 -134 q 512 -230 475 -199 q 623 -261 550 -261 q 661 -259 640 -261 q 699 -254 682 -258 m 382 966 q 345 959 362 966 q 316 939 328 952 q 296 910 303 926 q 289 873 289 893 q 296 838 289 854 q 316 808 303 821 q 345 788 328 795 q 382 781 362 781 q 418 788 401 781 q 448 808 435 795 q 468 838 460 821 q 475 873 475 854 q 468 910 475 893 q 448 939 460 926 q 418 959 435 952 q 382 966 401 966 "},"ı":{"ha":764,"x_min":117,"x_max":663,"o":"m 340 583 l 340 98 l 117 98 l 117 0 l 663 0 l 663 98 l 460 98 l 460 681 l 139 681 l 139 583 l 340 583 "},"ĳ":{"ha":764,"x_min":72,"x_max":692,"o":"m 232 -154 l 232 -258 q 297 -277 258 -269 q 382 -285 336 -285 q 496 -265 446 -285 q 582 -208 547 -245 q 637 -114 618 -170 q 656 12 656 -59 l 656 681 l 538 681 l 538 8 q 498 -135 538 -87 q 386 -183 458 -183 q 348 -181 368 -183 q 306 -175 327 -179 q 266 -166 286 -172 q 232 -154 247 -161 m 227 681 l 109 681 l 109 0 l 227 0 l 227 681 m 72 869 q 79 832 72 850 q 99 802 86 814 q 129 781 112 789 q 167 774 146 774 q 205 781 188 774 q 235 802 222 789 q 255 832 248 814 q 262 869 262 850 q 255 907 262 889 q 235 937 248 924 q 205 958 222 950 q 167 965 188 965 q 129 958 146 965 q 99 937 112 950 q 79 907 86 924 q 72 869 72 889 m 501 869 q 508 832 501 850 q 528 802 515 814 q 558 781 541 789 q 596 774 576 774 q 634 781 617 774 q 665 802 652 789 q 685 832 677 814 q 692 869 692 850 q 685 907 692 889 q 665 937 677 924 q 634 958 652 950 q 596 965 617 965 q 558 958 576 965 q 528 937 541 950 q 508 907 515 924 q 501 869 501 889 "},"ĵ":{"ha":764,"x_min":0,"x_max":596,"o":"m 570 681 l 117 681 l 117 583 l 450 583 l 450 8 q 406 -136 450 -87 q 285 -184 362 -184 q 235 -181 260 -184 q 183 -172 209 -178 q 134 -157 158 -166 q 89 -138 110 -149 l 89 -250 q 175 -276 127 -267 q 273 -285 223 -285 q 398 -265 342 -285 q 491 -208 453 -245 q 549 -114 529 -170 q 570 12 570 -59 l 570 681 m 431 958 l 334 958 l 168 794 l 285 794 l 380 876 l 476 794 l 596 794 l 431 958 m 0 681 "},"ķ":{"ha":764,"x_min":123,"x_max":721,"o":"m 721 0 l 384 367 l 703 681 l 547 681 l 241 370 l 241 958 l 123 958 l 123 0 l 241 0 l 241 365 l 559 0 l 721 0 m 453 -78 l 338 -78 l 293 -278 l 393 -278 l 453 -78 "},"ĸ":{"ha":764,"x_min":123,"x_max":721,"o":"m 721 0 l 384 367 l 703 681 l 547 681 l 241 370 l 241 681 l 123 681 l 123 0 l 241 0 l 241 365 l 559 0 l 721 0 "},"ĺ":{"ha":764,"x_min":28,"x_max":663,"o":"m 340 861 l 340 98 l 117 98 l 117 0 l 663 0 l 663 98 l 460 98 l 460 958 l 139 958 l 139 861 l 340 861 m 653 1166 l 482 1166 l 339 1022 l 460 1022 l 653 1166 m 28 928 "},"ľ":{"ha":764,"x_min":-96,"x_max":742,"o":"m 340 861 l 340 98 l 117 98 l 117 0 l 663 0 l 663 98 l 460 98 l 460 958 l 139 958 l 139 861 l 340 861 m 742 994 l 627 994 l 570 794 l 668 794 l 742 994 m -96 681 "},"ļ":{"ha":764,"x_min":117,"x_max":663,"o":"m 340 861 l 340 98 l 117 98 l 117 0 l 663 0 l 663 98 l 460 98 l 460 958 l 139 958 l 139 861 l 340 861 m 453 -78 l 338 -78 l 293 -278 l 393 -278 l 453 -78 "},"ł":{"ha":764,"x_min":117,"x_max":663,"o":"m 340 449 l 340 96 l 117 96 l 117 0 l 663 0 l 663 96 l 460 96 l 460 509 l 654 607 l 654 714 l 460 615 l 460 958 l 139 958 l 139 863 l 340 863 l 340 555 l 146 457 l 146 350 l 340 449 "},"ŀ":{"ha":764,"x_min":76,"x_max":860,"o":"m 300 861 l 300 98 l 76 98 l 76 0 l 622 0 l 622 98 l 419 98 l 419 958 l 98 958 l 98 861 l 300 861 m 747 525 q 703 516 724 525 q 668 491 683 507 q 644 455 652 476 q 635 411 635 434 q 644 368 635 388 q 668 332 652 347 q 703 308 683 317 q 747 298 724 298 q 791 308 770 298 q 827 332 812 317 q 851 368 842 347 q 860 411 860 388 q 851 455 860 434 q 827 491 842 476 q 791 516 812 507 q 747 525 770 525 "},"ń":{"ha":764,"x_min":0,"x_max":656,"o":"m 109 681 l 109 0 l 227 0 l 227 452 q 285 519 259 492 q 334 563 311 547 q 377 585 356 578 q 419 591 397 591 q 508 553 478 591 q 538 435 538 515 l 538 0 l 656 0 l 656 444 q 602 631 656 569 q 443 693 548 693 q 385 687 413 693 q 331 667 357 682 q 276 630 304 653 q 218 571 248 606 l 214 681 l 109 681 m 646 958 l 475 958 l 311 794 l 429 794 l 646 958 m 0 681 "},"ň":{"ha":764,"x_min":0,"x_max":656,"o":"m 109 681 l 109 0 l 227 0 l 227 452 q 285 519 259 492 q 334 563 311 547 q 377 585 356 578 q 419 591 397 591 q 508 553 478 591 q 538 435 538 515 l 538 0 l 656 0 l 656 444 q 602 631 656 569 q 443 693 548 693 q 385 687 413 693 q 331 667 357 682 q 276 630 304 653 q 218 571 248 606 l 214 681 l 109 681 m 334 794 l 431 794 l 596 958 l 479 958 l 383 876 l 288 958 l 168 958 l 334 794 m 0 681 "},"ñ":{"ha":764,"x_min":0,"x_max":656,"o":"m 109 681 l 109 0 l 227 0 l 227 452 q 285 519 259 492 q 334 563 311 547 q 377 585 356 578 q 419 591 397 591 q 508 553 478 591 q 538 435 538 515 l 538 0 l 656 0 l 656 444 q 602 631 656 569 q 443 693 548 693 q 385 687 413 693 q 331 667 357 682 q 276 630 304 653 q 218 571 248 606 l 214 681 l 109 681 m 136 860 l 195 802 q 234 849 214 831 q 282 868 254 868 q 324 857 305 868 q 363 831 342 845 q 411 806 385 817 q 478 795 438 795 q 562 820 525 795 q 628 893 598 844 l 570 951 q 530 904 551 922 q 482 885 509 885 q 440 897 459 885 q 401 922 422 908 q 353 947 380 935 q 286 958 326 958 q 202 933 239 958 q 136 860 165 909 m 0 681 "},"ņ":{"ha":764,"x_min":109,"x_max":656,"o":"m 109 681 l 109 0 l 227 0 l 227 452 q 285 519 259 492 q 334 563 311 547 q 377 585 356 578 q 419 591 397 591 q 508 553 478 591 q 538 435 538 515 l 538 0 l 656 0 l 656 444 q 602 631 656 569 q 443 693 548 693 q 385 687 413 693 q 331 667 357 682 q 276 630 304 653 q 218 571 248 606 l 214 681 l 109 681 m 453 -78 l 338 -78 l 293 -278 l 393 -278 l 453 -78 "},"ŉ":{"ha":764,"x_min":0,"x_max":669,"o":"m 122 681 l 122 0 l 240 0 l 240 452 q 299 519 273 492 q 347 563 325 547 q 390 585 370 578 q 433 591 411 591 q 522 553 492 591 q 551 435 551 515 l 551 0 l 669 0 l 669 444 q 615 631 669 569 q 456 693 562 693 q 399 687 427 693 q 344 667 371 682 q 290 630 317 653 q 232 571 262 606 l 227 681 l 122 681 m 0 798 l 0 720 q 83 736 44 721 q 152 778 123 751 q 198 845 181 806 q 215 935 215 884 q 208 989 215 966 q 187 1028 200 1013 q 158 1050 174 1043 q 122 1057 141 1057 q 91 1051 104 1057 q 69 1035 77 1044 q 56 1013 60 1025 q 52 990 52 1001 q 59 956 52 968 q 77 932 67 943 q 94 908 86 921 q 102 873 102 895 q 94 841 102 855 q 72 818 86 827 q 40 803 58 808 q 0 798 21 798 m 0 681 "},"ŋ":{"ha":764,"x_min":109,"x_max":656,"o":"m 383 -183 l 382 -285 q 496 -265 446 -285 q 582 -208 547 -245 q 637 -114 618 -170 q 656 12 656 -59 l 656 444 q 602 631 656 569 q 443 693 548 693 q 385 687 413 693 q 331 667 357 682 q 276 630 304 653 q 218 571 248 606 l 214 681 l 109 681 l 109 0 l 227 0 l 227 452 q 285 519 259 492 q 334 563 311 547 q 377 585 356 578 q 419 591 397 591 q 508 553 478 591 q 538 435 538 515 l 538 8 q 497 -135 538 -87 q 383 -183 457 -183 "},"ò":{"ha":764,"x_min":0,"x_max":701,"o":"m 701 346 q 680 495 701 430 q 618 604 659 560 q 520 670 578 648 q 389 693 462 693 q 252 667 312 693 q 149 594 191 641 q 85 481 107 547 q 62 336 62 416 q 84 186 62 252 q 145 77 105 121 q 244 11 186 33 q 375 -12 302 -12 q 512 14 452 -12 q 614 87 572 40 q 679 200 656 134 q 701 346 701 267 m 581 340 q 569 244 581 290 q 534 163 558 198 q 472 108 510 129 q 382 87 435 87 q 299 103 336 87 q 237 151 262 119 q 197 230 211 182 q 183 340 183 277 q 194 436 183 391 q 230 517 205 482 q 291 572 254 551 q 382 593 329 593 q 464 577 427 593 q 527 529 501 561 q 567 451 553 498 q 581 340 581 404 m 453 794 l 289 958 l 118 958 l 335 794 l 453 794 m 0 681 "},"ó":{"ha":764,"x_min":0,"x_max":701,"o":"m 701 346 q 680 495 701 430 q 618 604 659 560 q 520 670 578 648 q 389 693 462 693 q 252 667 312 693 q 149 594 191 641 q 85 481 107 547 q 62 336 62 416 q 84 186 62 252 q 145 77 105 121 q 244 11 186 33 q 375 -12 302 -12 q 512 14 452 -12 q 614 87 572 40 q 679 200 656 134 q 701 346 701 267 m 581 340 q 569 244 581 290 q 534 163 558 198 q 472 108 510 129 q 382 87 435 87 q 299 103 336 87 q 237 151 262 119 q 197 230 211 182 q 183 340 183 277 q 194 436 183 391 q 230 517 205 482 q 291 572 254 551 q 382 593 329 593 q 464 577 427 593 q 527 529 501 561 q 567 451 553 498 q 581 340 581 404 m 646 958 l 475 958 l 311 794 l 429 794 l 646 958 m 0 681 "},"ô":{"ha":764,"x_min":0,"x_max":701,"o":"m 701 346 q 680 495 701 430 q 618 604 659 560 q 520 670 578 648 q 389 693 462 693 q 252 667 312 693 q 149 594 191 641 q 85 481 107 547 q 62 336 62 416 q 84 186 62 252 q 145 77 105 121 q 244 11 186 33 q 375 -12 302 -12 q 512 14 452 -12 q 614 87 572 40 q 679 200 656 134 q 701 346 701 267 m 581 340 q 569 244 581 290 q 534 163 558 198 q 472 108 510 129 q 382 87 435 87 q 299 103 336 87 q 237 151 262 119 q 197 230 211 182 q 183 340 183 277 q 194 436 183 391 q 230 517 205 482 q 291 572 254 551 q 382 593 329 593 q 464 577 427 593 q 527 529 501 561 q 567 451 553 498 q 581 340 581 404 m 431 958 l 334 958 l 168 794 l 285 794 l 380 876 l 476 794 l 596 794 l 431 958 m 0 681 "},"õ":{"ha":764,"x_min":0,"x_max":701,"o":"m 701 346 q 680 495 701 430 q 618 604 659 560 q 520 670 578 648 q 389 693 462 693 q 252 667 312 693 q 149 594 191 641 q 85 481 107 547 q 62 336 62 416 q 84 186 62 252 q 145 77 105 121 q 244 11 186 33 q 375 -12 302 -12 q 512 14 452 -12 q 614 87 572 40 q 679 200 656 134 q 701 346 701 267 m 581 340 q 569 244 581 290 q 534 163 558 198 q 472 108 510 129 q 382 87 435 87 q 299 103 336 87 q 237 151 262 119 q 197 230 211 182 q 183 340 183 277 q 194 436 183 391 q 230 517 205 482 q 291 572 254 551 q 382 593 329 593 q 464 577 427 593 q 527 529 501 561 q 567 451 553 498 q 581 340 581 404 m 136 860 l 195 802 q 234 849 214 831 q 282 868 254 868 q 324 857 305 868 q 363 831 342 845 q 411 806 385 817 q 478 795 438 795 q 562 820 525 795 q 628 893 598 844 l 570 951 q 530 904 551 922 q 482 885 509 885 q 440 897 459 885 q 401 922 422 908 q 353 947 380 935 q 286 958 326 958 q 202 933 239 958 q 136 860 165 909 m 0 681 "},"ö":{"ha":764,"x_min":0,"x_max":701,"o":"m 701 346 q 680 495 701 430 q 618 604 659 560 q 520 670 578 648 q 389 693 462 693 q 252 667 312 693 q 149 594 191 641 q 85 481 107 547 q 62 336 62 416 q 84 186 62 252 q 145 77 105 121 q 244 11 186 33 q 375 -12 302 -12 q 512 14 452 -12 q 614 87 572 40 q 679 200 656 134 q 701 346 701 267 m 581 340 q 569 244 581 290 q 534 163 558 198 q 472 108 510 129 q 382 87 435 87 q 299 103 336 87 q 237 151 262 119 q 197 230 211 182 q 183 340 183 277 q 194 436 183 391 q 230 517 205 482 q 291 572 254 551 q 382 593 329 593 q 464 577 427 593 q 527 529 501 561 q 567 451 553 498 q 581 340 581 404 m 236 953 q 207 947 220 953 q 182 930 193 941 q 166 906 172 920 q 160 876 160 892 q 166 847 160 861 q 182 823 172 833 q 207 806 193 812 q 236 800 220 800 q 266 806 252 800 q 290 823 279 812 q 307 847 300 833 q 313 876 313 861 q 307 906 313 892 q 290 930 300 920 q 266 947 279 941 q 236 953 252 953 m 528 953 q 498 947 512 953 q 474 930 484 941 q 458 906 464 920 q 452 876 452 892 q 458 847 452 861 q 474 823 464 833 q 498 806 484 812 q 528 800 512 800 q 557 806 543 800 q 582 823 571 812 q 598 847 592 833 q 604 876 604 861 q 598 906 604 892 q 582 930 592 920 q 557 947 571 941 q 528 953 543 953 m 0 681 "},"ō":{"ha":764,"x_min":0,"x_max":701,"o":"m 701 346 q 680 495 701 430 q 618 604 659 560 q 520 670 578 648 q 389 693 462 693 q 252 667 312 693 q 149 594 191 641 q 85 481 107 547 q 62 336 62 416 q 84 186 62 252 q 145 77 105 121 q 244 11 186 33 q 375 -12 302 -12 q 512 14 452 -12 q 614 87 572 40 q 679 200 656 134 q 701 346 701 267 m 581 340 q 569 244 581 290 q 534 163 558 198 q 472 108 510 129 q 382 87 435 87 q 299 103 336 87 q 237 151 262 119 q 197 230 211 182 q 183 340 183 277 q 194 436 183 391 q 230 517 205 482 q 291 572 254 551 q 382 593 329 593 q 464 577 427 593 q 527 529 501 561 q 567 451 553 498 q 581 340 581 404 m 559 831 l 559 921 l 204 921 l 204 831 l 559 831 m 0 681 "},"ŏ":{"ha":764,"x_min":0,"x_max":701,"o":"m 701 346 q 680 495 701 430 q 618 604 659 560 q 520 670 578 648 q 389 693 462 693 q 252 667 312 693 q 149 594 191 641 q 85 481 107 547 q 62 336 62 416 q 84 186 62 252 q 145 77 105 121 q 244 11 186 33 q 375 -12 302 -12 q 512 14 452 -12 q 614 87 572 40 q 679 200 656 134 q 701 346 701 267 m 581 340 q 569 244 581 290 q 534 163 558 198 q 472 108 510 129 q 382 87 435 87 q 299 103 336 87 q 237 151 262 119 q 197 230 211 182 q 183 340 183 277 q 194 436 183 391 q 230 517 205 482 q 291 572 254 551 q 382 593 329 593 q 464 577 427 593 q 527 529 501 561 q 567 451 553 498 q 581 340 581 404 m 550 958 l 458 958 q 439 903 458 924 q 382 882 420 882 q 325 903 344 882 q 306 958 306 924 l 214 958 q 227 886 214 917 q 263 835 241 855 q 317 804 286 814 q 382 794 347 794 q 447 804 416 794 q 500 835 477 814 q 536 886 523 855 q 550 958 550 917 m 0 681 "},"ő":{"ha":764,"x_min":0,"x_max":747,"o":"m 701 346 q 680 495 701 430 q 618 604 659 560 q 520 670 578 648 q 389 693 462 693 q 252 667 312 693 q 149 594 191 641 q 85 481 107 547 q 62 336 62 416 q 84 186 62 252 q 145 77 105 121 q 244 11 186 33 q 375 -12 302 -12 q 512 14 452 -12 q 614 87 572 40 q 679 200 656 134 q 701 346 701 267 m 581 340 q 569 244 581 290 q 534 163 558 198 q 472 108 510 129 q 382 87 435 87 q 299 103 336 87 q 237 151 262 119 q 197 230 211 182 q 183 340 183 277 q 194 436 183 391 q 230 517 205 482 q 291 572 254 551 q 382 593 329 593 q 464 577 427 593 q 527 529 501 561 q 567 451 553 498 q 581 340 581 404 m 440 958 l 297 958 l 157 794 l 275 794 l 440 958 m 747 958 l 590 958 l 440 794 l 558 794 l 747 958 m 0 681 "},"ø":{"ha":764,"x_min":62,"x_max":701,"o":"m 496 827 l 450 689 q 389 693 418 693 q 251 668 311 693 q 149 597 191 643 q 84 485 106 551 q 62 336 62 418 q 106 136 62 215 q 227 20 149 57 l 171 -146 l 269 -146 l 315 -8 q 375 -12 345 -12 q 513 13 452 -12 q 615 84 573 37 q 679 197 657 130 q 701 346 701 263 q 659 546 701 467 q 539 661 616 625 l 595 827 l 496 827 m 349 89 l 504 555 q 563 471 542 525 q 583 340 583 416 q 572 243 583 289 q 537 162 561 197 q 476 106 513 127 q 386 86 439 86 q 367 87 378 86 q 349 89 357 87 m 416 591 l 261 125 q 201 210 221 155 q 180 340 180 264 q 192 438 180 392 q 227 519 203 484 q 288 574 250 554 q 378 595 325 595 q 398 594 387 595 q 416 591 408 593 "},"ǿ":{"ha":764,"x_min":-54,"x_max":701,"o":"m 496 827 l 450 689 q 389 693 418 693 q 251 668 311 693 q 149 597 191 643 q 84 485 106 551 q 62 336 62 418 q 106 136 62 215 q 227 20 149 57 l 171 -146 l 269 -146 l 315 -8 q 375 -12 345 -12 q 513 13 452 -12 q 615 84 573 37 q 679 197 657 130 q 701 346 701 263 q 659 546 701 467 q 539 661 616 625 l 595 827 l 496 827 m 349 89 l 504 555 q 563 471 542 525 q 583 340 583 416 q 572 243 583 289 q 537 162 561 197 q 476 106 513 127 q 386 86 439 86 q 367 87 378 86 q 349 89 357 87 m 416 591 l 261 125 q 201 210 221 155 q 180 340 180 264 q 192 438 180 392 q 227 519 203 484 q 288 574 250 554 q 378 595 325 595 q 398 594 387 595 q 416 591 408 593 m 591 958 l 420 958 l 257 794 l 375 794 l 591 958 m -54 681 "},"œ":{"ha":764,"x_min":26,"x_max":739,"o":"m 387 107 q 456 17 409 47 q 566 -12 504 -12 q 646 -4 607 -12 q 715 18 685 5 l 715 117 q 651 97 688 105 q 576 89 615 89 q 481 145 513 89 q 450 311 450 202 l 737 311 q 739 335 739 319 q 739 376 739 351 q 726 511 739 452 q 689 610 713 570 q 630 672 665 651 q 550 693 595 693 q 497 685 520 693 q 455 662 473 677 q 422 625 437 647 q 396 575 408 603 q 332 665 368 636 q 243 693 296 693 q 148 668 189 693 q 80 596 107 643 q 40 484 54 550 q 26 335 26 418 q 39 178 26 243 q 77 70 52 112 q 142 7 103 27 q 233 -12 180 -12 q 325 19 286 -12 q 387 107 363 50 m 332 339 q 237 86 332 86 q 193 100 212 86 q 161 144 174 114 q 143 222 149 174 q 138 339 138 271 q 144 455 138 407 q 163 534 151 503 q 195 580 176 566 q 237 595 214 595 q 277 581 259 595 q 307 536 294 567 q 325 457 319 506 q 332 339 332 409 m 629 399 l 450 399 q 474 543 452 492 q 543 595 496 595 q 577 584 562 595 q 605 550 593 573 q 623 489 616 526 q 629 399 630 452 "},"þ":{"ha":764,"x_min":109,"x_max":690,"o":"m 690 353 q 675 493 690 430 q 631 600 661 555 q 557 669 601 644 q 454 693 513 693 q 330 665 388 693 q 221 568 272 637 l 227 694 l 227 958 l 109 958 l 109 -278 l 227 -278 l 227 7 q 292 -5 260 -1 q 357 -8 324 -8 q 496 17 434 -8 q 601 88 557 41 q 667 201 644 134 q 690 353 690 268 m 570 347 q 553 223 570 273 q 508 143 536 174 q 443 100 480 113 q 366 87 406 87 q 297 95 333 87 q 227 117 261 103 l 227 447 q 285 515 258 488 q 337 559 313 543 q 385 583 362 576 q 431 590 408 590 q 494 572 467 590 q 537 522 520 554 q 562 446 554 490 q 570 347 570 401 "},"ŕ":{"ha":764,"x_min":0,"x_max":700,"o":"m 136 681 l 136 0 l 256 0 l 256 437 q 317 508 288 479 q 371 556 345 537 q 420 583 396 574 q 468 591 444 591 q 550 551 522 591 q 576 421 578 511 l 696 421 q 645 625 700 556 q 485 693 591 693 q 367 661 425 693 q 248 555 308 628 l 244 681 l 136 681 m 646 958 l 475 958 l 311 794 l 429 794 l 646 958 m 0 681 "},"ř":{"ha":764,"x_min":0,"x_max":700,"o":"m 136 681 l 136 0 l 256 0 l 256 437 q 317 508 288 479 q 371 556 345 537 q 420 583 396 574 q 468 591 444 591 q 550 551 522 591 q 576 421 578 511 l 696 421 q 645 625 700 556 q 485 693 591 693 q 367 661 425 693 q 248 555 308 628 l 244 681 l 136 681 m 334 794 l 431 794 l 596 958 l 479 958 l 383 876 l 288 958 l 168 958 l 334 794 m 0 681 "},"ŗ":{"ha":764,"x_min":136,"x_max":700,"o":"m 136 681 l 136 0 l 256 0 l 256 437 q 317 508 288 479 q 371 556 345 537 q 420 583 396 574 q 468 591 444 591 q 550 551 522 591 q 576 421 578 511 l 696 421 q 645 625 700 556 q 485 693 591 693 q 367 661 425 693 q 248 555 308 628 l 244 681 l 136 681 m 453 -78 l 338 -78 l 293 -278 l 393 -278 l 453 -78 "},"ś":{"ha":764,"x_min":0,"x_max":648,"o":"m 648 186 q 636 254 648 224 q 600 307 625 283 q 532 350 574 331 q 431 387 491 370 q 340 417 375 404 q 287 445 306 431 q 260 474 267 459 q 253 507 253 489 q 261 542 253 526 q 288 569 269 557 q 337 588 307 581 q 411 595 367 595 q 497 588 448 595 q 603 568 547 582 l 603 673 q 501 689 550 684 q 412 693 452 693 q 277 674 331 693 q 191 625 222 654 q 145 562 159 596 q 132 500 132 528 q 149 425 132 456 q 193 369 165 393 q 261 328 222 345 q 346 297 300 311 q 443 264 408 279 q 496 237 479 250 q 519 209 513 224 q 526 176 526 195 q 485 111 526 134 q 359 87 444 87 q 242 96 301 87 q 123 122 183 105 l 123 14 q 237 -6 179 0 q 364 -12 295 -12 q 429 -7 396 -12 q 494 7 463 -3 q 553 33 526 18 q 602 71 581 49 q 635 121 623 93 q 648 186 648 150 m 646 958 l 475 958 l 311 794 l 429 794 l 646 958 m 0 681 "},"ŝ":{"ha":764,"x_min":0,"x_max":648,"o":"m 648 186 q 636 254 648 224 q 600 307 625 283 q 532 350 574 331 q 431 387 491 370 q 340 417 375 404 q 287 445 306 431 q 260 474 267 459 q 253 507 253 489 q 261 542 253 526 q 288 569 269 557 q 337 588 307 581 q 411 595 367 595 q 497 588 448 595 q 603 568 547 582 l 603 673 q 501 689 550 684 q 412 693 452 693 q 277 674 331 693 q 191 625 222 654 q 145 562 159 596 q 132 500 132 528 q 149 425 132 456 q 193 369 165 393 q 261 328 222 345 q 346 297 300 311 q 443 264 408 279 q 496 237 479 250 q 519 209 513 224 q 526 176 526 195 q 485 111 526 134 q 359 87 444 87 q 242 96 301 87 q 123 122 183 105 l 123 14 q 237 -6 179 0 q 364 -12 295 -12 q 429 -7 396 -12 q 494 7 463 -3 q 553 33 526 18 q 602 71 581 49 q 635 121 623 93 q 648 186 648 150 m 431 958 l 334 958 l 168 794 l 285 794 l 380 876 l 476 794 l 596 794 l 431 958 m 0 681 "},"š":{"ha":764,"x_min":0,"x_max":648,"o":"m 648 186 q 636 254 648 224 q 600 307 625 283 q 532 350 574 331 q 431 387 491 370 q 340 417 375 404 q 287 445 306 431 q 260 474 267 459 q 253 507 253 489 q 261 542 253 526 q 288 569 269 557 q 337 588 307 581 q 411 595 367 595 q 497 588 448 595 q 603 568 547 582 l 603 673 q 501 689 550 684 q 412 693 452 693 q 277 674 331 693 q 191 625 222 654 q 145 562 159 596 q 132 500 132 528 q 149 425 132 456 q 193 369 165 393 q 261 328 222 345 q 346 297 300 311 q 443 264 408 279 q 496 237 479 250 q 519 209 513 224 q 526 176 526 195 q 485 111 526 134 q 359 87 444 87 q 242 96 301 87 q 123 122 183 105 l 123 14 q 237 -6 179 0 q 364 -12 295 -12 q 429 -7 396 -12 q 494 7 463 -3 q 553 33 526 18 q 602 71 581 49 q 635 121 623 93 q 648 186 648 150 m 334 794 l 431 794 l 596 958 l 479 958 l 383 876 l 288 958 l 168 958 l 334 794 m 0 681 "},"ş":{"ha":764,"x_min":123,"x_max":648,"o":"m 648 186 q 636 254 648 224 q 600 307 625 283 q 532 350 574 331 q 431 387 491 370 q 340 417 375 404 q 287 445 306 431 q 260 474 267 459 q 253 507 253 489 q 261 542 253 526 q 288 569 269 557 q 337 588 307 581 q 411 595 367 595 q 497 588 448 595 q 603 568 547 582 l 603 673 q 501 689 550 684 q 412 693 452 693 q 277 674 331 693 q 191 625 222 654 q 145 562 159 596 q 132 500 132 528 q 149 425 132 456 q 193 369 165 393 q 261 328 222 345 q 346 297 300 311 q 443 264 408 279 q 496 237 479 250 q 519 209 513 224 q 526 176 526 195 q 485 111 526 134 q 359 87 444 87 q 242 96 301 87 q 123 122 183 105 l 123 14 q 220 -4 171 2 q 326 -12 269 -10 l 285 -200 l 387 -200 l 444 -5 q 520 17 484 2 q 585 55 557 31 q 630 111 613 78 q 648 186 648 143 "},"ș":{"ha":764,"x_min":123,"x_max":648,"o":"m 648 186 q 636 254 648 224 q 600 307 625 283 q 532 350 574 331 q 431 387 491 370 q 340 417 375 404 q 287 445 306 431 q 260 474 267 459 q 253 507 253 489 q 261 542 253 526 q 288 569 269 557 q 337 588 307 581 q 411 595 367 595 q 497 588 448 595 q 603 568 547 582 l 603 673 q 501 689 550 684 q 412 693 452 693 q 277 674 331 693 q 191 625 222 654 q 145 562 159 596 q 132 500 132 528 q 149 425 132 456 q 193 369 165 393 q 261 328 222 345 q 346 297 300 311 q 443 264 408 279 q 496 237 479 250 q 519 209 513 224 q 526 176 526 195 q 485 111 526 134 q 359 87 444 87 q 242 96 301 87 q 123 122 183 105 l 123 14 q 237 -6 179 0 q 364 -12 295 -12 q 429 -7 396 -12 q 494 7 463 -3 q 553 33 526 18 q 602 71 581 49 q 635 121 623 93 q 648 186 648 150 m 453 -78 l 338 -78 l 293 -278 l 393 -278 l 453 -78 "},"ß":{"ha":764,"x_min":100,"x_max":693,"o":"m 693 189 q 675 266 693 233 q 631 327 658 300 q 573 376 604 354 q 515 418 542 397 q 471 460 488 439 q 453 507 453 481 q 466 551 453 533 q 499 586 479 570 q 542 618 519 602 q 585 655 565 634 q 617 705 604 676 q 631 774 631 733 q 615 853 631 818 q 568 914 599 889 q 491 953 536 939 q 389 966 446 966 q 273 949 326 966 q 182 898 220 932 q 121 810 143 863 q 100 685 100 757 l 100 0 l 218 0 l 218 689 q 230 772 218 737 q 262 828 241 806 q 312 861 283 850 q 378 871 341 871 q 477 846 443 871 q 511 765 511 821 q 498 719 511 739 q 465 683 485 700 q 422 651 446 667 q 380 614 399 635 q 347 566 360 593 q 334 501 334 539 q 351 426 334 458 q 395 368 369 393 q 453 321 422 342 q 511 277 484 299 q 555 231 537 256 q 572 175 572 207 q 564 142 572 157 q 539 115 556 127 q 497 97 523 104 q 435 90 471 90 q 407 91 422 90 q 378 94 392 92 q 351 99 363 96 q 332 104 339 102 l 332 0 q 377 -5 349 -2 q 440 -8 406 -8 q 558 9 510 -8 q 636 55 606 27 q 680 118 667 83 q 693 189 693 153 "},"ſ":{"ha":764,"x_min":196,"x_max":699,"o":"m 699 950 q 609 963 658 958 q 515 968 560 968 q 386 948 444 968 q 285 890 327 929 q 219 791 243 850 q 196 652 196 732 l 196 0 l 317 0 l 317 664 q 368 820 317 770 q 522 869 420 869 q 563 868 541 869 q 608 865 585 867 q 654 859 631 863 q 699 851 677 856 l 699 950 "},"ť":{"ha":764,"x_min":-123,"x_max":714,"o":"m 657 9 l 657 111 q 576 95 615 100 q 505 90 538 90 q 390 126 429 90 q 351 236 351 163 l 351 582 l 657 582 l 657 681 l 351 681 l 351 899 l 233 868 l 233 681 l 43 681 l 43 582 l 233 582 l 233 227 q 296 48 233 106 q 488 -9 359 -9 q 574 -5 532 -9 q 657 9 617 -1 m 714 994 l 599 994 l 542 794 l 640 794 l 714 994 m -123 681 "},"ţ":{"ha":764,"x_min":43,"x_max":657,"o":"m 657 9 l 657 111 q 576 95 615 100 q 505 90 538 90 q 390 126 429 90 q 351 236 351 163 l 351 582 l 657 582 l 657 681 l 351 681 l 351 899 l 233 868 l 233 681 l 43 681 l 43 582 l 233 582 l 233 227 q 296 48 233 106 q 488 -9 359 -9 q 574 -5 532 -9 q 657 9 617 -1 m 453 -78 l 338 -78 l 293 -278 l 393 -278 l 453 -78 "},"ŧ":{"ha":764,"x_min":43,"x_max":657,"o":"m 657 9 l 657 111 q 576 95 615 100 q 505 90 538 90 q 390 126 429 90 q 351 236 351 163 l 351 304 l 615 304 l 615 403 l 351 403 l 351 582 l 657 582 l 657 681 l 351 681 l 351 899 l 233 868 l 233 681 l 43 681 l 43 582 l 233 582 l 233 403 l 71 403 l 71 304 l 233 304 l 233 227 q 296 48 233 106 q 488 -9 359 -9 q 574 -5 532 -9 q 657 9 617 -1 "},"ù":{"ha":764,"x_min":0,"x_max":656,"o":"m 656 0 l 656 681 l 538 681 l 538 229 q 479 161 505 188 q 430 118 453 134 q 387 95 408 102 q 345 89 366 89 q 227 245 227 89 l 227 681 l 109 681 l 109 236 q 162 50 109 111 q 321 -12 216 -12 q 379 -6 351 -12 q 433 14 406 -1 q 488 51 460 28 q 546 110 515 75 l 550 0 l 656 0 m 453 794 l 289 958 l 118 958 l 335 794 l 453 794 m 0 681 "},"ú":{"ha":764,"x_min":0,"x_max":656,"o":"m 656 0 l 656 681 l 538 681 l 538 229 q 479 161 505 188 q 430 118 453 134 q 387 95 408 102 q 345 89 366 89 q 227 245 227 89 l 227 681 l 109 681 l 109 236 q 162 50 109 111 q 321 -12 216 -12 q 379 -6 351 -12 q 433 14 406 -1 q 488 51 460 28 q 546 110 515 75 l 550 0 l 656 0 m 646 958 l 475 958 l 311 794 l 429 794 l 646 958 m 0 681 "},"û":{"ha":764,"x_min":0,"x_max":656,"o":"m 656 0 l 656 681 l 538 681 l 538 229 q 479 161 505 188 q 430 118 453 134 q 387 95 408 102 q 345 89 366 89 q 227 245 227 89 l 227 681 l 109 681 l 109 236 q 162 50 109 111 q 321 -12 216 -12 q 379 -6 351 -12 q 433 14 406 -1 q 488 51 460 28 q 546 110 515 75 l 550 0 l 656 0 m 431 958 l 334 958 l 168 794 l 285 794 l 380 876 l 476 794 l 596 794 l 431 958 m 0 681 "},"ũ":{"ha":764,"x_min":0,"x_max":656,"o":"m 656 0 l 656 681 l 538 681 l 538 229 q 479 161 505 188 q 430 118 453 134 q 387 95 408 102 q 345 89 366 89 q 227 245 227 89 l 227 681 l 109 681 l 109 236 q 162 50 109 111 q 321 -12 216 -12 q 379 -6 351 -12 q 433 14 406 -1 q 488 51 460 28 q 546 110 515 75 l 550 0 l 656 0 m 136 860 l 195 802 q 234 849 214 831 q 282 868 254 868 q 324 857 305 868 q 363 831 342 845 q 411 806 385 817 q 478 795 438 795 q 562 820 525 795 q 628 893 598 844 l 570 951 q 530 904 551 922 q 482 885 509 885 q 440 897 459 885 q 401 922 422 908 q 353 947 380 935 q 286 958 326 958 q 202 933 239 958 q 136 860 165 909 m 0 681 "},"ü":{"ha":764,"x_min":0,"x_max":656,"o":"m 656 0 l 656 681 l 538 681 l 538 229 q 479 161 505 188 q 430 118 453 134 q 387 95 408 102 q 345 89 366 89 q 227 245 227 89 l 227 681 l 109 681 l 109 236 q 162 50 109 111 q 321 -12 216 -12 q 379 -6 351 -12 q 433 14 406 -1 q 488 51 460 28 q 546 110 515 75 l 550 0 l 656 0 m 236 953 q 207 947 220 953 q 182 930 193 941 q 166 906 172 920 q 160 876 160 892 q 166 847 160 861 q 182 823 172 833 q 207 806 193 812 q 236 800 220 800 q 266 806 252 800 q 290 823 279 812 q 307 847 300 833 q 313 876 313 861 q 307 906 313 892 q 290 930 300 920 q 266 947 279 941 q 236 953 252 953 m 528 953 q 498 947 512 953 q 474 930 484 941 q 458 906 464 920 q 452 876 452 892 q 458 847 452 861 q 474 823 464 833 q 498 806 484 812 q 528 800 512 800 q 557 806 543 800 q 582 823 571 812 q 598 847 592 833 q 604 876 604 861 q 598 906 604 892 q 582 930 592 920 q 557 947 571 941 q 528 953 543 953 m 0 681 "},"ū":{"ha":764,"x_min":0,"x_max":656,"o":"m 656 0 l 656 681 l 538 681 l 538 229 q 479 161 505 188 q 430 118 453 134 q 387 95 408 102 q 345 89 366 89 q 227 245 227 89 l 227 681 l 109 681 l 109 236 q 162 50 109 111 q 321 -12 216 -12 q 379 -6 351 -12 q 433 14 406 -1 q 488 51 460 28 q 546 110 515 75 l 550 0 l 656 0 m 559 831 l 559 921 l 204 921 l 204 831 l 559 831 m 0 681 "},"ŭ":{"ha":764,"x_min":0,"x_max":656,"o":"m 656 0 l 656 681 l 538 681 l 538 229 q 479 161 505 188 q 430 118 453 134 q 387 95 408 102 q 345 89 366 89 q 227 245 227 89 l 227 681 l 109 681 l 109 236 q 162 50 109 111 q 321 -12 216 -12 q 379 -6 351 -12 q 433 14 406 -1 q 488 51 460 28 q 546 110 515 75 l 550 0 l 656 0 m 550 958 l 458 958 q 439 903 458 924 q 382 882 420 882 q 325 903 344 882 q 306 958 306 924 l 214 958 q 227 886 214 917 q 263 835 241 855 q 317 804 286 814 q 382 794 347 794 q 447 804 416 794 q 500 835 477 814 q 536 886 523 855 q 550 958 550 917 m 0 681 "},"ů":{"ha":764,"x_min":0,"x_max":656,"o":"m 656 0 l 656 681 l 538 681 l 538 229 q 479 161 505 188 q 430 118 453 134 q 387 95 408 102 q 345 89 366 89 q 227 245 227 89 l 227 681 l 109 681 l 109 236 q 162 50 109 111 q 321 -12 216 -12 q 379 -6 351 -12 q 433 14 406 -1 q 488 51 460 28 q 546 110 515 75 l 550 0 l 656 0 m 382 1018 q 325 1007 351 1018 q 279 977 298 996 q 248 932 259 958 q 236 878 236 907 q 248 823 236 848 q 279 779 259 798 q 325 749 298 760 q 382 738 351 738 q 439 749 412 738 q 485 779 465 760 q 516 823 505 798 q 528 878 528 848 q 516 932 528 907 q 485 977 505 958 q 439 1007 465 996 q 382 1018 412 1018 m 382 946 q 408 941 396 946 q 430 926 420 935 q 444 904 439 917 q 450 878 450 892 q 444 851 450 863 q 430 830 439 839 q 408 815 420 821 q 382 810 396 810 q 334 829 353 810 q 314 878 314 849 q 319 904 314 892 q 334 926 325 917 q 355 941 343 935 q 382 946 368 946 m 0 681 "},"ű":{"ha":764,"x_min":0,"x_max":747,"o":"m 656 0 l 656 681 l 538 681 l 538 229 q 479 161 505 188 q 430 118 453 134 q 387 95 408 102 q 345 89 366 89 q 227 245 227 89 l 227 681 l 109 681 l 109 236 q 162 50 109 111 q 321 -12 216 -12 q 379 -6 351 -12 q 433 14 406 -1 q 488 51 460 28 q 546 110 515 75 l 550 0 l 656 0 m 440 958 l 297 958 l 157 794 l 275 794 l 440 958 m 747 958 l 590 958 l 440 794 l 558 794 l 747 958 m 0 681 "},"ų":{"ha":764,"x_min":109,"x_max":692,"o":"m 692 -254 l 692 -178 q 667 -180 680 -179 q 644 -180 654 -180 q 594 -166 608 -180 q 579 -131 579 -153 q 582 -105 579 -118 q 593 -77 585 -92 q 616 -43 602 -62 q 656 0 631 -24 l 656 681 l 538 681 l 538 229 q 479 161 505 188 q 430 118 453 134 q 387 95 408 102 q 345 89 366 89 q 227 245 227 89 l 227 681 l 109 681 l 109 236 q 162 50 109 111 q 321 -12 216 -12 q 379 -6 351 -12 q 433 14 406 -1 q 488 51 460 28 q 546 110 515 75 l 550 0 q 508 -47 524 -26 q 483 -85 492 -68 q 471 -119 474 -103 q 468 -150 468 -134 q 506 -230 468 -199 q 616 -261 543 -261 q 654 -259 633 -261 q 692 -254 675 -258 "},"ẁ":{"ha":764,"x_min":0,"x_max":739,"o":"m 739 681 l 623 681 l 570 215 l 559 119 l 529 210 l 422 511 l 338 511 l 239 205 l 210 115 l 197 218 l 140 681 l 25 681 l 123 0 l 262 0 l 357 281 l 379 354 l 399 285 l 497 0 l 640 0 l 739 681 m 453 794 l 289 958 l 118 958 l 335 794 l 453 794 m 0 681 "},"ẃ":{"ha":764,"x_min":0,"x_max":739,"o":"m 739 681 l 623 681 l 570 215 l 559 119 l 529 210 l 422 511 l 338 511 l 239 205 l 210 115 l 197 218 l 140 681 l 25 681 l 123 0 l 262 0 l 357 281 l 379 354 l 399 285 l 497 0 l 640 0 l 739 681 m 646 958 l 475 958 l 311 794 l 429 794 l 646 958 m 0 681 "},"ŵ":{"ha":764,"x_min":0,"x_max":739,"o":"m 739 681 l 623 681 l 570 215 l 559 119 l 529 210 l 422 511 l 338 511 l 239 205 l 210 115 l 197 218 l 140 681 l 25 681 l 123 0 l 262 0 l 357 281 l 379 354 l 399 285 l 497 0 l 640 0 l 739 681 m 431 958 l 334 958 l 168 794 l 285 794 l 380 876 l 476 794 l 596 794 l 431 958 m 0 681 "},"ẅ":{"ha":764,"x_min":0,"x_max":739,"o":"m 739 681 l 623 681 l 570 215 l 559 119 l 529 210 l 422 511 l 338 511 l 239 205 l 210 115 l 197 218 l 140 681 l 25 681 l 123 0 l 262 0 l 357 281 l 379 354 l 399 285 l 497 0 l 640 0 l 739 681 m 236 953 q 207 947 220 953 q 182 930 193 941 q 166 906 172 920 q 160 876 160 892 q 166 847 160 861 q 182 823 172 833 q 207 806 193 812 q 236 800 220 800 q 266 806 252 800 q 290 823 279 812 q 307 847 300 833 q 313 876 313 861 q 307 906 313 892 q 290 930 300 920 q 266 947 279 941 q 236 953 252 953 m 528 953 q 498 947 512 953 q 474 930 484 941 q 458 906 464 920 q 452 876 452 892 q 458 847 452 861 q 474 823 464 833 q 498 806 484 812 q 528 800 512 800 q 557 806 543 800 q 582 823 571 812 q 598 847 592 833 q 604 876 604 861 q 598 906 604 892 q 582 930 592 920 q 557 947 571 941 q 528 953 543 953 m 0 681 "},"ỳ":{"ha":764,"x_min":0,"x_max":714,"o":"m 714 681 l 585 681 l 425 233 l 386 125 l 351 231 l 179 681 l 45 681 l 317 0 q 272 -82 295 -48 q 224 -137 249 -116 q 171 -168 199 -159 q 110 -178 142 -178 q 73 -176 90 -178 q 40 -172 55 -174 l 40 -279 q 71 -281 57 -281 q 103 -282 85 -282 q 224 -262 170 -282 q 324 -198 279 -241 q 408 -88 370 -155 q 482 72 446 -21 l 714 681 m 453 794 l 289 958 l 118 958 l 335 794 l 453 794 m 0 681 "},"ý":{"ha":764,"x_min":0,"x_max":714,"o":"m 714 681 l 585 681 l 425 233 l 386 125 l 351 231 l 179 681 l 45 681 l 317 0 q 272 -82 295 -48 q 224 -137 249 -116 q 171 -168 199 -159 q 110 -178 142 -178 q 73 -176 90 -178 q 40 -172 55 -174 l 40 -279 q 71 -281 57 -281 q 103 -282 85 -282 q 224 -262 170 -282 q 324 -198 279 -241 q 408 -88 370 -155 q 482 72 446 -21 l 714 681 m 646 958 l 475 958 l 311 794 l 429 794 l 646 958 m 0 681 "},"ŷ":{"ha":764,"x_min":0,"x_max":714,"o":"m 714 681 l 585 681 l 425 233 l 386 125 l 351 231 l 179 681 l 45 681 l 317 0 q 272 -82 295 -48 q 224 -137 249 -116 q 171 -168 199 -159 q 110 -178 142 -178 q 73 -176 90 -178 q 40 -172 55 -174 l 40 -279 q 71 -281 57 -281 q 103 -282 85 -282 q 224 -262 170 -282 q 324 -198 279 -241 q 408 -88 370 -155 q 482 72 446 -21 l 714 681 m 431 958 l 334 958 l 168 794 l 285 794 l 380 876 l 476 794 l 596 794 l 431 958 m 0 681 "},"ÿ":{"ha":764,"x_min":0,"x_max":714,"o":"m 714 681 l 585 681 l 425 233 l 386 125 l 351 231 l 179 681 l 45 681 l 317 0 q 272 -82 295 -48 q 224 -137 249 -116 q 171 -168 199 -159 q 110 -178 142 -178 q 73 -176 90 -178 q 40 -172 55 -174 l 40 -279 q 71 -281 57 -281 q 103 -282 85 -282 q 224 -262 170 -282 q 324 -198 279 -241 q 408 -88 370 -155 q 482 72 446 -21 l 714 681 m 236 953 q 207 947 220 953 q 182 930 193 941 q 166 906 172 920 q 160 876 160 892 q 166 847 160 861 q 182 823 172 833 q 207 806 193 812 q 236 800 220 800 q 266 806 252 800 q 290 823 279 812 q 307 847 300 833 q 313 876 313 861 q 307 906 313 892 q 290 930 300 920 q 266 947 279 941 q 236 953 252 953 m 528 953 q 498 947 512 953 q 474 930 484 941 q 458 906 464 920 q 452 876 452 892 q 458 847 452 861 q 474 823 464 833 q 498 806 484 812 q 528 800 512 800 q 557 806 543 800 q 582 823 571 812 q 598 847 592 833 q 604 876 604 861 q 598 906 604 892 q 582 930 592 920 q 557 947 571 941 q 528 953 543 953 m 0 681 "},"ź":{"ha":764,"x_min":0,"x_max":660,"o":"m 660 0 l 660 100 l 260 100 l 637 589 l 637 681 l 121 681 l 121 582 l 496 582 l 111 85 l 111 0 l 660 0 m 646 958 l 475 958 l 311 794 l 429 794 l 646 958 m 0 681 "},"ž":{"ha":764,"x_min":0,"x_max":660,"o":"m 660 0 l 660 100 l 260 100 l 637 589 l 637 681 l 121 681 l 121 582 l 496 582 l 111 85 l 111 0 l 660 0 m 334 794 l 431 794 l 596 958 l 479 958 l 383 876 l 288 958 l 168 958 l 334 794 m 0 681 "},"ż":{"ha":764,"x_min":0,"x_max":660,"o":"m 660 0 l 660 100 l 260 100 l 637 589 l 637 681 l 121 681 l 121 582 l 496 582 l 111 85 l 111 0 l 660 0 m 382 964 q 346 957 362 964 q 317 937 330 949 q 298 909 305 925 q 292 873 292 892 q 298 838 292 854 q 317 810 305 822 q 346 790 330 798 q 382 783 362 783 q 417 790 401 783 q 446 810 434 798 q 465 838 458 822 q 472 873 472 854 q 465 909 472 892 q 446 937 458 925 q 417 957 434 949 q 382 964 401 964 m 0 681 "},"&":{"ha":764,"x_min":39,"x_max":764,"o":"m 694 463 l 575 463 q 547 269 577 349 l 372 488 q 447 532 410 509 q 511 585 483 555 q 556 653 539 614 q 574 742 574 691 q 560 818 574 782 q 518 880 546 853 q 449 923 490 907 q 353 939 408 939 q 251 922 296 939 q 177 874 207 905 q 131 803 146 844 q 115 713 115 762 q 134 618 115 667 q 191 524 153 570 l 205 503 q 142 458 172 482 q 89 402 112 434 q 52 331 66 371 q 39 239 39 290 q 57 138 39 184 q 109 60 75 93 q 195 9 144 27 q 311 -9 245 -9 q 440 12 380 -9 q 547 74 499 33 l 607 0 l 764 0 l 627 171 q 677 301 659 229 q 694 463 694 374 m 161 253 q 169 309 161 283 q 191 355 177 334 q 224 393 205 376 q 267 427 243 411 l 482 157 q 328 92 416 92 q 258 103 289 92 q 206 136 227 115 q 173 187 184 157 q 161 253 161 217 m 454 730 q 443 676 454 700 q 413 632 432 652 q 368 595 393 612 q 313 562 342 578 l 294 586 q 251 655 264 624 q 237 724 237 687 q 244 769 237 748 q 266 806 252 790 q 301 830 280 821 q 349 839 321 839 q 426 810 397 839 q 454 730 454 781 "},"`":{"ha":764,"x_min":0,"x_max":453,"o":"m 453 794 l 289 958 l 118 958 l 335 794 l 453 794 m 0 681 "},"´":{"ha":764,"x_min":0,"x_max":646,"o":"m 646 958 l 475 958 l 311 794 l 429 794 l 646 958 m 0 681 "},"ˆ":{"ha":764,"x_min":0,"x_max":596,"o":"m 431 958 l 334 958 l 168 794 l 285 794 l 380 876 l 476 794 l 596 794 l 431 958 m 0 681 "},"ˇ":{"ha":764,"x_min":0,"x_max":596,"o":"m 334 794 l 431 794 l 596 958 l 479 958 l 383 876 l 288 958 l 168 958 l 334 794 m 0 681 "},"̕":{"ha":764,"x_min":0,"x_max":838,"o":"m 838 994 l 722 994 l 665 794 l 764 794 l 838 994 m 0 681 "},"˜":{"ha":764,"x_min":0,"x_max":628,"o":"m 136 860 l 195 802 q 234 849 214 831 q 282 868 254 868 q 324 857 305 868 q 363 831 342 845 q 411 806 385 817 q 478 795 438 795 q 562 820 525 795 q 628 893 598 844 l 570 951 q 530 904 551 922 q 482 885 509 885 q 440 897 459 885 q 401 922 422 908 q 353 947 380 935 q 286 958 326 958 q 202 933 239 958 q 136 860 165 909 m 0 681 "},"¨":{"ha":764,"x_min":0,"x_max":604,"o":"m 236 953 q 207 947 220 953 q 182 930 193 941 q 166 906 172 920 q 160 876 160 892 q 166 847 160 861 q 182 823 172 833 q 207 806 193 812 q 236 800 220 800 q 266 806 252 800 q 290 823 279 812 q 307 847 300 833 q 313 876 313 861 q 307 906 313 892 q 290 930 300 920 q 266 947 279 941 q 236 953 252 953 m 528 953 q 498 947 512 953 q 474 930 484 941 q 458 906 464 920 q 452 876 452 892 q 458 847 452 861 q 474 823 464 833 q 498 806 484 812 q 528 800 512 800 q 557 806 543 800 q 582 823 571 812 q 598 847 592 833 q 604 876 604 861 q 598 906 604 892 q 582 930 592 920 q 557 947 571 941 q 528 953 543 953 m 0 681 "},"¯":{"ha":764,"x_min":0,"x_max":559,"o":"m 559 831 l 559 921 l 204 921 l 204 831 l 559 831 m 0 681 "},"˘":{"ha":764,"x_min":0,"x_max":550,"o":"m 550 958 l 458 958 q 439 903 458 924 q 382 882 420 882 q 325 903 344 882 q 306 958 306 924 l 214 958 q 227 886 214 917 q 263 835 241 855 q 317 804 286 814 q 382 794 347 794 q 447 804 416 794 q 500 835 477 814 q 536 886 523 855 q 550 958 550 917 m 0 681 "},"˚":{"ha":764,"x_min":0,"x_max":528,"o":"m 382 1018 q 325 1007 351 1018 q 279 977 298 996 q 248 932 259 958 q 236 878 236 907 q 248 823 236 848 q 279 779 259 798 q 325 749 298 760 q 382 738 351 738 q 439 749 412 738 q 485 779 465 760 q 516 823 505 798 q 528 878 528 848 q 516 932 528 907 q 485 977 505 958 q 439 1007 465 996 q 382 1018 412 1018 m 382 946 q 408 941 396 946 q 430 926 420 935 q 444 904 439 917 q 450 878 450 892 q 444 851 450 863 q 430 830 439 839 q 408 815 420 821 q 382 810 396 810 q 334 829 353 810 q 314 878 314 849 q 319 904 314 892 q 334 926 325 917 q 355 941 343 935 q 382 946 368 946 m 0 681 "},"˝":{"ha":764,"x_min":0,"x_max":747,"o":"m 440 958 l 297 958 l 157 794 l 275 794 l 440 958 m 747 958 l 590 958 l 440 794 l 558 794 l 747 958 m 0 681 "},"˙":{"ha":764,"x_min":0,"x_max":472,"o":"m 382 964 q 346 957 362 964 q 317 937 330 949 q 298 909 305 925 q 292 873 292 892 q 298 838 292 854 q 317 810 305 822 q 346 790 330 798 q 382 783 362 783 q 417 790 401 783 q 446 810 434 798 q 465 838 458 822 q 472 873 472 854 q 465 909 472 892 q 446 937 458 925 q 417 957 434 949 q 382 964 401 964 m 0 681 "},"¸":{"ha":764,"x_min":296,"x_max":457,"o":"m 457 0 l 340 0 l 296 -200 l 399 -200 l 457 0 "},"˛":{"ha":764,"x_min":464,"x_max":688,"o":"m 688 -254 l 688 -178 q 663 -180 676 -179 q 640 -180 650 -180 q 590 -166 604 -180 q 575 -131 575 -153 q 578 -105 575 -118 q 589 -77 581 -92 q 612 -43 597 -62 q 652 0 627 -24 l 546 0 q 504 -47 519 -26 q 479 -85 488 -68 q 467 -119 470 -103 q 464 -150 464 -134 q 502 -230 464 -199 q 612 -261 539 -261 q 650 -259 629 -261 q 688 -254 671 -258 "},"̦":{"ha":764,"x_min":293,"x_max":453,"o":"m 453 -78 l 338 -78 l 293 -278 l 393 -278 l 453 -78 "},"̒":{"ha":764,"x_min":0,"x_max":488,"o":"m 315 794 l 431 794 l 488 994 l 389 994 l 315 794 m 0 681 "},",":{"ha":764,"x_min":161,"x_max":489,"o":"m 161 -139 l 161 -232 q 304 -208 243 -232 q 407 -144 366 -184 q 468 -53 448 -104 q 489 56 489 -1 q 479 127 489 97 q 453 178 469 158 q 414 209 436 199 q 368 218 392 218 q 327 210 345 218 q 299 189 310 202 q 282 161 288 176 q 277 131 277 145 q 287 85 277 102 q 309 54 296 68 q 331 21 321 39 q 340 -25 340 3 q 326 -75 340 -53 q 286 -111 311 -96 q 229 -133 261 -125 q 161 -139 196 -140 "},";":{"ha":764,"x_min":170,"x_max":497,"o":"m 170 -139 l 170 -232 q 312 -208 251 -232 q 415 -144 374 -184 q 476 -53 456 -104 q 497 56 497 -1 q 487 127 497 97 q 461 178 477 158 q 422 209 444 199 q 376 218 400 218 q 335 210 353 218 q 307 189 318 202 q 290 161 296 176 q 285 131 285 145 q 295 85 285 102 q 317 54 304 68 q 339 21 329 39 q 349 -25 349 3 q 334 -75 349 -53 q 294 -111 319 -96 q 237 -133 269 -125 q 170 -139 204 -140 m 382 693 q 341 685 360 693 q 309 662 323 676 q 286 629 294 648 q 278 589 278 610 q 286 548 278 567 q 309 515 294 530 q 341 493 323 501 q 382 485 360 485 q 422 493 403 485 q 455 515 441 501 q 478 548 469 530 q 486 589 486 567 q 478 629 486 610 q 455 662 469 648 q 422 685 441 676 q 382 693 403 693 "},":":{"ha":764,"x_min":278,"x_max":486,"o":"m 382 693 q 341 685 360 693 q 309 662 323 676 q 286 629 294 648 q 278 589 278 610 q 286 548 278 567 q 309 515 294 530 q 341 493 323 501 q 382 485 360 485 q 422 493 403 485 q 455 515 441 501 q 478 548 469 530 q 486 589 486 567 q 478 629 486 610 q 455 662 469 648 q 422 685 441 676 q 382 693 403 693 m 382 196 q 341 188 360 196 q 309 165 323 179 q 286 132 294 151 q 278 92 278 113 q 286 51 278 70 q 309 18 294 33 q 341 -4 323 4 q 382 -12 360 -12 q 422 -4 403 -12 q 455 18 441 4 q 478 51 469 33 q 486 92 486 70 q 478 132 486 113 q 455 165 469 151 q 422 188 441 179 q 382 196 403 196 "},".":{"ha":764,"x_min":264,"x_max":489,"o":"m 376 214 q 332 205 353 214 q 297 180 312 196 q 273 144 281 165 q 264 100 264 123 q 273 56 264 77 q 297 21 281 36 q 332 -3 312 5 q 376 -12 353 -12 q 420 -3 399 -12 q 456 21 441 5 q 480 56 471 36 q 489 100 489 77 q 480 144 489 123 q 456 180 471 165 q 420 205 441 196 q 376 214 399 214 "},"…":{"ha":764,"x_min":40,"x_max":724,"o":"m 201 69 q 195 101 201 86 q 179 127 189 117 q 153 145 168 138 q 121 151 138 151 q 88 145 103 151 q 63 127 73 138 q 46 101 52 116 q 40 69 40 86 q 46 37 40 52 q 63 12 52 22 q 88 -6 73 1 q 121 -12 103 -12 q 153 -6 138 -12 q 179 12 168 1 q 195 38 189 23 q 201 69 201 53 m 463 69 q 456 101 463 86 q 440 127 450 117 q 414 145 429 138 q 382 151 399 151 q 349 145 364 151 q 324 127 334 138 q 307 101 313 116 q 301 69 301 86 q 307 37 301 52 q 324 12 313 22 q 349 -6 334 1 q 382 -12 364 -12 q 414 -6 399 -12 q 440 12 429 1 q 456 38 450 23 q 463 69 463 53 m 724 69 q 718 101 724 86 q 701 127 711 117 q 675 145 690 138 q 643 151 661 151 q 610 145 625 151 q 585 127 595 138 q 568 101 574 116 q 562 69 562 86 q 568 37 562 52 q 585 12 574 22 q 610 -6 595 1 q 643 -12 625 -12 q 675 -6 661 -12 q 701 12 690 1 q 718 38 711 23 q 724 69 724 53 "},"-":{"ha":764,"x_min":179,"x_max":585,"o":"m 585 314 l 585 425 l 179 425 l 179 314 l 585 314 "},"!":{"ha":764,"x_min":290,"x_max":469,"o":"m 452 958 l 309 958 l 329 260 l 433 260 l 452 958 m 380 167 q 345 160 361 167 q 317 140 329 153 q 297 112 304 128 q 290 77 290 95 q 297 42 290 58 q 317 14 304 26 q 345 -5 329 2 q 380 -12 361 -12 q 415 -5 399 -12 q 443 14 431 2 q 462 42 455 26 q 469 77 469 58 q 462 112 469 95 q 443 140 455 128 q 415 160 431 153 q 380 167 399 167 "},"¡":{"ha":764,"x_min":294,"x_max":473,"o":"m 313 -278 l 456 -278 l 435 421 l 330 421 l 313 -278 m 383 514 q 418 521 402 514 q 447 541 435 528 q 466 569 459 553 q 473 604 473 585 q 466 639 473 623 q 447 667 459 655 q 418 686 435 679 q 383 693 402 693 q 349 686 365 693 q 321 667 333 679 q 301 639 309 655 q 294 604 294 623 q 301 569 294 585 q 321 541 309 553 q 349 521 333 528 q 383 514 365 514 "},"?":{"ha":764,"x_min":205,"x_max":625,"o":"m 625 657 q 615 727 625 691 q 582 795 604 762 q 527 859 560 829 q 450 910 494 888 q 349 945 406 932 q 224 958 292 958 l 205 958 l 205 852 l 222 852 q 333 839 282 852 q 420 799 383 825 q 477 734 456 772 q 497 646 497 695 q 490 593 497 616 q 465 553 482 570 q 420 528 448 537 q 351 519 393 519 l 272 519 l 281 260 l 382 260 l 387 427 q 564 491 503 434 q 625 657 625 547 m 330 167 q 296 160 312 167 q 267 140 279 153 q 248 112 255 128 q 241 77 241 95 q 248 42 241 58 q 267 14 255 26 q 296 -5 279 2 q 330 -12 312 -12 q 366 -5 349 -12 q 394 14 382 2 q 412 42 406 26 q 419 77 419 58 q 412 112 419 95 q 394 140 406 128 q 366 160 382 153 q 330 167 349 167 "},"¿":{"ha":764,"x_min":138,"x_max":557,"o":"m 138 24 q 148 -46 138 -10 q 180 -115 159 -81 q 235 -178 202 -149 q 313 -230 268 -208 q 414 -265 357 -252 q 539 -278 471 -278 l 557 -278 l 557 -172 l 541 -172 q 430 -158 481 -172 q 343 -118 380 -144 q 286 -53 307 -92 q 265 35 265 -15 q 273 88 265 64 q 297 127 280 111 q 342 153 314 144 q 411 161 370 161 l 490 161 l 482 421 l 380 421 l 375 254 q 199 190 260 247 q 138 24 138 133 m 432 514 q 467 521 451 514 q 495 541 484 528 q 514 569 507 553 q 521 604 521 585 q 514 639 521 623 q 495 667 507 655 q 467 686 484 679 q 432 693 451 693 q 397 686 413 693 q 369 667 380 679 q 350 639 357 655 q 343 604 343 623 q 350 569 343 585 q 369 541 357 553 q 397 521 380 528 q 432 514 413 514 "},"‽":{"ha":764,"x_min":133,"x_max":628,"o":"m 298 167 q 264 160 280 167 q 235 140 248 153 q 216 112 223 128 q 210 77 210 95 q 216 42 210 58 q 235 14 223 26 q 264 -5 248 2 q 298 -12 280 -12 q 334 -5 317 -12 q 362 14 350 2 q 380 42 374 26 q 387 77 387 58 q 380 112 387 95 q 362 140 374 128 q 334 160 350 153 q 298 167 317 167 m 364 831 q 424 799 390 821 q 482 738 458 777 q 506 646 506 698 q 497 590 506 616 q 470 548 488 565 q 423 522 451 531 q 357 512 395 513 l 364 831 m 367 940 l 370 1087 l 227 1087 l 231 958 q 151 958 197 958 l 133 958 l 133 852 l 150 852 q 233 851 197 852 l 248 260 l 352 260 l 355 415 q 565 483 503 423 q 628 657 628 542 q 617 727 628 691 q 584 795 606 762 q 528 859 562 829 q 453 908 494 888 q 367 940 412 928 "},"‘":{"ha":764,"x_min":275,"x_max":603,"o":"m 603 873 l 603 966 q 459 943 521 966 q 357 879 398 919 q 296 787 316 840 q 275 679 275 735 q 285 608 275 638 q 312 557 295 577 q 350 527 328 536 q 396 517 372 517 q 437 525 420 517 q 466 546 454 533 q 482 574 477 559 q 488 604 488 590 q 478 649 488 632 q 456 682 468 667 q 434 714 444 696 q 424 760 424 731 q 439 810 424 788 q 478 846 454 831 q 536 867 503 861 q 603 873 568 874 "},"’":{"ha":764,"x_min":161,"x_max":489,"o":"m 161 610 l 161 517 q 304 541 243 517 q 407 604 366 564 q 468 696 448 644 q 489 804 489 748 q 479 876 489 846 q 453 927 469 907 q 414 957 436 947 q 368 966 392 966 q 327 958 345 966 q 299 937 310 950 q 282 909 288 924 q 277 879 277 894 q 287 834 277 851 q 309 802 296 817 q 331 770 321 787 q 340 724 340 752 q 326 673 340 695 q 286 637 311 652 q 229 615 261 623 q 161 610 196 608 "},"“":{"ha":764,"x_min":71,"x_max":725,"o":"m 370 879 l 370 966 q 240 944 296 966 q 147 884 184 922 q 90 799 109 847 q 71 697 71 750 q 80 630 71 659 q 104 583 89 602 q 140 554 120 564 q 183 545 161 545 q 222 552 205 545 q 249 572 238 560 q 264 598 259 584 q 269 627 269 613 q 260 669 269 653 q 241 699 252 685 q 221 730 230 713 q 212 772 212 746 q 226 819 212 799 q 261 853 239 840 q 312 873 283 867 q 370 879 340 880 m 725 879 l 725 966 q 596 944 652 966 q 502 884 540 922 q 446 799 465 847 q 427 697 427 750 q 436 630 427 659 q 460 583 445 602 q 496 554 476 564 q 539 545 517 545 q 578 552 562 545 q 605 572 594 560 q 620 598 615 584 q 625 627 625 613 q 616 669 625 653 q 597 699 608 685 q 577 730 586 713 q 568 772 568 746 q 582 819 568 799 q 617 853 595 840 q 667 873 639 867 q 725 879 695 880 "},"”":{"ha":764,"x_min":39,"x_max":693,"o":"m 395 632 l 395 545 q 524 567 468 545 q 617 627 579 589 q 674 712 654 664 q 693 814 693 761 q 684 881 693 852 q 659 929 675 910 q 623 957 644 947 q 581 966 603 966 q 542 959 558 966 q 515 939 526 951 q 499 913 505 927 q 494 885 494 899 q 503 842 494 859 q 523 812 512 826 q 543 782 534 798 q 551 739 551 766 q 538 692 551 713 q 503 658 524 671 q 452 637 481 644 q 395 632 424 631 m 39 632 l 39 545 q 168 567 112 545 q 261 627 224 589 q 318 712 299 664 q 338 814 338 761 q 329 881 338 852 q 304 929 319 910 q 268 957 288 947 q 225 966 248 966 q 186 959 203 966 q 160 939 170 951 q 144 913 149 927 q 139 885 139 899 q 148 842 139 859 q 168 812 157 826 q 187 782 178 798 q 196 739 196 766 q 182 692 196 713 q 147 658 169 671 q 97 637 125 644 q 39 632 68 631 "},"‚":{"ha":764,"x_min":161,"x_max":489,"o":"m 161 -139 l 161 -232 q 304 -208 243 -232 q 407 -144 366 -184 q 468 -53 448 -104 q 489 56 489 -1 q 479 127 489 97 q 453 178 469 158 q 414 209 436 199 q 368 218 392 218 q 327 210 345 218 q 299 189 310 202 q 282 161 288 176 q 277 131 277 145 q 287 85 277 102 q 309 54 296 68 q 331 21 321 39 q 340 -25 340 3 q 326 -75 340 -53 q 286 -111 311 -96 q 229 -133 261 -125 q 161 -139 196 -140 "},"„":{"ha":764,"x_min":39,"x_max":693,"o":"m 395 -134 l 395 -221 q 524 -199 468 -221 q 617 -139 579 -176 q 674 -53 654 -101 q 693 49 693 -4 q 684 116 693 87 q 659 163 675 144 q 623 192 644 182 q 581 201 603 201 q 542 194 558 201 q 515 174 526 186 q 499 148 505 162 q 494 119 494 133 q 503 77 494 93 q 523 47 512 61 q 543 16 534 33 q 551 -26 551 0 q 538 -73 551 -53 q 503 -107 524 -94 q 452 -128 481 -121 q 395 -134 424 -135 m 39 -134 l 39 -221 q 168 -199 112 -221 q 261 -139 224 -176 q 318 -53 299 -101 q 338 49 338 -4 q 329 116 338 87 q 304 163 319 144 q 268 192 288 182 q 225 201 248 201 q 186 194 203 201 q 160 174 170 186 q 144 148 149 162 q 139 119 139 133 q 148 77 139 93 q 168 47 157 61 q 187 16 178 33 q 196 -26 196 0 q 182 -73 196 -53 q 147 -107 169 -94 q 97 -128 125 -121 q 39 -134 68 -135 "},"‹":{"ha":764,"x_min":195,"x_max":530,"o":"m 530 606 l 439 672 l 195 370 l 439 66 l 530 133 l 331 370 l 530 606 "},"›":{"ha":764,"x_min":234,"x_max":568,"o":"m 234 132 l 325 66 l 568 369 l 325 672 l 234 606 l 433 369 l 234 132 "},"«":{"ha":764,"x_min":97,"x_max":659,"o":"m 366 595 l 272 642 l 97 368 l 272 93 l 366 140 l 218 368 l 366 595 m 659 590 l 568 639 l 382 368 l 568 97 l 659 146 l 500 368 l 659 590 "},"»":{"ha":764,"x_min":106,"x_max":667,"o":"m 399 140 l 492 93 l 667 368 l 492 642 l 399 595 l 546 368 l 399 140 m 106 146 l 196 97 l 382 368 l 196 639 l 106 590 l 264 368 l 106 146 "},"/":{"ha":764,"x_min":78,"x_max":656,"o":"m 656 958 l 543 958 l 78 -146 l 191 -146 l 656 958 "},"|":{"ha":764,"x_min":326,"x_max":437,"o":"m 437 -278 l 437 1111 l 326 1111 l 326 -278 l 437 -278 "},"–":{"ha":764,"x_min":90,"x_max":673,"o":"m 673 318 l 673 421 l 90 421 l 90 318 l 673 318 "},"—":{"ha":764,"x_min":-3,"x_max":766,"o":"m 766 318 l 766 421 l -3 421 l -3 318 l 766 318 "},"―":{"ha":764,"x_min":-3,"x_max":766,"o":"m 766 318 l 766 421 l -3 421 l -3 318 l 766 318 "},"•":{"ha":764,"x_min":175,"x_max":589,"o":"m 382 590 q 301 574 339 590 q 236 529 264 557 q 191 464 208 501 q 175 383 175 426 q 191 303 175 340 q 236 237 208 265 q 301 193 264 209 q 382 176 339 176 q 462 193 425 176 q 528 237 500 209 q 572 303 556 265 q 589 383 589 340 q 572 464 589 426 q 528 529 556 501 q 462 574 500 557 q 382 590 425 590 "},"·":{"ha":764,"x_min":269,"x_max":494,"o":"m 382 497 q 338 488 358 497 q 302 464 317 479 q 278 427 287 448 q 269 383 269 406 q 278 340 269 360 q 302 304 287 319 q 338 280 317 289 q 382 271 358 271 q 426 280 405 271 q 461 304 446 289 q 486 340 477 319 q 494 383 494 360 q 486 427 494 406 q 461 464 477 448 q 426 488 446 479 q 382 497 405 497 "},"(":{"ha":764,"x_min":203,"x_max":587,"o":"m 516 -285 l 587 -212 q 391 62 457 -83 q 324 364 324 207 q 587 940 324 680 l 519 1010 q 371 847 432 929 q 274 683 311 765 q 220 519 237 601 q 203 355 203 437 q 516 -285 203 5 "},")":{"ha":764,"x_min":176,"x_max":560,"o":"m 248 1010 l 176 937 q 439 357 439 680 q 374 58 439 201 q 176 -215 309 -84 l 245 -285 q 398 -115 337 -199 q 494 53 458 -30 q 545 214 530 135 q 560 366 560 292 q 248 1010 560 720 "},"[":{"ha":764,"x_min":234,"x_max":568,"o":"m 568 -278 l 568 -183 l 347 -183 l 347 887 l 568 887 l 568 982 l 234 982 l 234 -278 l 568 -278 "},"]":{"ha":764,"x_min":195,"x_max":530,"o":"m 530 -278 l 530 982 l 195 982 l 195 887 l 416 887 l 416 -183 l 195 -183 l 195 -278 l 530 -278 "},"{":{"ha":764,"x_min":110,"x_max":608,"o":"m 608 -278 l 608 -183 l 568 -183 q 412 -28 412 -183 l 412 204 q 268 390 412 376 q 411 576 411 411 l 411 734 q 568 887 411 887 l 608 887 l 608 982 l 558 982 q 438 965 487 982 q 358 915 389 947 q 313 837 327 883 q 300 734 300 791 l 300 574 q 293 513 300 538 q 269 470 286 487 q 220 446 251 454 q 139 437 189 437 l 110 437 l 110 343 l 139 343 q 217 334 186 343 q 266 306 248 324 q 292 262 285 288 q 300 203 300 236 l 300 -31 q 363 -217 300 -155 q 558 -278 427 -278 l 608 -278 "},"}":{"ha":764,"x_min":155,"x_max":654,"o":"m 155 982 l 155 887 l 196 887 q 351 732 351 887 l 351 576 q 496 390 351 406 q 353 204 353 370 l 353 -31 q 196 -183 353 -183 l 155 -183 l 155 -278 l 205 -278 q 326 -261 277 -278 q 406 -211 376 -243 q 450 -133 437 -179 q 464 -31 464 -87 l 464 207 q 471 268 464 242 q 495 310 477 294 q 544 335 513 327 q 625 343 576 343 l 654 343 l 654 437 l 625 437 q 547 447 578 437 q 497 474 516 456 q 471 518 479 492 q 464 578 464 545 l 464 734 q 400 921 464 859 q 205 982 336 982 l 155 982 "},"*":{"ha":764,"x_min":111,"x_max":653,"o":"m 652 570 l 444 669 l 653 772 l 606 856 l 414 726 l 431 958 l 334 958 l 350 726 l 158 854 l 111 775 l 319 671 l 111 568 l 154 489 l 349 615 l 334 383 l 431 383 l 415 615 l 606 489 l 652 570 "},"†":{"ha":764,"x_min":122,"x_max":642,"o":"m 642 679 l 642 778 l 440 778 l 440 958 l 323 958 l 323 778 l 122 778 l 122 679 l 323 679 l 323 172 l 440 172 l 440 679 l 642 679 "},"‡":{"ha":764,"x_min":122,"x_max":642,"o":"m 122 679 l 323 679 l 323 288 l 122 288 l 122 189 l 323 189 l 323 0 l 440 0 l 440 189 l 642 189 l 642 288 l 440 288 l 440 679 l 642 679 l 642 778 l 440 778 l 440 958 l 323 958 l 323 778 l 122 778 l 122 679 "},"§":{"ha":764,"x_min":96,"x_max":672,"o":"m 553 161 q 604 201 581 178 q 641 249 626 223 q 664 301 656 274 q 672 355 672 328 q 655 436 672 400 q 612 503 639 473 q 550 559 585 534 q 479 606 515 584 q 408 648 443 628 q 347 687 374 667 q 303 727 319 707 q 286 770 286 747 q 294 810 286 791 q 320 841 302 828 q 368 862 338 854 q 441 869 397 869 q 517 865 479 869 q 597 848 555 860 l 597 950 q 444 966 522 966 q 309 946 363 966 q 222 895 254 926 q 177 828 191 865 q 164 760 164 792 q 180 695 164 723 q 215 652 195 668 q 163 611 185 634 q 125 563 140 589 q 103 511 111 538 q 96 457 96 484 q 112 377 96 413 q 156 311 129 341 q 218 256 184 281 q 290 209 253 231 q 361 167 326 186 q 423 128 395 147 q 467 90 450 109 q 484 47 484 70 q 443 -30 484 -2 q 317 -58 401 -58 q 263 -57 288 -58 q 214 -51 237 -55 q 166 -41 190 -47 q 118 -26 143 -35 l 118 -135 q 163 -145 141 -141 q 208 -153 184 -150 q 259 -157 232 -155 q 321 -158 286 -158 q 419 -146 369 -158 q 511 -107 470 -134 q 579 -41 553 -81 q 606 56 606 -1 q 590 116 606 88 q 553 161 574 144 m 472 222 q 382 277 429 250 q 298 332 336 303 q 235 394 260 361 q 211 468 211 427 q 216 499 211 482 q 232 533 222 516 q 258 565 243 550 q 294 590 274 580 q 383 535 336 562 q 468 481 429 509 q 532 420 507 453 q 557 346 557 387 q 551 314 557 332 q 535 280 546 297 q 509 248 524 263 q 472 222 493 233 "},"¶":{"ha":764,"x_min":74,"x_max":676,"o":"m 444 387 l 444 861 l 558 861 l 558 135 q 514 -9 558 39 q 392 -57 469 -57 q 296 -37 342 -57 q 214 14 250 -18 l 153 -75 q 260 -136 202 -115 q 386 -158 319 -158 q 507 -138 453 -158 q 598 -81 561 -119 q 656 12 636 -43 q 676 139 676 68 l 676 958 l 441 958 q 277 936 347 958 q 163 876 208 914 q 96 785 118 837 q 74 675 74 734 q 92 563 74 616 q 154 472 111 511 q 268 410 197 433 q 444 387 339 387 "},"Α":{"ha":764,"x_min":7,"x_max":757,"o":"m 757 0 l 467 886 l 301 886 l 7 0 l 132 0 l 195 193 l 564 193 l 625 0 l 757 0 m 529 301 l 229 301 l 379 775 l 529 301 "},"Β":{"ha":764,"x_min":107,"x_max":689,"o":"m 689 265 q 675 345 689 309 q 636 406 661 380 q 579 448 612 431 q 511 471 547 464 q 623 547 589 496 q 657 671 657 599 q 361 886 657 886 l 107 886 l 107 0 l 339 0 q 483 18 418 0 q 594 69 548 35 q 664 152 640 103 q 689 265 689 201 m 532 654 q 518 589 532 616 q 481 543 505 562 q 424 516 457 525 q 349 507 390 507 l 228 507 l 228 785 l 353 785 q 440 774 406 785 q 495 747 475 764 q 524 706 515 730 q 532 654 532 682 m 561 261 q 510 140 561 179 q 355 102 459 102 l 228 102 l 228 407 l 351 407 q 439 397 400 407 q 505 368 478 387 q 547 322 532 349 q 561 261 561 295 "},"Γ":{"ha":764,"x_min":158,"x_max":668,"o":"m 281 783 l 668 783 l 668 886 l 158 886 l 158 0 l 281 0 l 281 783 "},"Δ":{"ha":764,"x_min":37,"x_max":726,"o":"m 37 103 l 37 0 l 726 0 l 726 103 l 467 886 l 304 886 l 37 103 m 589 113 l 168 113 l 379 775 l 589 113 "},"Ε":{"ha":764,"x_min":136,"x_max":640,"o":"m 640 0 l 640 103 l 257 103 l 257 408 l 625 408 l 625 510 l 257 510 l 257 785 l 640 785 l 640 886 l 136 886 l 136 0 l 640 0 "},"Ζ":{"ha":764,"x_min":75,"x_max":688,"o":"m 679 791 l 679 886 l 87 886 l 87 777 l 530 777 l 75 90 l 75 0 l 688 0 l 688 113 l 227 113 l 679 791 "},"Η":{"ha":764,"x_min":75,"x_max":689,"o":"m 689 0 l 689 886 l 568 886 l 568 511 l 196 511 l 196 886 l 75 886 l 75 0 l 196 0 l 196 407 l 568 407 l 568 0 l 689 0 "},"Θ":{"ha":764,"x_min":34,"x_max":730,"o":"m 730 449 q 708 637 730 553 q 644 778 687 720 q 537 867 602 836 q 388 899 473 899 q 253 871 317 899 q 140 787 189 844 q 62 644 91 730 q 34 439 34 557 q 55 250 34 334 q 119 108 76 166 q 225 19 161 50 q 374 -12 289 -12 q 510 15 446 -12 q 623 99 574 43 q 701 243 672 156 q 730 449 730 330 m 605 440 q 591 305 605 368 q 550 195 578 242 q 480 120 522 148 q 381 93 438 93 q 281 119 323 93 q 212 191 239 144 q 172 302 185 237 q 159 446 159 367 q 172 580 159 517 q 213 691 186 644 q 282 766 241 739 q 381 793 324 793 q 483 768 440 793 q 552 695 525 742 q 592 583 579 648 q 605 440 605 518 m 253 408 l 511 408 l 511 510 l 253 510 l 253 408 "},"Ι":{"ha":764,"x_min":117,"x_max":647,"o":"m 321 785 l 321 103 l 117 103 l 117 0 l 647 0 l 647 103 l 443 103 l 443 785 l 647 785 l 647 886 l 117 886 l 117 785 l 321 785 "},"Κ":{"ha":764,"x_min":106,"x_max":710,"o":"m 710 0 l 345 465 l 694 886 l 551 886 l 227 475 l 227 886 l 106 886 l 106 0 l 227 0 l 227 435 l 558 0 l 710 0 "},"Λ":{"ha":764,"x_min":3,"x_max":761,"o":"m 3 0 l 132 0 l 323 597 l 379 772 l 433 597 l 625 0 l 761 0 l 467 886 l 304 886 l 3 0 "},"Μ":{"ha":764,"x_min":33,"x_max":730,"o":"m 730 0 l 688 886 l 541 886 l 415 553 l 378 440 l 339 553 l 220 886 l 77 886 l 33 0 l 147 0 l 163 543 l 165 765 l 207 628 l 332 289 l 415 289 l 546 642 l 587 765 l 595 553 l 612 0 l 730 0 "},"Ν":{"ha":764,"x_min":81,"x_max":684,"o":"m 684 0 l 684 886 l 571 886 l 571 635 l 571 160 l 482 363 l 236 886 l 81 886 l 81 0 l 193 0 l 193 283 l 193 730 l 268 553 l 526 0 l 684 0 "},"Ξ":{"ha":764,"x_min":118,"x_max":646,"o":"m 600 406 l 600 513 l 164 513 l 164 406 l 600 406 m 640 779 l 640 886 l 123 886 l 123 779 l 640 779 m 118 0 l 646 0 l 646 109 l 118 109 l 118 0 "},"Ο":{"ha":764,"x_min":39,"x_max":726,"o":"m 726 449 q 706 637 726 553 q 643 778 685 720 q 537 867 601 836 q 389 899 474 899 q 254 871 317 899 q 142 787 190 844 q 66 644 94 730 q 39 439 39 557 q 59 250 39 334 q 121 108 79 166 q 226 19 163 50 q 375 -12 290 -12 q 510 15 446 -12 q 622 99 574 43 q 698 243 670 156 q 726 449 726 330 m 601 440 q 588 305 601 368 q 548 195 575 242 q 480 120 522 148 q 382 93 439 93 q 282 119 323 93 q 215 191 241 144 q 176 302 189 237 q 164 446 164 367 q 177 580 164 517 q 216 691 190 644 q 284 765 243 738 q 382 793 325 793 q 483 767 441 793 q 551 694 524 741 q 589 583 577 648 q 601 440 601 518 "},"Π":{"ha":764,"x_min":79,"x_max":684,"o":"m 684 0 l 684 886 l 79 886 l 79 0 l 200 0 l 200 782 l 564 782 l 564 0 l 684 0 "},"Ρ":{"ha":764,"x_min":107,"x_max":689,"o":"m 689 615 q 662 741 689 689 q 589 825 635 792 q 483 872 543 857 q 357 886 422 886 l 107 886 l 107 0 l 228 0 l 228 318 l 338 318 q 496 344 430 318 q 606 412 563 370 q 669 508 648 454 q 689 615 689 561 m 564 610 q 506 468 564 515 q 340 421 448 421 l 228 421 l 228 786 l 351 786 q 508 741 452 786 q 564 610 564 695 "},"Σ":{"ha":764,"x_min":75,"x_max":688,"o":"m 232 113 l 522 469 l 259 777 l 679 777 l 679 886 l 87 886 l 87 793 l 372 460 l 75 95 l 75 0 l 688 0 l 688 113 l 232 113 "},"Τ":{"ha":764,"x_min":58,"x_max":705,"o":"m 705 783 l 705 886 l 58 886 l 58 783 l 321 783 l 321 0 l 443 0 l 443 783 l 705 783 "},"Υ":{"ha":764,"x_min":0,"x_max":764,"o":"m 764 886 l 625 886 l 447 550 l 387 432 l 322 562 l 146 886 l 0 886 l 321 319 l 321 0 l 443 0 l 443 317 l 764 886 "},"Φ":{"ha":764,"x_min":0,"x_max":737,"o":"m 437 -57 l 437 22 q 554 60 500 31 q 650 141 609 89 q 714 269 690 193 q 737 449 737 346 q 719 617 737 543 q 663 745 701 692 q 570 828 626 798 q 437 865 513 859 l 437 943 l 326 943 l 326 864 q 210 827 264 856 q 115 746 155 798 q 51 617 75 694 q 28 439 28 541 q 46 270 28 345 q 101 141 64 195 q 194 58 138 88 q 326 21 250 27 l 326 -57 l 437 -57 m 326 762 l 326 123 q 244 157 278 131 q 188 225 210 183 q 156 322 166 267 q 146 446 146 378 q 156 561 146 507 q 189 657 167 615 q 245 727 212 699 q 326 762 279 755 m 437 123 l 437 762 q 520 729 486 755 q 577 661 555 703 q 609 563 599 618 q 619 440 619 507 q 608 325 619 379 q 575 229 597 271 q 518 159 553 186 q 437 123 484 132 m 0 886 "},"Χ":{"ha":764,"x_min":12,"x_max":747,"o":"m 747 0 l 453 458 l 725 886 l 586 886 l 382 553 l 179 886 l 36 886 l 307 453 l 12 0 l 163 0 l 379 358 l 595 0 l 747 0 "},"Ψ":{"ha":764,"x_min":43,"x_max":721,"o":"m 440 0 l 440 264 q 558 296 506 272 q 647 360 610 321 q 702 452 683 399 q 721 571 721 505 l 721 886 l 603 886 l 603 564 q 561 427 603 477 q 440 364 519 378 l 440 886 l 323 886 l 323 364 q 201 424 241 376 q 161 562 161 472 l 161 886 l 43 886 l 43 553 q 59 438 43 490 q 110 350 76 387 q 197 291 144 313 q 323 262 250 269 l 323 0 l 440 0 "},"Ω":{"ha":764,"x_min":29,"x_max":734,"o":"m 734 0 l 734 98 l 562 98 q 687 250 650 157 q 725 469 725 343 q 705 645 725 566 q 644 781 686 724 q 539 868 603 837 q 386 899 475 899 q 252 872 315 899 q 141 792 189 846 q 66 656 94 739 q 39 461 39 574 q 78 243 39 334 q 200 98 117 153 l 29 98 l 29 0 l 322 0 l 322 92 q 248 159 278 121 q 199 243 218 197 q 172 344 180 289 q 164 464 164 399 q 177 593 164 532 q 216 698 190 653 q 284 768 243 743 q 382 794 325 794 q 483 769 441 794 q 550 701 524 745 q 588 596 576 657 q 600 464 600 536 q 592 340 600 397 q 566 238 584 284 q 517 154 547 191 q 441 89 486 117 l 441 0 l 734 0 "},"Ά":{"ha":764,"x_min":7,"x_max":854,"o":"m 757 0 l 467 886 l 301 886 l 7 0 l 132 0 l 195 193 l 564 193 l 625 0 l 757 0 m 529 301 l 229 301 l 379 775 l 529 301 m 186 972 l 57 972 l 25 790 l 123 790 l 186 972 m 854 886 "},"Έ":{"ha":764,"x_min":-72,"x_max":758,"o":"m 640 0 l 640 103 l 257 103 l 257 408 l 625 408 l 625 510 l 257 510 l 257 785 l 640 785 l 640 886 l 136 886 l 136 0 l 640 0 m 89 972 l -40 972 l -72 790 l 26 790 l 89 972 m 758 886 "},"Ή":{"ha":764,"x_min":-100,"x_max":730,"o":"m 689 0 l 689 886 l 568 886 l 568 511 l 196 511 l 196 886 l 75 886 l 75 0 l 196 0 l 196 407 l 568 407 l 568 0 l 689 0 m 61 972 l -68 972 l -100 790 l -1 790 l 61 972 m 730 886 "},"Ί":{"ha":764,"x_min":-86,"x_max":743,"o":"m 321 785 l 321 103 l 117 103 l 117 0 l 647 0 l 647 103 l 443 103 l 443 785 l 647 785 l 647 886 l 117 886 l 117 785 l 321 785 m 75 972 l -54 972 l -86 790 l 12 790 l 75 972 m 743 886 "},"Ϊ":{"ha":764,"x_min":0,"x_max":647,"o":"m 321 785 l 321 103 l 117 103 l 117 0 l 647 0 l 647 103 l 443 103 l 443 785 l 647 785 l 647 886 l 117 886 l 117 785 l 321 785 m 233 1125 q 205 1119 218 1125 q 182 1104 192 1114 q 167 1081 173 1095 q 161 1053 161 1067 q 182 1001 161 1022 q 233 981 203 981 q 261 986 248 981 q 284 1002 275 992 q 300 1024 294 1011 q 306 1053 306 1038 q 300 1081 306 1067 q 284 1104 294 1095 q 261 1119 275 1114 q 233 1125 248 1125 m 530 1125 q 502 1119 515 1125 q 479 1104 489 1114 q 464 1081 470 1095 q 458 1053 458 1067 q 479 1001 458 1022 q 530 981 500 981 q 559 986 545 981 q 582 1002 572 992 q 597 1024 591 1011 q 603 1053 603 1038 q 597 1081 603 1067 q 582 1104 591 1095 q 559 1119 572 1114 q 530 1125 545 1125 m 0 886 "},"Ό":{"ha":764,"x_min":-58,"x_max":771,"o":"m 726 449 q 706 637 726 553 q 643 778 685 720 q 537 867 601 836 q 389 899 474 899 q 254 871 317 899 q 142 787 190 844 q 66 644 94 730 q 39 439 39 557 q 59 250 39 334 q 121 108 79 166 q 226 19 163 50 q 375 -12 290 -12 q 510 15 446 -12 q 622 99 574 43 q 698 243 670 156 q 726 449 726 330 m 601 440 q 588 305 601 368 q 548 195 575 242 q 480 120 522 148 q 382 93 439 93 q 282 119 323 93 q 215 191 241 144 q 176 302 189 237 q 164 446 164 367 q 177 580 164 517 q 216 691 190 644 q 284 765 243 738 q 382 793 325 793 q 483 767 441 793 q 551 694 524 741 q 589 583 577 648 q 601 440 601 518 m 102 972 l -26 972 l -58 790 l 40 790 l 102 972 m 771 886 "},"Ύ":{"ha":764,"x_min":-132,"x_max":764,"o":"m 764 886 l 625 886 l 447 550 l 387 432 l 322 562 l 146 886 l 0 886 l 321 319 l 321 0 l 443 0 l 443 317 l 764 886 m 29 972 l -100 972 l -132 790 l -33 790 l 29 972 m 698 886 "},"Ϋ":{"ha":764,"x_min":0,"x_max":764,"o":"m 764 886 l 625 886 l 447 550 l 387 432 l 322 562 l 146 886 l 0 886 l 321 319 l 321 0 l 443 0 l 443 317 l 764 886 m 233 1125 q 205 1119 218 1125 q 182 1104 192 1114 q 167 1081 173 1095 q 161 1053 161 1067 q 182 1001 161 1022 q 233 981 203 981 q 261 986 248 981 q 284 1002 275 992 q 300 1024 294 1011 q 306 1053 306 1038 q 300 1081 306 1067 q 284 1104 294 1095 q 261 1119 275 1114 q 233 1125 248 1125 m 530 1125 q 502 1119 515 1125 q 479 1104 489 1114 q 464 1081 470 1095 q 458 1053 458 1067 q 479 1001 458 1022 q 530 981 500 981 q 559 986 545 981 q 582 1002 572 992 q 597 1024 591 1011 q 603 1053 603 1038 q 597 1081 603 1067 q 582 1104 591 1095 q 559 1119 572 1114 q 530 1125 545 1125 m 0 886 "},"Ώ":{"ha":764,"x_min":-44,"x_max":785,"o":"m 734 0 l 734 98 l 562 98 q 687 250 650 157 q 725 469 725 343 q 705 645 725 566 q 644 781 686 724 q 539 868 603 837 q 386 899 475 899 q 252 872 315 899 q 141 792 189 846 q 66 656 94 739 q 39 461 39 574 q 78 243 39 334 q 200 98 117 153 l 29 98 l 29 0 l 322 0 l 322 92 q 248 159 278 121 q 199 243 218 197 q 172 344 180 289 q 164 464 164 399 q 177 593 164 532 q 216 698 190 653 q 284 768 243 743 q 382 794 325 794 q 483 769 441 794 q 550 701 524 745 q 588 596 576 657 q 600 464 600 536 q 592 340 600 397 q 566 238 584 284 q 517 154 547 191 q 441 89 486 117 l 441 0 l 734 0 m 117 972 l -12 972 l -44 790 l 54 790 l 117 972 m 785 886 "},"α":{"ha":764,"x_min":54,"x_max":737,"o":"m 54 330 q 71 191 54 254 q 119 83 87 128 q 201 13 152 38 q 317 -12 250 -12 q 458 28 399 -12 q 550 142 516 68 q 571 73 559 103 q 603 25 583 43 q 656 -1 624 6 q 737 0 688 -7 l 737 97 q 657 146 683 90 q 631 319 631 202 l 631 328 l 696 681 l 590 681 l 566 534 q 531 602 553 572 q 480 652 509 631 q 416 683 451 672 q 343 693 382 693 q 227 668 279 693 q 135 596 174 643 q 76 481 97 549 q 54 330 54 414 m 175 338 q 186 444 175 397 q 219 523 197 490 q 273 574 241 556 q 346 591 304 591 q 417 573 386 591 q 470 522 448 555 q 502 444 491 489 q 513 346 513 399 l 513 334 q 499 237 513 281 q 463 159 486 192 q 408 108 439 126 q 340 90 377 90 q 217 152 258 90 q 175 338 175 214 "},"β":{"ha":764,"x_min":109,"x_max":701,"o":"m 701 290 q 688 380 701 338 q 650 454 674 422 q 591 507 625 486 q 515 532 557 527 q 566 554 543 536 q 607 599 590 572 q 634 659 625 626 q 644 728 644 692 q 628 821 644 777 q 578 897 611 864 q 498 948 546 929 q 389 966 450 966 q 266 944 318 966 q 178 885 213 922 q 126 798 143 848 q 109 693 109 748 l 109 -278 l 227 -278 l 227 35 q 301 4 260 17 q 395 -8 342 -8 q 520 14 463 -8 q 617 76 576 37 q 679 171 657 116 q 701 290 701 226 m 227 145 l 227 688 q 237 762 227 728 q 267 818 248 795 q 316 853 287 841 q 382 866 345 866 q 442 855 416 866 q 487 824 469 844 q 515 777 505 804 q 525 718 525 749 q 516 659 525 686 q 488 610 507 631 q 439 577 469 589 q 368 565 410 565 l 326 565 l 326 463 l 383 463 q 475 450 437 463 q 536 412 513 436 q 570 356 559 389 q 581 285 581 323 q 567 198 581 234 q 528 139 553 163 q 470 105 504 116 q 396 94 436 94 q 307 108 349 94 q 227 145 264 122 "},"γ":{"ha":764,"x_min":43,"x_max":677,"o":"m 343 317 q 297 456 319 397 q 255 555 275 515 q 218 622 235 596 q 183 661 201 647 q 145 680 165 675 q 102 685 125 685 q 43 681 77 685 l 43 581 q 54 582 50 582 q 66 583 58 583 q 100 574 86 583 q 133 534 115 565 q 174 443 151 503 q 227 286 197 384 q 262 145 250 203 q 284 38 275 87 q 300 -71 293 -12 q 307 -198 307 -130 l 307 -278 l 425 -278 l 425 -198 q 424 -155 425 -178 q 422 -111 423 -132 q 419 -72 420 -90 q 416 -45 418 -54 q 535 153 488 64 q 613 329 582 241 q 661 503 645 416 q 677 681 677 589 l 557 681 q 555 547 562 612 q 529 412 548 481 q 477 267 509 342 q 395 102 444 192 q 371 217 383 166 q 343 317 358 269 "},"δ":{"ha":764,"x_min":74,"x_max":685,"o":"m 304 663 q 220 617 261 646 q 146 544 180 589 q 94 441 113 498 q 74 313 74 383 q 93 187 74 247 q 149 83 111 127 q 242 13 186 38 q 374 -12 298 -12 q 481 2 434 -12 q 562 42 528 16 q 620 100 597 68 q 658 169 644 132 q 679 245 673 206 q 685 319 685 284 q 677 404 685 366 q 649 481 669 441 q 595 559 628 521 q 506 646 562 597 l 414 725 q 384 752 397 740 q 363 775 371 764 q 351 798 355 787 q 347 822 347 809 q 368 856 347 843 q 438 868 389 868 q 618 845 517 868 l 618 947 q 442 966 524 966 q 349 955 391 966 q 278 924 306 944 q 236 876 250 905 q 222 815 222 848 q 242 737 222 772 q 304 663 262 702 m 385 593 l 433 553 q 495 490 471 520 q 535 430 519 460 q 556 371 551 399 q 561 313 561 343 q 550 219 561 257 q 518 151 539 180 q 464 105 496 122 q 387 89 431 89 q 306 106 341 89 q 245 154 270 123 q 208 228 220 184 q 195 325 195 272 q 211 436 195 390 q 256 515 228 483 q 317 565 285 547 q 385 593 350 583 "},"ε":{"ha":764,"x_min":87,"x_max":673,"o":"m 673 17 l 673 121 q 545 96 604 104 q 439 89 485 89 q 335 97 378 89 q 267 120 293 105 q 228 156 240 135 q 216 201 216 176 q 267 275 216 248 q 428 301 318 301 l 570 301 l 570 399 l 441 399 q 293 424 341 399 q 244 498 244 450 q 253 535 244 518 q 281 565 261 553 q 333 585 301 578 q 414 593 366 593 q 531 584 471 593 q 656 558 591 575 l 656 668 q 535 688 592 683 q 428 693 478 693 q 194 643 269 693 q 119 496 119 593 q 128 452 119 475 q 154 408 136 429 q 198 372 172 387 q 261 350 224 356 q 193 333 224 345 q 138 303 161 322 q 101 255 115 283 q 87 187 87 227 q 106 104 87 141 q 167 42 125 68 q 273 2 208 16 q 428 -12 337 -12 q 547 -5 488 -12 q 673 17 606 2 "},"ζ":{"ha":764,"x_min":107,"x_max":668,"o":"m 107 313 q 122 198 107 249 q 172 108 138 147 q 259 42 205 68 q 390 1 313 16 q 464 -17 435 -7 q 509 -39 493 -27 q 532 -67 526 -52 q 538 -102 538 -83 q 533 -146 538 -125 q 519 -186 528 -167 q 498 -225 510 -205 q 473 -265 486 -244 l 586 -265 q 612 -224 599 -244 q 635 -182 625 -203 q 652 -137 646 -161 q 659 -87 659 -114 q 647 -19 659 -50 q 609 37 636 12 q 536 80 582 61 q 422 114 491 100 q 336 141 372 125 q 276 182 300 157 q 242 240 253 207 q 231 319 231 273 q 260 448 231 385 q 345 578 289 512 q 482 716 400 644 q 668 869 564 788 l 668 958 l 146 958 l 146 858 l 501 858 q 408 784 453 823 q 319 704 362 746 q 238 616 276 662 q 170 522 199 570 q 124 421 140 473 q 107 313 107 369 "},"η":{"ha":764,"x_min":93,"x_max":659,"o":"m 111 360 l 111 0 l 229 0 l 229 452 q 288 519 262 492 q 336 563 314 547 q 379 585 359 578 q 422 591 400 591 q 511 553 481 591 q 541 435 541 515 l 541 -278 l 659 -278 l 659 444 q 605 631 659 569 q 446 693 551 693 q 388 687 416 693 q 333 667 360 682 q 279 630 307 653 q 212 559 251 606 l 201 681 l 93 681 q 99 602 96 644 q 105 518 102 560 q 110 435 108 476 q 111 360 111 395 "},"θ":{"ha":764,"x_min":66,"x_max":697,"o":"m 697 484 q 676 695 697 604 q 614 846 654 785 q 517 936 574 906 q 386 966 459 966 q 250 929 309 966 q 150 825 191 891 q 88 667 109 758 q 66 469 66 576 q 88 258 66 349 q 149 107 109 168 q 247 18 189 47 q 378 -12 304 -12 q 514 25 454 -12 q 614 129 573 62 q 676 286 654 195 q 697 484 697 376 m 576 543 l 189 543 q 207 668 193 609 q 243 771 220 727 q 301 842 267 816 q 382 867 336 867 q 458 849 424 867 q 517 790 492 830 q 557 689 542 751 q 576 543 572 628 m 186 444 l 578 444 q 563 308 575 372 q 527 194 551 243 q 467 116 503 145 q 382 87 431 87 q 302 107 338 87 q 242 172 267 128 q 202 282 217 215 q 186 444 188 350 "},"ι":{"ha":764,"x_min":93,"x_max":671,"o":"m 671 5 l 671 106 q 620 94 648 99 q 564 90 592 90 q 472 123 503 90 q 441 229 441 157 l 441 681 l 93 681 l 93 582 l 323 582 l 323 210 q 340 107 323 149 q 386 40 357 66 q 456 2 416 14 q 546 -9 497 -9 q 613 -6 581 -9 q 671 5 646 -3 "},"κ":{"ha":764,"x_min":123,"x_max":721,"o":"m 721 0 l 384 367 l 703 681 l 547 681 l 241 370 l 241 681 l 123 681 l 123 0 l 241 0 l 241 365 l 559 0 l 721 0 "},"λ":{"ha":764,"x_min":45,"x_max":737,"o":"m 304 758 l 332 681 l 45 0 l 174 0 l 350 437 l 386 533 l 418 437 l 525 134 q 553 68 538 96 q 584 24 567 41 q 623 0 602 7 q 672 -8 644 -8 q 737 0 701 -8 l 737 97 q 724 96 730 96 q 711 96 718 96 q 687 99 697 96 q 668 112 676 103 q 652 136 659 121 q 636 174 644 151 l 416 798 q 375 885 397 852 q 329 936 354 918 q 275 960 304 954 q 212 966 246 966 q 161 962 190 966 q 111 949 133 957 l 111 850 q 154 861 132 857 q 195 865 176 865 q 230 861 214 865 q 258 844 245 856 q 282 811 271 831 q 304 758 293 790 "},"μ":{"ha":764,"x_min":109,"x_max":730,"o":"m 227 681 l 109 681 l 109 -278 l 227 -278 l 227 -77 l 217 41 q 270 2 240 14 q 336 -11 300 -11 q 382 -5 358 -11 q 433 14 406 0 q 487 53 460 28 q 543 117 514 78 q 559 65 549 88 q 585 26 569 42 q 626 2 602 10 q 684 -7 650 -7 q 709 -5 697 -7 q 730 -1 721 -3 l 730 93 l 718 93 q 684 99 698 93 q 662 119 671 105 q 650 156 654 133 q 647 214 647 179 l 647 681 l 529 681 l 529 229 q 475 161 499 188 q 430 119 451 134 q 387 97 408 104 q 345 90 365 90 q 227 248 227 90 l 227 681 "},"ν":{"ha":764,"x_min":47,"x_max":697,"o":"m 47 681 l 307 0 l 428 0 q 518 167 475 82 q 595 337 560 252 q 655 510 629 423 q 697 681 682 596 l 559 681 q 498 401 542 540 q 382 125 454 262 l 345 231 l 182 681 l 47 681 "},"ξ":{"ha":764,"x_min":98,"x_max":659,"o":"m 118 860 l 279 860 q 226 826 250 848 q 183 778 201 805 q 156 720 165 750 q 146 659 146 689 q 154 606 146 632 q 176 559 161 581 q 214 522 191 537 q 265 503 236 507 q 203 472 233 493 q 150 422 174 452 q 113 355 127 392 q 98 275 98 317 q 115 177 98 221 q 167 99 132 133 q 258 40 203 64 q 390 1 313 16 q 464 -17 435 -7 q 509 -39 493 -27 q 532 -67 526 -52 q 538 -102 538 -83 q 533 -146 538 -125 q 519 -186 528 -167 q 498 -225 510 -205 q 473 -265 486 -244 l 586 -265 q 612 -224 599 -244 q 635 -182 625 -203 q 652 -137 646 -161 q 659 -87 659 -114 q 647 -19 659 -50 q 609 37 636 12 q 536 80 582 61 q 422 114 491 100 q 335 138 372 124 q 272 172 297 153 q 235 219 248 192 q 222 282 222 246 q 235 349 222 318 q 273 403 248 380 q 338 439 298 426 q 431 452 377 452 l 591 452 l 591 550 l 429 550 q 302 582 342 550 q 262 675 262 614 q 277 735 262 703 q 326 795 292 768 q 414 842 360 823 q 547 860 469 860 l 623 860 l 623 958 l 118 958 l 118 860 "},"ο":{"ha":764,"x_min":62,"x_max":701,"o":"m 701 346 q 680 495 701 430 q 618 604 659 560 q 520 670 578 648 q 389 693 462 693 q 252 667 312 693 q 149 594 191 641 q 85 481 107 547 q 62 336 62 416 q 84 186 62 252 q 145 77 105 121 q 244 11 186 33 q 375 -12 302 -12 q 512 14 452 -12 q 614 87 572 40 q 679 200 656 134 q 701 346 701 267 m 581 340 q 569 244 581 290 q 534 163 558 198 q 472 108 510 129 q 382 87 435 87 q 299 103 336 87 q 237 151 262 119 q 197 230 211 182 q 183 340 183 277 q 194 436 183 391 q 230 517 205 482 q 291 572 254 551 q 382 593 329 593 q 464 577 427 593 q 527 529 501 561 q 567 451 553 498 q 581 340 581 404 "},"π":{"ha":764,"x_min":29,"x_max":734,"o":"m 734 -3 l 734 97 q 708 92 722 94 q 680 90 694 90 q 646 94 661 90 q 620 114 632 98 q 602 161 608 130 q 594 238 596 193 q 593 305 593 283 q 593 582 593 327 l 728 582 l 728 681 l 29 681 l 29 582 l 159 582 q 155 437 159 508 q 140 294 151 366 q 106 150 129 223 q 43 0 83 77 l 176 0 q 228 150 210 77 q 257 294 247 222 q 271 437 267 366 q 275 582 275 508 l 475 582 q 475 257 475 281 q 479 181 475 233 q 499 85 483 128 q 541 21 515 41 q 597 -5 567 1 q 663 -11 628 -11 q 698 -8 680 -11 q 734 -3 716 -6 "},"ρ":{"ha":764,"x_min":109,"x_max":690,"o":"m 690 353 q 674 488 690 426 q 624 596 659 551 q 536 667 590 642 q 406 693 482 693 q 273 668 329 693 q 180 598 217 642 q 126 494 144 553 q 109 368 109 435 l 109 -278 l 227 -278 l 227 30 q 297 1 255 13 q 383 -10 338 -10 q 500 13 445 -10 q 598 81 556 35 q 666 194 641 126 q 690 353 690 262 m 570 350 q 520 156 570 220 q 384 92 471 92 q 302 106 345 92 q 227 141 260 120 l 227 358 q 273 536 227 479 q 400 593 319 593 q 479 574 447 593 q 532 523 511 555 q 561 445 552 490 q 570 350 570 401 "},"σ":{"ha":764,"x_min":62,"x_max":737,"o":"m 587 583 q 669 579 635 581 q 737 578 702 578 l 737 681 q 650 683 695 681 q 561 687 606 685 q 472 691 516 689 q 389 693 429 693 q 251 667 311 693 q 149 594 191 642 q 84 481 106 547 q 62 335 62 415 q 84 185 62 250 q 145 77 105 121 q 241 11 184 33 q 368 -12 298 -12 q 499 15 442 -12 q 596 89 557 41 q 655 202 635 137 q 675 345 675 267 q 651 484 675 423 q 587 583 626 545 m 454 589 q 529 485 503 551 q 556 339 556 420 q 547 245 556 291 q 516 165 537 200 q 460 109 494 130 q 375 87 425 87 q 296 103 332 87 q 236 151 261 119 q 197 230 211 182 q 183 339 183 277 q 193 429 183 384 q 226 510 203 474 q 287 569 249 546 q 382 591 325 591 q 396 591 389 591 q 413 591 403 591 q 434 590 424 591 q 454 589 444 590 "},"ς":{"ha":764,"x_min":107,"x_max":659,"o":"m 538 -102 q 533 -146 538 -125 q 519 -186 528 -167 q 498 -225 510 -205 q 473 -265 486 -244 l 586 -265 q 612 -224 599 -244 q 635 -182 625 -203 q 652 -137 646 -161 q 659 -87 659 -114 q 648 -18 659 -50 q 610 41 637 13 q 538 85 583 68 q 427 113 493 102 q 324 145 357 125 q 272 191 291 164 q 241 258 252 218 q 231 350 231 298 q 246 450 231 404 q 292 528 262 496 q 365 575 323 559 q 453 590 408 590 q 548 579 502 590 q 637 546 593 569 l 637 659 q 549 683 595 675 q 450 690 503 690 q 309 668 374 690 q 199 599 244 645 q 130 487 153 553 q 107 346 107 422 q 122 215 107 275 q 171 112 137 155 q 255 42 205 68 q 381 4 306 16 q 458 -10 427 -3 q 507 -34 489 -18 q 532 -66 526 -50 q 538 -102 538 -83 "},"τ":{"ha":764,"x_min":43,"x_max":663,"o":"m 635 7 l 635 109 q 566 95 603 100 q 497 90 530 90 q 389 126 421 90 q 357 236 357 163 l 357 582 l 663 582 l 663 681 l 43 681 l 43 582 l 239 582 l 239 227 q 253 123 239 167 q 296 49 267 79 q 370 5 325 20 q 479 -9 416 -9 q 565 -5 524 -9 q 635 7 606 -1 "},"υ":{"ha":764,"x_min":94,"x_max":665,"o":"m 648 681 l 530 681 q 543 532 539 606 q 547 382 547 458 q 533 251 547 306 q 493 159 518 195 q 435 106 469 123 q 363 89 401 89 q 299 99 326 89 q 257 131 273 109 q 233 184 240 152 q 225 256 225 217 q 227 350 225 306 q 228 422 228 394 q 212 681 228 556 l 94 681 q 110 414 110 552 q 109 337 110 378 q 107 248 107 295 q 166 53 107 119 q 353 -12 224 -12 q 485 16 427 -12 q 583 96 543 44 q 644 222 623 149 q 665 387 665 296 q 661 534 665 461 q 648 681 657 607 "},"φ":{"ha":764,"x_min":28,"x_max":737,"o":"m 437 -278 l 437 -9 q 554 22 500 -2 q 650 90 609 46 q 714 196 690 133 q 737 346 737 260 q 719 486 737 424 q 663 591 701 547 q 570 661 626 635 q 437 692 513 686 l 437 958 l 326 958 l 326 692 q 210 660 264 684 q 115 592 155 635 q 51 486 75 549 q 28 338 28 423 q 101 91 28 181 q 326 -9 174 1 l 326 -278 l 437 -278 m 326 595 l 326 87 q 244 115 278 94 q 188 169 210 136 q 156 246 166 201 q 146 343 146 290 q 156 433 146 391 q 189 510 167 476 q 245 566 212 543 q 326 595 279 588 m 437 87 l 437 595 q 520 568 486 589 q 577 513 555 547 q 609 436 599 480 q 619 339 619 392 q 608 248 619 291 q 575 172 597 205 q 518 116 553 138 q 437 87 484 94 "},"χ":{"ha":764,"x_min":37,"x_max":722,"o":"m 579 -96 l 447 215 l 697 681 l 566 681 l 435 424 l 393 339 l 359 424 l 306 551 q 274 616 290 589 q 236 660 257 643 q 188 685 216 677 q 123 693 161 693 q 88 691 106 693 q 54 686 70 690 l 54 586 q 78 590 64 588 q 106 591 92 591 q 135 588 123 591 q 157 574 147 584 q 177 547 168 564 q 197 504 186 530 l 313 231 l 37 -278 l 170 -278 l 327 26 l 366 109 l 404 16 l 471 -143 q 503 -207 486 -180 q 540 -251 519 -234 q 588 -277 561 -269 q 653 -285 615 -285 q 689 -283 671 -285 q 722 -278 707 -281 l 722 -178 q 699 -181 713 -180 q 671 -183 684 -183 q 641 -179 654 -183 q 618 -166 629 -176 q 599 -139 608 -156 q 579 -96 590 -122 "},"ψ":{"ha":764,"x_min":58,"x_max":720,"o":"m 437 -278 l 437 -8 q 563 33 510 2 q 651 115 616 64 q 703 233 686 165 q 720 387 720 302 q 712 534 720 461 q 697 681 705 607 l 586 681 q 602 532 595 606 q 608 382 608 458 q 597 259 608 311 q 565 171 587 207 q 512 114 544 135 q 437 86 479 94 l 437 958 l 326 958 l 326 86 q 208 147 247 96 q 170 301 170 198 l 170 681 l 58 681 l 58 279 q 76 154 58 207 q 127 66 93 101 q 211 12 161 31 q 326 -11 261 -7 l 326 -278 l 437 -278 "},"ω":{"ha":764,"x_min":26,"x_max":737,"o":"m 439 268 l 439 476 l 325 476 l 325 250 q 317 181 325 210 q 298 132 310 151 q 271 103 286 113 q 239 94 255 94 q 198 111 216 94 q 169 158 180 128 q 151 229 157 188 q 144 319 144 271 q 164 526 144 437 q 220 681 184 614 l 92 681 q 45 524 64 614 q 26 321 26 434 q 42 170 26 233 q 84 66 58 106 q 148 7 111 26 q 228 -12 185 -12 q 277 -4 252 -12 q 322 24 301 5 q 358 73 342 43 q 379 144 373 102 q 394 70 382 100 q 426 22 406 40 q 469 -4 445 3 q 521 -12 494 -12 q 610 10 570 -12 q 678 75 650 33 q 722 177 707 117 q 737 313 737 237 q 718 523 737 432 q 671 681 699 614 l 544 681 q 598 528 578 618 q 619 318 619 439 q 594 152 619 210 q 525 94 569 94 q 461 137 483 94 q 439 268 439 179 "},"ά":{"ha":764,"x_min":0,"x_max":737,"o":"m 54 330 q 71 191 54 254 q 119 83 87 128 q 201 13 152 38 q 317 -12 250 -12 q 458 28 399 -12 q 550 142 516 68 q 571 73 559 103 q 603 25 583 43 q 656 -1 624 6 q 737 0 688 -7 l 737 97 q 657 146 683 90 q 631 319 631 202 l 631 328 l 696 681 l 590 681 l 566 534 q 531 602 553 572 q 480 652 509 631 q 416 683 451 672 q 343 693 382 693 q 227 668 279 693 q 135 596 174 643 q 76 481 97 549 q 54 330 54 414 m 175 338 q 186 444 175 397 q 219 523 197 490 q 273 574 241 556 q 346 591 304 591 q 417 573 386 591 q 470 522 448 555 q 502 444 491 489 q 513 346 513 399 l 513 334 q 499 237 513 281 q 463 159 486 192 q 408 108 439 126 q 340 90 377 90 q 217 152 258 90 q 175 338 175 214 m 549 972 l 406 972 l 318 790 l 428 790 l 549 972 m 0 681 "},"έ":{"ha":764,"x_min":28,"x_max":673,"o":"m 673 17 l 673 121 q 545 96 604 104 q 439 89 485 89 q 335 97 378 89 q 267 120 293 105 q 228 156 240 135 q 216 201 216 176 q 267 275 216 248 q 428 301 318 301 l 570 301 l 570 399 l 441 399 q 293 424 341 399 q 244 498 244 450 q 253 535 244 518 q 281 565 261 553 q 333 585 301 578 q 414 593 366 593 q 531 584 471 593 q 656 558 591 575 l 656 668 q 535 688 592 683 q 428 693 478 693 q 194 643 269 693 q 119 496 119 593 q 128 452 119 475 q 154 408 136 429 q 198 372 172 387 q 261 350 224 356 q 193 333 224 345 q 138 303 161 322 q 101 255 115 283 q 87 187 87 227 q 106 104 87 141 q 167 42 125 68 q 273 2 208 16 q 428 -12 337 -12 q 547 -5 488 -12 q 673 17 606 2 m 576 972 l 433 972 l 346 790 l 456 790 l 576 972 m 28 681 "},"ή":{"ha":764,"x_min":28,"x_max":659,"o":"m 111 360 l 111 0 l 229 0 l 229 452 q 288 519 262 492 q 336 563 314 547 q 379 585 359 578 q 422 591 400 591 q 511 553 481 591 q 541 435 541 515 l 541 -278 l 659 -278 l 659 444 q 605 631 659 569 q 446 693 551 693 q 388 687 416 693 q 333 667 360 682 q 279 630 307 653 q 212 559 251 606 l 201 681 l 93 681 q 99 602 96 644 q 105 518 102 560 q 110 435 108 476 q 111 360 111 395 m 576 972 l 433 972 l 346 790 l 456 790 l 576 972 m 28 681 "},"ί":{"ha":764,"x_min":0,"x_max":671,"o":"m 671 5 l 671 106 q 620 94 648 99 q 564 90 592 90 q 472 123 503 90 q 441 229 441 157 l 441 681 l 93 681 l 93 582 l 323 582 l 323 210 q 340 107 323 149 q 386 40 357 66 q 456 2 416 14 q 546 -9 497 -9 q 613 -6 581 -9 q 671 5 646 -3 m 549 972 l 406 972 l 318 790 l 428 790 l 549 972 m 0 681 "},"ϊ":{"ha":764,"x_min":0,"x_max":671,"o":"m 671 5 l 671 106 q 620 94 648 99 q 564 90 592 90 q 472 123 503 90 q 441 229 441 157 l 441 681 l 93 681 l 93 582 l 323 582 l 323 210 q 340 107 323 149 q 386 40 357 66 q 456 2 416 14 q 546 -9 497 -9 q 613 -6 581 -9 q 671 5 646 -3 m 236 953 q 207 947 220 953 q 182 930 193 941 q 166 906 172 920 q 160 876 160 892 q 166 847 160 861 q 182 823 172 833 q 207 806 193 812 q 236 800 220 800 q 266 806 252 800 q 290 823 279 812 q 307 847 300 833 q 313 876 313 861 q 307 906 313 892 q 290 930 300 920 q 266 947 279 941 q 236 953 252 953 m 528 953 q 498 947 512 953 q 474 930 484 941 q 458 906 464 920 q 452 876 452 892 q 458 847 452 861 q 474 823 464 833 q 498 806 484 812 q 528 800 512 800 q 557 806 543 800 q 582 823 571 812 q 598 847 592 833 q 604 876 604 861 q 598 906 604 892 q 582 930 592 920 q 557 947 571 941 q 528 953 543 953 m 0 681 "},"ΐ":{"ha":764,"x_min":0,"x_max":671,"o":"m 671 5 l 671 106 q 620 94 648 99 q 564 90 592 90 q 472 123 503 90 q 441 229 441 157 l 441 681 l 93 681 l 93 582 l 323 582 l 323 210 q 340 107 323 149 q 386 40 357 66 q 456 2 416 14 q 546 -9 497 -9 q 613 -6 581 -9 q 671 5 646 -3 m 178 943 q 150 938 163 943 q 127 922 136 932 q 112 899 117 912 q 106 871 106 886 q 126 820 106 840 q 178 799 147 799 q 206 805 193 799 q 229 820 220 810 q 244 843 239 829 q 250 871 250 856 q 244 899 250 886 q 229 922 239 912 q 206 938 220 932 q 178 943 193 943 m 586 943 q 558 938 571 943 q 535 922 545 932 q 520 899 526 912 q 514 871 514 886 q 535 820 514 840 q 586 799 555 799 q 614 805 601 799 q 637 820 628 810 q 653 843 647 829 q 659 871 659 856 q 653 899 659 886 q 637 922 647 912 q 614 938 628 932 q 586 943 601 943 m 488 978 l 353 978 l 300 790 l 401 790 l 488 978 m 0 681 "},"ό":{"ha":764,"x_min":0,"x_max":701,"o":"m 701 346 q 680 495 701 430 q 618 604 659 560 q 520 670 578 648 q 389 693 462 693 q 252 667 312 693 q 149 594 191 641 q 85 481 107 547 q 62 336 62 416 q 84 186 62 252 q 145 77 105 121 q 244 11 186 33 q 375 -12 302 -12 q 512 14 452 -12 q 614 87 572 40 q 679 200 656 134 q 701 346 701 267 m 581 340 q 569 244 581 290 q 534 163 558 198 q 472 108 510 129 q 382 87 435 87 q 299 103 336 87 q 237 151 262 119 q 197 230 211 182 q 183 340 183 277 q 194 436 183 391 q 230 517 205 482 q 291 572 254 551 q 382 593 329 593 q 464 577 427 593 q 527 529 501 561 q 567 451 553 498 q 581 340 581 404 m 549 972 l 406 972 l 318 790 l 428 790 l 549 972 m 0 681 "},"ύ":{"ha":764,"x_min":0,"x_max":665,"o":"m 648 681 l 530 681 q 543 532 539 606 q 547 382 547 458 q 533 251 547 306 q 493 159 518 195 q 435 106 469 123 q 363 89 401 89 q 299 99 326 89 q 257 131 273 109 q 233 184 240 152 q 225 256 225 217 q 227 350 225 306 q 228 422 228 394 q 212 681 228 556 l 94 681 q 110 414 110 552 q 109 337 110 378 q 107 248 107 295 q 166 53 107 119 q 353 -12 224 -12 q 485 16 427 -12 q 583 96 543 44 q 644 222 623 149 q 665 387 665 296 q 661 534 665 461 q 648 681 657 607 m 549 972 l 406 972 l 318 790 l 428 790 l 549 972 m 0 681 "},"ΰ":{"ha":764,"x_min":0,"x_max":665,"o":"m 648 681 l 530 681 q 543 532 539 606 q 547 382 547 458 q 533 251 547 306 q 493 159 518 195 q 435 106 469 123 q 363 89 401 89 q 299 99 326 89 q 257 131 273 109 q 233 184 240 152 q 225 256 225 217 q 227 350 225 306 q 228 422 228 394 q 212 681 228 556 l 94 681 q 110 414 110 552 q 109 337 110 378 q 107 248 107 295 q 166 53 107 119 q 353 -12 224 -12 q 485 16 427 -12 q 583 96 543 44 q 644 222 623 149 q 665 387 665 296 q 661 534 665 461 q 648 681 657 607 m 178 943 q 150 938 163 943 q 127 922 136 932 q 112 899 117 912 q 106 871 106 886 q 126 820 106 840 q 178 799 147 799 q 206 805 193 799 q 229 820 220 810 q 244 843 239 829 q 250 871 250 856 q 244 899 250 886 q 229 922 239 912 q 206 938 220 932 q 178 943 193 943 m 586 943 q 558 938 571 943 q 535 922 545 932 q 520 899 526 912 q 514 871 514 886 q 535 820 514 840 q 586 799 555 799 q 614 805 601 799 q 637 820 628 810 q 653 843 647 829 q 659 871 659 856 q 653 899 659 886 q 637 922 647 912 q 614 938 628 932 q 586 943 601 943 m 488 978 l 353 978 l 300 790 l 401 790 l 488 978 m 0 681 "},"ϋ":{"ha":764,"x_min":0,"x_max":665,"o":"m 648 681 l 530 681 q 543 532 539 606 q 547 382 547 458 q 533 251 547 306 q 493 159 518 195 q 435 106 469 123 q 363 89 401 89 q 299 99 326 89 q 257 131 273 109 q 233 184 240 152 q 225 256 225 217 q 227 350 225 306 q 228 422 228 394 q 212 681 228 556 l 94 681 q 110 414 110 552 q 109 337 110 378 q 107 248 107 295 q 166 53 107 119 q 353 -12 224 -12 q 485 16 427 -12 q 583 96 543 44 q 644 222 623 149 q 665 387 665 296 q 661 534 665 461 q 648 681 657 607 m 236 953 q 207 947 220 953 q 182 930 193 941 q 166 906 172 920 q 160 876 160 892 q 166 847 160 861 q 182 823 172 833 q 207 806 193 812 q 236 800 220 800 q 266 806 252 800 q 290 823 279 812 q 307 847 300 833 q 313 876 313 861 q 307 906 313 892 q 290 930 300 920 q 266 947 279 941 q 236 953 252 953 m 528 953 q 498 947 512 953 q 474 930 484 941 q 458 906 464 920 q 452 876 452 892 q 458 847 452 861 q 474 823 464 833 q 498 806 484 812 q 528 800 512 800 q 557 806 543 800 q 582 823 571 812 q 598 847 592 833 q 604 876 604 861 q 598 906 604 892 q 582 930 592 920 q 557 947 571 941 q 528 953 543 953 m 0 681 "},"ώ":{"ha":764,"x_min":0,"x_max":737,"o":"m 439 268 l 439 476 l 325 476 l 325 250 q 317 181 325 210 q 298 132 310 151 q 271 103 286 113 q 239 94 255 94 q 198 111 216 94 q 169 158 180 128 q 151 229 157 188 q 144 319 144 271 q 164 526 144 437 q 220 681 184 614 l 92 681 q 45 524 64 614 q 26 321 26 434 q 42 170 26 233 q 84 66 58 106 q 148 7 111 26 q 228 -12 185 -12 q 277 -4 252 -12 q 322 24 301 5 q 358 73 342 43 q 379 144 373 102 q 394 70 382 100 q 426 22 406 40 q 469 -4 445 3 q 521 -12 494 -12 q 610 10 570 -12 q 678 75 650 33 q 722 177 707 117 q 737 313 737 237 q 718 523 737 432 q 671 681 699 614 l 544 681 q 598 528 578 618 q 619 318 619 439 q 594 152 619 210 q 525 94 569 94 q 461 137 483 94 q 439 268 439 179 m 549 972 l 406 972 l 318 790 l 428 790 l 549 972 m 0 681 "},"΄":{"ha":764,"x_min":0,"x_max":549,"o":"m 549 972 l 406 972 l 318 790 l 428 790 l 549 972 m 0 681 "},"΅":{"ha":764,"x_min":0,"x_max":659,"o":"m 178 943 q 150 938 163 943 q 127 922 136 932 q 112 899 117 912 q 106 871 106 886 q 126 820 106 840 q 178 799 147 799 q 206 805 193 799 q 229 820 220 810 q 244 843 239 829 q 250 871 250 856 q 244 899 250 886 q 229 922 239 912 q 206 938 220 932 q 178 943 193 943 m 586 943 q 558 938 571 943 q 535 922 545 932 q 520 899 526 912 q 514 871 514 886 q 535 820 514 840 q 586 799 555 799 q 614 805 601 799 q 637 820 628 810 q 653 843 647 829 q 659 871 659 856 q 653 899 659 886 q 637 922 647 912 q 614 938 628 932 q 586 943 601 943 m 488 978 l 353 978 l 300 790 l 401 790 l 488 978 m 0 681 "},"·":{"ha":764,"x_min":269,"x_max":494,"o":"m 382 808 q 338 799 358 808 q 302 774 317 789 q 278 738 287 759 q 269 694 269 717 q 278 650 269 671 q 302 615 287 630 q 338 590 317 600 q 382 581 358 581 q 426 590 405 581 q 461 615 446 600 q 486 650 477 630 q 494 694 494 671 q 486 738 494 717 q 461 774 477 759 q 426 799 446 789 q 382 808 405 808 "},";":{"ha":764,"x_min":170,"x_max":497,"o":"m 170 -139 l 170 -232 q 312 -208 251 -232 q 415 -144 374 -184 q 476 -53 456 -104 q 497 56 497 -1 q 487 127 497 97 q 461 178 477 158 q 422 209 444 199 q 376 218 400 218 q 335 210 353 218 q 307 189 318 202 q 290 161 296 176 q 285 131 285 145 q 295 85 285 102 q 317 54 304 68 q 339 21 329 39 q 349 -25 349 3 q 334 -75 349 -53 q 294 -111 319 -96 q 237 -133 269 -125 q 170 -139 204 -140 m 382 693 q 341 685 360 693 q 309 662 323 676 q 286 629 294 648 q 278 589 278 610 q 286 548 278 567 q 309 515 294 530 q 341 493 323 501 q 382 485 360 485 q 422 493 403 485 q 455 515 441 501 q 478 548 469 530 q 486 589 486 567 q 478 629 486 610 q 455 662 469 648 q 422 685 441 676 q 382 693 403 693 "},"ʹ":{"ha":764,"x_min":154,"x_max":497,"o":"m 154 568 l 197 484 q 323 553 267 513 q 417 642 378 594 q 476 743 456 690 q 497 848 497 795 q 492 892 497 871 q 476 930 487 913 q 449 956 466 946 q 410 966 433 966 q 352 942 373 966 q 330 882 330 918 q 333 840 330 860 q 336 798 336 821 q 327 727 336 760 q 295 668 317 695 q 239 616 273 640 q 154 568 204 591 "},"͵":{"ha":764,"x_min":150,"x_max":492,"o":"m 489 220 l 390 220 q 389 135 392 172 q 378 69 386 98 q 358 18 370 40 q 328 -21 345 -4 q 283 -55 305 -43 q 240 -75 260 -67 q 201 -90 219 -83 q 171 -110 184 -97 q 150 -164 150 -130 q 155 -189 150 -177 q 171 -211 160 -201 q 197 -225 181 -220 q 233 -231 212 -231 q 300 -216 265 -231 q 370 -167 335 -201 q 431 -87 406 -130 q 469 5 455 -43 q 488 108 484 54 q 489 220 492 162 "}}}
